<?xml version="1.0" encoding="utf-8"?>
<!-- Generator: Adobe Illustrator 16.0.1, SVG Export Plug-In . SVG Version: 6.00 Build 0)  -->
<!DOCTYPE svg PUBLIC "-//W3C//DTD SVG 1.1//EN" "http://www.w3.org/Graphics/SVG/1.1/DTD/svg11.dtd">
<svg xmlns="http://www.w3.org/2000/svg" xmlns:xlink="http://www.w3.org/1999/xlink" version="1.1" id="Layer_1" x="0px" y="0px" width="220px" height="353px" viewBox="198.5 213.5 220 353" xml:space="preserve">
<path d="M271.342,304.921c-0.383,0.557-0.601,0.875-0.915,1.332c-0.441-0.371-0.953-0.646-1.246-1.071  c-1.72-2.49-3.656-4.879-5.018-7.558c-2.503-4.922-3.547-10.12-2.532-15.746c0.9-4.991,2.281-9.726,5.312-13.807  c2.314-3.117,4.89-6.041,7.378-9.026c1.144-1.372,2.364-2.68,3.532-4.032c0.201-0.233,0.491-0.58,0.44-0.808  c-0.282-1.27,0.564-1.995,1.219-2.841c2.098-2.715,4.222-5.438,7.131-7.322c3.874-2.509,7.85-4.863,11.793-7.264  c1.771-1.078,3.506-2.241,5.37-3.132c2.873-1.374,5.789-2.673,9.091-2.743c2.818-0.06,5.063,1.271,7.269,2.743  c0.74,0.495,1.204,0.857,1.652-0.347c0.351-0.94,2.184-1.281,3.188-0.727c0.605,0.334,1.128,0.555,1.396-0.317  c0.429-1.393,1.584-1.603,2.758-1.635c4.055-0.113,7.907,0.846,11.699,2.214c5.278,1.905,9.984,4.828,14.357,8.238  c3.685,2.872,6.908,6.284,9.751,10.011c7.407,9.709,10.701,20.769,10.439,32.886c-0.13,6.022-0.623,12.037-0.99,18.053  c-0.093,1.511-0.373,3.01-0.482,4.521c-0.04,0.565,0.152,1.149,0.254,1.722c0.056,0.311,0.242,0.632,0.198,0.923  c-1.02,6.752-2.06,13.497-5.457,19.596c-0.692,1.247-1.171,2.615-1.741,3.929c-0.062,0.145-0.135,0.309-0.123,0.458  c0.223,2.958-1.115,5.654-1.401,8.548c-0.481,4.869-0.646,9.693,0.031,14.553c0.52,3.729,1.638,7.205,3.511,10.477  c0.898,1.57,2.109,2.184,3.874,2.225c1.243,0.028,2.587,0.198,3.69,0.717c1.82,0.858,2.277,2.786,2.762,4.56  c1.813,6.658,2.279,13.502,2.568,20.347c0.159,3.744,0.031,7.511-0.195,11.253c-0.222,3.617-0.725,7.22-1.132,10.823  c-0.09,0.783-0.075,1.422,0.546,2.069c1.122,1.169,2.253,2.376,3.114,3.734c0.868,1.367,1.532,2.896,2.077,4.43  c1.937,5.436,2.771,11.054,2.645,16.829c-0.084,3.806-0.353,7.583-1.502,11.229c-0.901,2.859-2.036,5.619-4.008,7.964  c-0.407,0.485-0.628,1.16-0.829,1.782c-0.777,2.384-1.503,4.785-2.276,7.171c-0.091,0.28-0.307,0.631-0.553,0.729  c-0.75,0.301-1.542,0.493-2.318,0.729c-0.051-0.76-0.252-1.546-0.12-2.271c0.265-1.445,0.773-2.847,1.056-4.289  c0.139-0.708-0.004-1.472-0.024-2.208c-0.006-0.193-0.127-0.455-0.041-0.567c1.277-1.671,0.741-3.625,0.789-5.448  c0.109-4.185-1.027-8.124-2.741-11.91c-0.062-0.138-0.176-0.252-0.494-0.695c-0.141,0.321-0.256,0.524-0.32,0.744  c-0.95,3.211-1.902,6.422-2.823,9.642c-0.073,0.255-0.025,0.705,0.146,0.845c2.174,1.769,2.559,4.289,2.679,6.793  c0.237,4.984,0.355,9.98-0.583,14.927c-0.598,3.136-1.21,6.262-2.667,9.153c-0.25,0.495-0.168,1.148-0.309,1.713  c-0.172,0.695-0.717,1.103-1.345,0.767c-1.095-0.585-2.105-1.333-3.128-2.046c-0.297-0.206-0.513-0.526-0.984-1.027  c-0.376,3.291-0.714,6.256-1.067,9.366c-2.21-0.974-1.987-2.795-2.023-4.312c-0.062-2.701,0.167-5.412,0.248-8.119  c0.012-0.396-0.125-0.799-0.192-1.197c-0.124-0.021-0.249-0.041-0.373-0.062c-0.743,1.813-1.55,3.604-2.216,5.446  c-0.772,2.138-1.431,4.318-2.124,6.484c-0.092,0.287-0.201,0.624-0.134,0.896c0.448,1.831,0.051,2.52-1.563,3.544  c-2.693,1.711-5.684,1.65-8.663,1.66c-5.889,0.018-11.41-1.762-16.846-3.738c-3.594-1.307-6.446-3.762-8.605-6.938  c-0.572-0.842-1.268-0.952-2.161-0.836c-4.704,0.612-9.426,1.116-14.114,1.828c-5.131,0.777-10.226,1.79-15.352,2.601  c-1.917,0.303-3.886,0.514-5.816,0.428c-2.285-0.102-3.523-1.538-3.346-3.385c0.081-0.849,1.075-1.66,1.756-1.236  c2.588,1.612,5.267,0.832,7.927,0.469c3.203-0.438,6.383-1.056,9.594-1.414c4.78-0.534,9.574-0.938,14.368-1.333  c1.179-0.099,2.375,0.065,3.563,0.071c0.334,0.003,0.669-0.132,1.074-0.219c-0.496-1.355-1.005-2.271-2.585-2.542  c-2.738-0.467-5.386-1.474-8.123-1.929c-4.325-0.72-8.682-1.311-13.047-1.698c-5.169-0.46-10.36-0.706-15.546-0.924  c-2.009-0.084-4.032,0.162-6.339,0.271c1.029,1.544,1.857,2.837,2.736,4.094c1.974,2.822,3.732,5.753,4.625,9.119  c0.243,0.917,0.538,1.541,1.731,1.181c0.35-0.105,1.19,0.361,1.289,0.711c0.159,0.566,0.116,1.447-0.236,1.856  c-1.54,1.788-4.239,1.339-5.142-0.818c-0.39-0.932-0.58-1.435-1.909-1.057c-2.513,0.713-3.91-0.175-4.958-2.533  c-0.091-0.206-0.256-0.379-0.496-0.728c-6.894,17.178-9.559,34.962-9.891,53.196c-1.169-0.646-0.821,0.96-1.634,1.051  c-0.109-0.167-0.344-0.368-0.373-0.595c-0.418-3.274-0.993-6.521-0.639-9.87c0.289-2.723,0.147-5.488,0.361-8.223  c0.222-2.822,0.56-5.644,0.998-8.439c0.542-3.456,1.113-6.916,1.904-10.32c0.836-3.601,1.926-7.144,2.945-10.7  c0.557-1.944,1.246-3.854,1.783-5.803c0.737-2.678,0.748-2.728,3.379-2.698c-0.161-0.236-0.28-0.425-0.412-0.604  c-1.566-2.133-3.113-4.28-4.708-6.393c-1.583-2.099-3.181-4.168-5.642-5.386c-2.065-1.021-2.582-2.932-1.117-5.011  c2.15-3.051,3.777-6.394,5.205-9.766c1.223-2.888,1.728-6.116,2.277-9.242c0.607-3.453,0.997-6.954,1.303-10.449  c0.186-2.129,0.035-4.287,0.035-6.591c-0.94,2.204-1.739,4.341-2.745,6.376c-1.406,2.845-2.985,5.604-4.45,8.419  c-0.545,1.048-1.118,2.115-1.432,3.243c-1.229,4.419-2.398,8.855-3.511,13.305c-0.465,1.862-1.133,3.765,0.146,5.642  c0.221,0.322,0.15,1.068-0.081,1.432c-0.513,0.805-1.246,1.466-1.821,2.236c-0.223,0.298-0.3,0.727-0.377,1.108  c-0.436,2.159-0.843,2.462-3.038,1.989c0.131,0.399,0.162,0.737,0.333,0.973c1.281,1.755,0.565,4.091-2.138,4.627  c-2.435,0.483-4.719,1.485-6.849,2.953c-2.628,1.812-5.107,3.956-8.286,4.871c-0.288,0.083-0.621,0.37-0.733,0.646  c-0.567,1.395-1.586,1.876-2.941,1.123c-0.961-0.534-1.83-1.266-2.66-1.998c-1.425-1.259-2.878-2.508-4.141-3.921  c-0.66-0.738-1.054-1.78-1.368-2.75c-0.922-2.847-1.683-5.742-2.619-8.582c-1.469-4.456-1.646-9.011-1.242-13.625  c0.138-1.569-0.053-3.248,1.414-4.405c0.112-0.089,0.147-0.384,0.101-0.549c-0.575-2.045,0.533-3.784,1.083-5.603  c0.149-0.494,0.92-0.828,1.447-1.174c1.885-1.236,3.688-2.517,5.091-4.366c0.784-1.033,2.033-1.711,3.048-2.577  c1.196-1.021,1.899-2.257,2.39-3.828c0.726-2.329,2.01-4.482,3.025-6.726c0.753-1.661,1.559-3.31,2.161-5.025  c1.083-3.086,1.932-6.257,3.062-9.322c1.085-2.946,2.442-5.79,3.604-8.709c0.721-1.812,1.262-3.694,1.953-5.521  c1.495-3.945,2.309-8.059,2.648-12.227c0.312-3.826,1.31-7.464,2.471-11.06c0.404-1.251,1.478-2.312,2.345-3.378  c0.741-0.912,1.417-1.951,2.766-2.174c0.145-0.024,0.316-0.958,0.183-1.378c-0.377-1.192-0.385-2.285,0.448-3.267  c0.214-0.252,0.551-0.477,0.87-0.551c0.905-0.208,1.826-0.357,2.747-0.483c1.058-0.145,1.425-0.69,0.829-1.546  c-0.676-0.971-1.412-1.978-2.345-2.667c-0.656-0.485-1.73-0.748-2.536-0.614c-1.474,0.245-2.717-0.223-3.644-1.098  c-1.492-1.41-2.772-3.054-4.062-4.662c-0.825-1.028-1.589-2.005-3.107-1.835c-0.672,0.075-1.359,0.002-2.036,0.048  c-3.454,0.23-6.312-1.289-8.779-3.397c-1.249-1.067-2.059-2.722-2.861-4.221c-0.995-1.861-1.766-3.841-2.65-5.761  c-1.443-3.131-0.753-6.171,0.396-9.181c2.245-5.879,6.774-9.409,12.363-11.73c2.789-1.158,5.616-1.076,8.459,0.222  c3.843,1.754,6.997,4.25,8.672,8.146c1.986,4.619,2.515,9.457,1.084,14.388c-0.342,1.18-1.101,2.004-2.203,2.486  c-0.677,0.296-0.846,0.665-0.434,1.291c0.329,0.5,0.633,1.016,0.953,1.521c1.093,1.729,2.915,2.454,4.913,1.861  c1.816-0.539,3.449,0.306,5.119,0.665c1.19,0.256,2.265,1.032,3.403,1.548c1.302,0.589,1.724,1.759,1.872,3.008  c0.205,1.729,0.273,3.475,0.365,5.216c0.043,0.818,0.292,1.403,1.21,1.48c0.158,0.013,0.316,0.045,0.469,0.087  c2.24,0.603,2.248,0.605,2.787-1.682c0.53-2.247,1.079-4.49,1.526-6.754c0.075-0.376-0.204-1.052-0.525-1.242  c-3.057-1.808-5.018-4.602-6.88-7.486c-1.015-1.57-1.98-3.173-2.927-4.787c-0.34-0.579-0.555-1.23-0.831-1.846  c-1.692-3.785-1.567-7.643-0.397-11.517c0.221-0.733,0.19-1.22-0.371-1.804c-1.583-1.644-2.206-3.742-2.593-5.934  c-0.146-0.822-0.369-1.631-0.553-2.447c-0.47-2.081-0.032-4.091,0.794-5.955c0.322-0.724,1.27-1.271,2.049-1.665  c0.79-0.399,1.734-0.483,2.59-0.766c0.207-0.068,0.471-0.376,0.476-0.579C272.03,310.507,272.141,307.837,271.342,304.921z   M349.899,316.848c0.191-0.05,0.385-0.1,0.576-0.15c-0.202-1.217-0.195-2.52-0.651-3.633c-1.146-2.793-2.454-5.523-3.795-8.23  c-0.489-0.989-0.379-1.784,0.328-2.485c0.635-0.628,2.038-0.396,2.664,0.415c0.385,0.498,0.688,1.075,0.933,1.656  c0.463,1.102,0.947,2.207,1.265,3.354c0.762,2.756,1.406,5.543,2.15,8.304c0.218,0.807,0.397,1.801,0.959,2.306  c1.81,1.631,2.496,3.657,2.545,5.968c0.054,2.542-0.624,4.931-1.537,7.292c-1.073,2.776-2.276,5.474-4.229,7.74  c-0.62,0.718-0.614,1.256-0.06,1.851c0.67,0.719,0.793,1.503,0.592,2.429c-0.116,0.54-0.102,1.11-0.137,1.667  c-0.302,4.804-0.01,9.588,0.638,14.343c0.257,1.881,0.661,3.806,1.402,5.539c0.688,1.604,1.899,2.987,2.914,4.443  c0.119,0.17,0.456,0.187,0.692,0.275c0.074-0.25,0.235-0.509,0.208-0.746c-0.079-0.671-0.212-1.339-0.368-1.998  c-0.198-0.836-0.544-1.51-1.426-1.932c-0.645-0.308-1.322-0.866-1.633-1.488c-0.91-1.831-1.074-3.771-0.656-5.823  c0.956-4.695,3.06-8.96,4.834-13.348c0.244-0.608,0.817-1.082,1.079-1.687c0.78-1.818,1.4-3.709,2.233-5.501  c1.572-3.381,3.406-6.648,4.837-10.085c1.354-3.253,2.625-6.599,3.39-10.024c0.776-3.484,0.978-7.11,1.276-10.686  c0.488-5.85,1.082-11.705,1.211-17.567c0.156-7.112-0.36-14.176-2.67-21.037c-1.995-5.928-4.617-11.462-8.661-16.264  c-2.883-3.423-6.105-6.473-9.646-9.237c-4.979-3.885-10.446-6.678-16.579-8.13c-1.918-0.454-3.89-0.51-6.049-0.084  c0.305,0.328,0.418,0.49,0.565,0.604c4.626,3.545,9.188,7.172,13.107,11.51c1.913,2.117,3.782,4.287,5.5,6.562  c1.869,2.476,3.494,5.135,5.304,7.657c5.29,7.374,9.791,15.157,12.334,23.93c1.17,4.035,1.792,8.187,1.859,12.399  c0.036,2.272-0.002,4.549-0.085,6.821c-0.14,3.832-0.279,7.671-1.456,11.368c-0.214,0.67-0.637,1.274-0.963,1.909  c-0.3-0.952-0.463-1.819-0.439-2.681c0.087-3.113,0.228-6.224,0.365-9.335c0.051-1.131,0.241-2.261,0.216-3.388  c-0.025-1.188-0.2-2.377-0.37-3.558c-0.556-3.865-0.979-7.76-1.774-11.576c-0.459-2.197-1.463-4.297-2.362-6.38  c-1.126-2.608-2.363-5.171-3.624-7.719c-0.383-0.774-1.037-1.41-1.508-2.147c-1.503-2.353-2.841-4.825-4.491-7.068  c-3.279-4.458-6.625-8.877-10.129-13.161c-3.834-4.689-8.538-8.469-13.442-11.986c-0.378-0.271-1.01-0.235-1.526-0.258  c-1.298-0.059-2.681,0.198-3.878-0.166c-1.497-0.455-2.892-1.327-4.245-2.155c-2.261-1.385-4.617-1.993-7.185-1.11  c-4.013,1.379-7.8,3.228-11.271,5.687c-0.094,0.067-0.109,0.247-0.204,0.483c1.257-0.069,2.398-0.132,3.763-0.207  c-0.941,2.008-2.543,2.752-4.108,3.304c-3.934,1.387-7.663,3.169-11.042,5.582c-1.53,1.093-2.853,2.532-4.063,3.985  c-0.445,0.535-0.422,1.568-0.387,2.364c0.036,0.822,0.869,0.695,1.441,0.929c0.625,0.254,1.252,0.764,1.626,1.33  c1.429,2.158,2.84,4.337,4.101,6.596c1.512,2.708,3.456,5.047,5.554,7.306c2.489,2.681,4.831,5.499,7.298,8.201  c0.843,0.924,1.875,1.675,2.831,2.516c1.153-1.699,1.358-1.75,3.152-0.954c1.53,0.68,3.056,1.372,4.604,2.008  c0.445,0.183,0.964,0.189,1.447,0.276c-0.084-0.585-0.227-0.879-0.453-1.078c-2.239-1.972-4.522-3.898-6.729-5.908  c-0.667-0.608-1.268-1.375-1.642-2.188c-0.217-0.471-0.142-1.397,0.19-1.726c0.51-0.504,1.334-0.68,2.055-0.04  c1.512,1.344,3.023,2.687,4.576,3.981c2.076,1.731,4.146,3.477,6.304,5.104c1.917,1.445,3.76,3.126,6.433,3.052  c0.266-0.007,0.776,0.397,0.773,0.604c-0.021,1.158,0.91,1.509,1.604,2.04c3.099,2.372,6.154,4.789,10.048,5.845  c1.562,0.424,2.989,1.315,4.521,1.882c1.635,0.605,3.302,1.144,4.985,1.588c1.337,0.353,2.751,0.423,4.073,0.813  c0.606,0.179,1.466,0.771,1.537,1.271c0.228,1.601,1.644,1.453,2.552,2.334c0.062-0.421,0.132-0.581,0.102-0.719  c-0.484-2.181-0.819-4.411-1.515-6.524c-1.117-3.402-2.388-6.762-3.759-10.07c-0.898-2.168-2.032-4.248-3.167-6.308  c-0.937-1.697-1.986-3.335-3.065-4.947c-0.95-1.419-2.051-2.738-3.012-4.152c-1.453-2.139-2.754-4.388-4.283-6.47  c-1.807-2.458-3.7-4.865-5.713-7.157c-2.631-2.996-5.51-5.723-8.688-8.184c-3.056-2.365-6.325-4.177-9.978-5.29  c-1.139-0.347-2.426-0.253-3.646-0.274c-0.791-0.014-1.601,0.25-2.373,0.157c-0.553-0.067-1.482-0.501-1.496-0.804  c-0.027-0.625,0.37-1.323,0.748-1.887c0.176-0.262,0.709-0.306,1.092-0.406c4.252-1.121,8.152,0.124,11.887,1.959  c6.666,3.277,11.877,8.358,16.388,14.105c3.488,4.446,6.602,9.196,9.779,13.879c1.809,2.663,3.548,5.391,5.065,8.225  c1.312,2.451,2.326,5.07,3.366,7.657c0.936,2.325,1.891,4.664,2.544,7.076c0.989,3.654,1.765,7.37,2.547,11.077  c0.223,1.053,0.583,1.931,1.352,2.697c0.342,0.341,0.585,0.881,0.662,1.365c0.128,0.799-0.202,1.455-1.136,1.066  c-1.161-0.484-2.251-1.139-3.364-1.734c-0.283-0.151-0.537-0.357-1.055-0.707c0.355,4.347,2.251,8.317,0.485,12.492  c-0.797-1.063-1.632-2.134-1.946-3.34c-0.946-3.625-1.688-7.305-2.52-10.96c-0.057-0.25-0.142-0.604-0.323-0.698  c-1.023-0.526-1.934-1.423-3.268-1.045c-0.412,0.117-0.885,0.167-1.305,0.095c-4.751-0.812-9.615-1.251-14.216-2.592  c-5.406-1.574-10.643-3.802-15.841-6.007c-3.29-1.395-6.406-3.211-9.548-4.936c-3.14-1.724-5.813-4.084-8.159-6.753  c-1.969-2.242-3.702-4.692-5.519-7.065c-1.593-2.081-3.215-4.145-4.713-6.292c-0.943-1.352-1.684-2.846-2.695-4.584  c-0.286,0.432-0.457,0.747-0.679,1.019c-1.601,1.958-3.328,3.823-4.788,5.879c-1.768,2.487-3.615,4.994-4.885,7.743  c-1.923,4.162-2.431,8.711-1.9,13.257c0.49,4.195,1.339,8.348,2.021,12.521c0.123,0.752,0.382,0.888,1.131,0.551  c1.721-0.773,3.148-1.718,3.887-3.609c0.183-0.469,1.292-0.813,1.964-0.796c0.845,0.022,1.228,0.799,1.196,1.66  c-0.021,0.559,0.022,1.15-0.147,1.667c-0.446,1.358-0.45,2.563,0.38,3.845c0.415,0.642,0.745,0.87,1.396,0.688  c1.578-0.443,2.836-1.304,3.83-2.656c1.199-1.631,2.492-3.204,3.861-4.694c0.7-0.763,1.656-1.291,2.495-1.924  c0.706,1.004,0.702,1.318,0.139,2.147c-0.756,1.115-1.467,2.263-2.247,3.362c-1.329,1.874-2.448,3.945-4.44,5.242  c-1.431,0.931-2.914,1.782-4.396,2.63c-1.203,0.688-2.295,0.604-3.3-0.304c-1.199-1.084-2.272-2.264-2-4.094  c0.056-0.381,0.008-0.778,0.008-1.284c-1.138,0.145-2.177,0.277-3.257,0.415c0.074,1.396,0.184,2.706,0.208,4.018  c0.136,7.5,0.254,14.973-1.979,22.3c-0.723,2.37-1.72,4.746-0.625,7.598c1.218,3.173,2.661,6.157,4.592,8.883  c1.415,1.997,3.141,3.795,4.885,5.523c0.606,0.6,1.553,1.074,2.646,0.697c1.188-0.41,2.289-0.1,3.355,0.616  c0.9,0.604,1.901,1.255,2.934,1.432c4.201,0.717,8.417,0.356,12.582-0.353c2.706-0.46,5.363-1.207,8.043-1.826  c0.654-0.151,1.311-0.298,1.962-0.463c1.228-0.311,2.453-0.621,3.675-0.953c1.794-0.488,3.843-0.607,5.315-1.585  c2.22-1.473,4.093-3.495,6.009-5.389c2.441-2.414,4.742-4.978,6.216-8.124c0.485-1.036,1.056-1.731,2.203-1.884  c1.28-0.17,1.247,0.973,1.65,1.722c0.614-0.085,1.199-0.224,1.785-0.237c1.45-0.033,2.904,0.007,4.356-0.013  c2.26-0.031,3.861-1.159,4.805-3.146c1.022-2.151,2.155-4.294,2.814-6.563c0.822-2.835,1.31-5.758-1.465-8.104  c-1.367-1.155-2.605-1.369-4.143-0.207c0.522,0.107,1.11,0.1,1.564,0.342c2.304,1.231,3.376,4.007,2.875,6.443  c-0.359,1.743-1.467,3.332-2.237,4.991c-0.994,2.141-2.856,3.362-4.829,4.392c-1.604,0.837-2.656,0.303-3.259-1.356  c-0.125-0.346-0.389-0.707-0.688-0.912c-1.524-1.034-1.728-0.914-0.664-3.216c0.282-0.613,0.624-1.205,0.983-1.777  c0.871-1.385,1.771-2.753,2.711-4.21c-2.214,0.022-3.295-1.177-2.655-2.828c0.552-1.427,1.27-2.767,2.766-3.466  c0.68-0.317,1.339-0.678,2.021-0.988c0.737-0.335,1.121-0.685,0.47-1.508c-0.489-0.618-0.837-1.357-1.193-2.069  c-1.646-3.289-2.685-6.938-5.865-9.286c-0.901-0.666-0.83-1.906-0.093-2.518c0.811-0.673,2.166-0.694,2.946,0.037  c0.726,0.679,1.434,1.394,2.049,2.172c2.538,3.209,3.535,7.115,4.836,10.881C349.562,316.034,349.739,316.438,349.899,316.848z   M360.174,483.06c0.291-0.57,0.543-1.005,0.739-1.464c0.908-2.124,1.799-4.255,2.698-6.382c0.884-2.09,1.978-4.118,2.612-6.28  c1.278-4.353,2.325-8.772,3.438-13.174c1.589-6.297,3.209-12.587,4.692-18.909c0.562-2.397,0.828-4.87,1.148-7.319  c0.298-2.288,0.444-4.597,0.736-6.885c0.474-3.719,1.232-7.413,1.472-11.145c0.377-5.926,0.572-11.873,0.551-17.81  c-0.012-3.29-0.79-6.57-0.914-9.866c-0.126-3.393-0.791-6.63-1.86-9.818c-0.263-0.778-0.637-1.338-1.552-1.421  c-1.536-0.139-3.073-0.307-4.601-0.532c-0.618-0.091-1.366-0.196-1.785-0.585c-1.579-1.469-3.205-1.227-4.921-0.393  c-0.463,0.225-0.934,0.434-1.396,0.658c-2.287,1.104-4.396,2.453-5.896,4.562c-1.364,1.917-1.522,1.996-3.81,1.308  c-0.086,0.333-0.217,0.657-0.25,0.991c-0.2,1.982-0.278,3.983-0.583,5.948c-0.979,6.304-2.118,12.583-3.018,18.898  c-0.296,2.079-0.047,4.235-0.047,6.449c0.353-0.088,0.514-0.099,0.646-0.166c0.816-0.412,1.591-0.971,2.453-1.211  c0.533-0.147,1.558-0.003,1.729,0.332c0.308,0.606,0.597,1.498-0.236,2.149c-0.361,0.283-0.623,0.697-0.738,0.833  c0.437,1.062,1.157,1.967,1.104,2.822c-0.354,5.684-0.71,11.377-1.392,17.026c-0.625,5.179-1.437,10.357-2.579,15.443  c-1.125,5.009-2.796,9.895-4.181,14.847c-0.603,2.157-0.877,2.236,1.172,3.167c0.215,0.099,0.424,0.231,0.599,0.391  c2.452,2.21,5.014,4.313,7.307,6.679c1.669,1.721,3.121,3.698,4.405,5.729C358.858,479.417,359.367,481.175,360.174,483.06z   M347.478,389.034c-0.232-0.429-0.633-0.812-0.593-1.141c0.391-3.211,0.836-6.415,1.305-9.615c0.211-1.441,0.054-1.683-1.438-1.749  c-1.824-0.082-3.653-0.254-5.474-0.194c-1.726,0.058-3.727-0.444-4.783,1.652c-0.046,0.091-0.219,0.112-0.289,0.2  c-0.319,0.4-0.75,0.767-0.911,1.227c-1.201,3.42-2.077,6.985-3.582,10.263c-1.823,3.969-4.09,7.744-6.301,11.524  c-2.322,3.972-5.458,7.323-8.731,10.512c-1.966,1.914-4.646,1.944-7.212,2.159c-0.349,0.029-0.87,0.36-0.964,0.66  c-0.432,1.368-0.359,2.952-2.021,3.726c2.229,2.156,3.254,4.739,3.771,7.506c0.586,3.138,0.396,6.433,1.997,9.352  c0.259,0.473,0.479,0.978,0.808,1.396c1.224,1.57,2.49,3.105,3.727,4.666c1.654,2.089,3.063,4.438,4.991,6.23  c3.604,3.355,7.44,6.477,11.31,9.534c2.273,1.797,4.77,3.316,7.209,4.895c1.148,0.741,1.454,0.586,1.81-0.744  c0.597-2.235,1.24-4.467,1.69-6.733c1.484-7.474,2.907-14.958,4.294-22.448c0.107-0.58-0.065-1.631-0.422-1.797  c-1.015-0.478-1.088-1.279-1.229-2.144c-0.156-0.943-0.343-1.884-0.49-2.829c-0.444-2.834-0.946-5.661-1.295-8.508  c-0.35-2.849-0.428-5.731-0.836-8.568c-0.335-2.33-0.519-4.578,0.328-6.843c0.402-1.075,0.646-2.221,0.87-3.353  c0.565-2.858,1.08-5.727,1.619-8.616C346.93,389.175,347.237,389.096,347.478,389.034z M316.376,480.98  c0.093-0.119,0.185-0.238,0.277-0.358c-0.661-1.344-1.367-2.667-1.956-4.042c-0.194-0.453-0.312-1.207-0.068-1.527  c0.622-0.827,0.294-1.479-0.039-2.221c-1.16-2.576-2.32-5.153-3.451-7.742c-1.356-3.106-2.704-6.221-4.02-9.346  c-1.42-3.376-2.724-6.803-4.243-10.132c-0.401-0.878-1.383-1.507-2.143-2.201c-0.807-0.737-1.678-1.281-2.889-0.905  c-0.207,0.064-0.6-0.461-0.902-0.72c-1.698-1.448-2.42-3.51-3.433-5.397c-0.673-1.255-1.455-2.457-2.26-3.633  c-0.144-0.209-0.662-0.284-0.976-0.231c-1.551,0.258-3.089,0.812-4.637,0.833c-4.46,0.059-8.923-0.074-13.384-0.17  c-0.785-0.018-1.199,0.084-1.103,1.025c0.428,4.221,0.318,8.445-0.068,12.664c-0.25,2.741-0.413,5.499-0.841,8.214  c-0.471,2.989-1.193,5.938-1.82,8.902c-0.155,0.729-0.23,1.522-0.577,2.159c-1.195,2.188-2.528,4.3-3.742,6.478  c-1.228,2.201-1.196,2.224,0.794,3.788c0.342,0.27,0.724,0.487,1.082,0.738c0.158,0.11,0.328,0.224,0.445,0.373  c0.825,1.05,1.604,2.136,2.462,3.156c0.857,1.021,1.89,1.885,2.362,3.206c0.762,2.137,2.587,3.092,4.641,3.952  c-0.299-0.581-0.496-1.108-0.812-1.552c-1.546-2.159-3.112-4.305-4.699-6.435c-0.554-0.743-0.654-1.59-0.099-2.206  c0.436-0.484,1.248-0.865,1.899-0.876c2.348-0.04,4.697,0.103,7.046,0.162c2.708,0.069,5.426,0.014,8.125,0.213  c4.619,0.34,9.221,0.923,13.841,1.239c4.104,0.282,8.131,0.903,12.105,1.944C314.308,480.602,315.348,480.769,316.376,480.98z   M221.798,461.241c0.095,0.562,0.451,1.475,0.361,2.34c-0.419,4.041-0.316,8.07,0.556,12.012c0.669,3.024,1.938,5.912,2.659,8.929  c0.699,2.928,2.566,4.783,4.917,6.32c0.343,0.226,0.938,0.272,1.34,0.149c0.692-0.212,1.318-0.633,1.98-0.947  c0.859-0.408,1.747-0.76,2.586-1.204c3.231-1.709,6.363-3.64,9.703-5.096c1.913-0.834,2.936-2.587,4.666-3.51  c0.101-0.055,0.139-0.271,0.163-0.42c0.394-2.388,0.636-4.81,1.202-7.153c0.973-4.028,2.18-7.999,3.219-12.012  c0.378-1.46,0.555-2.974,0.827-4.462c0.386-2.112,0.718-4.237,1.177-6.335c0.587-2.683,1.187-5.368,1.953-8.003  c0.696-2.394,1.626-4.719,2.443-7.076c0.055-0.161,0.024-0.353,0.036-0.576c-0.637,0.075-1.181,0.188-1.725,0.19  c-0.911,0.006-1.667-0.375-2.011-1.247c-1.208-3.063-1.835-6.271-2.097-9.538c-0.036-0.446,0.467-1.033,0.866-1.396  c0.569-0.518,1.272-0.889,1.954-1.346c-0.899-1.114-1.685-2.087-2.521-3.122c-0.182,0.29-0.345,0.549-0.505,0.81  c-2.829,4.608-5.593,9.26-8.512,13.812c-1.677,2.614-3.726,4.994-5.395,7.614c-3.044,4.782-6.923,8.76-11.179,12.448  c-2.085,1.809-3.916,3.909-5.853,5.886C223.722,459.213,222.856,460.135,221.798,461.241z M341.523,467.607  c-1.013-0.863-1.713-1.556-2.504-2.12c-3.748-2.682-7.677-5.138-11.242-8.04c-3.638-2.96-7.094-6.189-10.316-9.598  c-2.636-2.785-4.837-5.986-7.179-9.045c-0.667-0.871-1.279-0.773-2.024-0.224c-0.863,0.64-1.689,1.341-2.606,1.896  c-0.884,0.536-0.942,1.232-0.617,2.049c0.294,0.739,0.712,1.432,1.01,2.171c1.978,4.912,3.94,9.829,5.898,14.749  c1.62,4.068,3.161,8.172,4.859,12.207c1.389,3.298,2.807,6.602,4.495,9.749c1.332,2.48,3.027,4.78,4.689,7.068  c2.123,2.924,4.812,5.253,8.255,6.46c1.822,0.64,3.797,0.833,5.691,1.269c3.309,0.759,6.607,1.572,10.036,1.432  c1.52-0.062,3.294,0.424,4.076-1.592c0.049-0.126,0.254-0.188,0.372-0.293c1.936-1.727,2.882-4.182,2.977-6.479  c0.203-5.02-1.556-9.612-5.078-13.278c-2.478-2.576-5.226-4.9-7.93-7.248C343.519,467.982,342.501,467.195,341.523,467.607z   M310.414,400.104c-0.212,0.261-0.3,0.388-0.408,0.495c-0.345,0.348-0.711,0.971-1.043,0.953c-0.379-0.019-0.854-0.545-1.066-0.963  c-0.503-0.992-0.933-2.03-1.282-3.087c-0.64-1.926-1.228-3.87-1.785-5.821c-0.339-1.187-1.073-1.614-2.282-1.666  c-1.987-0.084-3.967-0.319-5.949-0.51c-1.51-0.146-3.014-0.35-4.526-0.462c-0.33-0.024-0.857,0.129-0.995,0.371  c-1.209,2.125-0.432,3.492,2.005,3.625c0.12,0.006,0.24,0.033,0.358,0.025c2.99-0.194,5.761,0.63,8.424,1.87  c1.072,0.499,2.042,1.058,2.224,2.523c0.142,1.152,0.722,2.261,1.183,3.355c0.104,0.246,0.542,0.535,0.792,0.507  c1.698-0.196,2.365,0.337,2.518,2.021c0.061,0.665,0.102,1.438,0.456,1.948c0.801,1.159,1.097,2.349,0.927,3.728  c-0.037,0.3,0.235,0.892,0.436,0.925c1.698,0.279,3.424,0.528,4.798-0.938c0.705-0.754,1.51-1.429,2.134-2.243  c1.884-2.456,3.848-4.87,5.514-7.471c3.675-5.736,6.555-11.853,8.293-18.477c0.569-2.169,0.642-1.753-1.563-2.534  c0.148,0.842,0.377,1.681,0.412,2.529c0.016,0.394-0.344,0.804-0.531,1.207c-0.422-0.224-0.953-0.352-1.249-0.687  c-2.483-2.821-2.94-6.419-3.428-9.898c-0.425-3.028-0.297-6.132-0.428-9.202c-0.038-0.933-0.122-1.863-0.193-2.902  c-0.466,0.21-0.789,0.346-1.104,0.5c-2.89,1.419-5.719,2.982-8.684,4.222c-2.446,1.022-5.022,1.783-7.603,2.414  c-1.1,0.269-1.255,0.582-1.2,1.625c0.115,2.153,0.427,4.322-0.569,6.441c-0.403,0.857-0.213,1.992-0.303,3.135  c0.935-0.233,1.619-0.539,2.302-0.538c0.737,0.002,1.472,0.307,2.213,0.453c1.963,0.386,2.802,1.048,2.818,3.025  c0.025,3.215-0.204,6.436-0.411,9.648c-0.062,0.939-1.495,2.13-1.91,1.733c-0.483-0.461-0.795-1.321-0.81-2.016  c-0.051-2.471,0.101-4.945,0.07-7.417c-0.006-0.481-0.396-1.29-0.744-1.372c-0.915-0.213-2.032-1.138-2.832,0.103  c-1.059,1.646-1.982,3.379-3.083,5.278c0.867,0.046,1.529,0.097,2.191,0.113c1.479,0.036,3.05,1.131,3.336,2.271  c0.688,2.743,1.389,5.482,2.146,8.208c0.091,0.327,0.592,0.821,0.822,0.781c1.21-0.21,2.44-0.452,3.578-0.898  c2.662-1.044,5.243-2.322,8.166-2.494c0.399-0.023,0.805,0.063,1.208,0.099c-0.185,0.439-0.245,1.097-0.573,1.285  c-3.103,1.775-6.233,3.503-9.395,5.174C312.505,401.78,311.336,401.476,310.414,400.104z M299.717,386.485  c0-1.775,0.021-3.245-0.014-4.712c-0.01-0.436-0.054-1.1-0.312-1.241c-0.31-0.17-1.171-0.018-1.264,0.21  c-0.633,1.555-1.583,1.416-2.766,0.726c-0.212-0.124-0.55-0.053-0.828-0.042c-3.222,0.13-6.443,0.29-9.667,0.388  c-1.377,0.042-2.8-0.266-4.13-0.023c-2.907,0.531-5.745,0.84-8.62-0.167s-5.857-1.567-8.908-1.626  c-0.461-0.009-1.291,0.325-1.336,0.602c-0.215,1.313-0.218,2.662-0.302,4.099c0.332-0.069,0.581-0.062,0.764-0.169  c1.294-0.756,2.552-1.58,3.873-2.284c0.493-0.263,1.148-0.426,1.691-0.354c2.552,0.341,5.371,3.705,5.483,6.596  c0.037,0.956,0.362,1.034,1.204,1.1c0.678,0.053,1.664,0.481,1.9,1.014c0.547,1.237-0.742,2.531-2.125,2.352  c-0.29-0.038-0.589-0.006-0.977-0.006c0.059,0.368,0.07,0.56,0.121,0.741c0.484,1.726,1.018,3.438,1.448,5.178  c0.285,1.147,0.286,2.3-0.692,3.212c-0.579,0.539-0.645,1.137-0.239,1.831c0.696,1.188,1.413,2.369,2.014,3.604  c1.209,2.492,1.001,3.244-1.208,4.934c-0.348,0.266-0.736,0.479-1.089,0.736c-1.105,0.813-2.203,1.638-3.487,2.593  c2.141,0.81,3.036,2.396,3.609,4.237c0.154,0.494,0.266,1.012,0.488,1.474c0.973,2.022-0.058,4.132-2.221,4.893  c-1.031,0.362-1.917,1.137-2.868,1.726c0.038,0.125,0.076,0.25,0.114,0.374c0.431,0.158,0.852,0.42,1.293,0.459  c3.171,0.281,6.344,0.563,9.522,0.755c2.056,0.124,4.045-0.25,5.923-1.168c1.584-0.774,3.139-1.729,5.052-1.199  c0.147,0.04,0.435-0.191,0.566-0.365c0.592-0.779,1.151-1.583,1.955-2.702c-1.474-0.425-2.658-0.828-3.871-1.101  c-1.292-0.29-1.951-0.84-1.684-2.127c0.409-1.976,1.036-3.913,1.708-5.819c0.25-0.709,0.246-1.099-0.273-1.672  c-0.44-0.486-0.85-1.227-0.842-1.85c0.019-1.661,0.233-3.323,0.443-4.978c0.121-0.948,0.221-1.867-0.614-2.53  c-0.821-0.651-0.928-1.477-0.633-2.362c0.365-1.096,0.837-2.154,1.254-3.233c0.221-0.571,0.423-1.148,0.712-1.938  c-0.494,0.135-0.707,0.203-0.924,0.251c-1.147,0.257-1.562-0.115-1.8-1.268c-0.481-2.327,0.905-4.35,0.969-6.562  c0.038-1.302,0.862-2.133,1.579-2.961c0.402-0.466,1.32-0.67,2.004-0.667c0.983,0.005,1.96,0.344,2.949,0.472  C296.428,386.139,298.199,386.315,299.717,386.485z M277.367,371.129c-0.732-0.045-1.31-0.117-1.886-0.11  c-1.496,0.018-2.375-0.56-2.592-1.878c-0.342-2.076-0.595-4.167-0.934-6.244c-0.081-0.495-0.292-0.994-0.547-1.43  c-0.758-1.295-2.104-1.697-3.429-1.89c-1.959-0.286-3.955-0.308-5.926-0.529c-3.128-0.351-6.151-2.877-6.71-5.73  c-0.203-1.035-0.534-1.361-1.545-1.165c-3.758,0.73-7.373,0.032-10.892-1.265c-0.512-0.188-1.108-0.743-1.252-1.246  c-1.336-4.671-1.423-9.22,1.622-13.38c0.827-1.13,1.837-2.089,3.215-2.314c3.007-0.491,5.015,0.25,6.456,3.363  c1.404,3.035,0.08,7.075-2.93,8.46c-0.345,0.159-0.896,0.184-1.203,0.009c-0.228-0.129-0.392-0.755-0.277-1.033  c0.418-1.013,0.895-2.019,1.481-2.944c0.929-1.465,0.478-3.444-1.098-4.379c-1.336-0.793-2.856-0.2-3.728,1.441  c-1.441,2.715-1.955,5.625-1.716,8.658c0.041,0.513,0.445,1.333,0.827,1.429c2.147,0.539,4.35,1.274,6.513,1.213  c2.004-0.057,4.001-0.972,5.965-1.622c1.22-0.404,1.988-1.313,2.022-2.681c0.029-1.151,0.128-2.311,0.029-3.452  c-0.427-4.899-1.769-9.325-6.305-12.125c-2.275-1.404-4.556-2.749-7.355-2.272c-2.493,0.425-4.591,1.709-6.571,3.262  c-2.873,2.253-5.182,4.877-6.072,8.508c-0.548,2.238-0.847,4.46,0.612,6.565c0.534,0.771,0.766,1.749,1.151,2.625  c1.13,2.575,2.371,5.062,4.959,6.539c2.155,1.229,4.465,1.685,6.919,1.458c2.254-0.208,4.093,0.308,5.501,2.33  c1.102,1.583,2.547,2.937,3.92,4.312c0.329,0.33,0.986,0.495,1.479,0.471c2.254-0.108,4.303,0.043,5.883,2.061  c1.285,1.641,2.846,3.044,2.465,5.424c-0.176,1.102-0.154,2.237-0.353,3.334c-0.207,1.14,0.288,1.47,1.313,1.611  c1.975,0.271,3.97,0.52,5.89,1.028c1.658,0.439,3.259,0.552,4.951,0.37c2.405-0.259,4.826-0.361,7.238-0.544  c0.448-0.034,0.892-0.132,1.338-0.201c0.005-0.104,0.011-0.207,0.017-0.311c-0.707-0.146-1.413-0.292-2.12-0.436  c-0.862-0.175-0.989-0.638-0.407-1.238c0.317-0.327,0.775-0.757,1.154-0.742c1.695,0.067,3.428,0.101,5.062,0.497  c1.117,0.271,2.076,1.156,3.147,1.683c0.282,0.139,0.717-0.035,1.082-0.066c-0.105-0.341-0.104-0.815-0.333-1.001  c-1.177-0.95-2.371-1.847-3.98-2.045c-0.931-0.115-1.933-0.385-2.704-0.89c-1.038-0.681-2.162-0.618-3.239-0.909  c-1.742-0.47-2.474,0.207-3.149,1.591c-0.307,0.628-0.786,0.922-1.736,0.479C277.368,373.208,276.942,372.532,277.367,371.129z   M339.104,372.596c0.554,0.072,0.86,0.142,1.17,0.147c1.912,0.037,3.833-0.022,5.737,0.115c1.446,0.104,2.928,0.554,3.601-1.302  c0.432-1.191,1.552-2.191,0.896-3.696c-0.441-1.016-0.831-2.092-1.007-3.18c-0.443-2.745-0.855-5.502-1.086-8.271  c-0.236-2.847-0.247-5.712-0.348-8.569c-0.045-1.251,0.288-2.549-0.666-3.665c-0.191-0.224-0.082-0.739-0.045-1.114  c0.041-0.416,0.156-0.824,0.262-1.343c-1.562-0.217-2.988-0.417-4.481-0.625c-0.08,0.936-0.051,1.79-0.238,2.593  c-1.104,4.695-2.365,9.355-3.361,14.072c-0.732,3.463-1.192,6.989-1.647,10.503c-0.081,0.63,0.259,1.64,0.74,1.95  C339.624,370.853,339.892,371.451,339.104,372.596z M271.131,303.156c-0.228-0.965-0.417-1.729-0.587-2.498  c-0.228-1.03-0.445-2.039,0.573-2.856c0.206-0.165,0.257-0.671,0.202-0.989c-0.276-1.606-0.62-3.2-0.923-4.802  c-1.5-7.938,0.572-15.001,5.292-21.396c1.943-2.633,3.947-5.221,5.92-7.833c0.366-0.484,0.704-0.959-0.217-1.249  c-0.773-0.243-0.531-0.802-0.274-1.256c0.387-0.686,0.106-1.049-0.437-1.49c-1.098-0.894-1.689-0.045-2.25,0.622  c-2.659,3.167-5.37,6.296-7.879,9.58c-2.139,2.799-3.818,5.884-4.397,9.445c-0.282,1.73-0.585,3.458-0.87,5.188  c-0.679,4.135,0.021,8.079,1.622,11.908c0.547,1.31,1.001,2.659,1.552,4.134C269.884,300.077,269.683,302.105,271.131,303.156z   M269.124,404.438c-1.062,0.851-2.352,1.774-3.512,2.841c-1.319,1.212-2.447,2.639-3.813,3.789c-0.559,0.472-1.53,0.628-2.3,0.596  c-0.347-0.014-0.996-0.911-0.917-1.279c0.149-0.685,0.65-1.354,1.157-1.884c0.539-0.561,1.278-0.923,1.89-1.419  c2.5-2.027,4.924-4.152,7.49-6.09c2.714-2.05,2.771-1.976,1.375-5.099c-0.048-0.109-0.092-0.221-0.14-0.331  c-0.303-0.696-0.667-1.005-1.458-0.504c-3.592,2.274-7.147,4.62-10.846,6.708c-2.411,1.361-3.397,3.079-2.59,5.752  c0.045,0.151,0.02,0.341,0.102,0.463c0.233,0.352,0.505,0.967,0.76,0.966c1.407-0.003,0.916,0.803,0.924,1.607  c0.009,0.879,0.31,1.791,0.652,2.619c0.287,0.692,0.854,1.265,1.228,1.929c0.386,0.686,0.679,1.424,1.03,2.131  c0.483,0.971,1.165,1.046,2.022,0.451c3.338-2.312,6.69-4.607,10.019-6.936c0.301-0.211,0.615-0.575,0.684-0.917  c0.222-1.103-1.437-3.861-2.508-4.404C269.992,405.232,269.685,404.889,269.124,404.438z M329.498,352.381  c0.922,1.315,0.907,2.524,0.429,3.875c-1.727,4.883-1.376,9.89-0.679,14.895c0.06,0.429,0.316,0.98,0.657,1.188  c0.725,0.443,4.183-0.772,4.538-1.507c0.081-0.167,0.053-0.387,0.078-0.582c0.404-3.192,0.722-6.399,1.244-9.572  c0.446-2.701,1.114-5.365,1.716-8.039c0.428-1.901,0.971-3.778,1.338-5.689c0.238-1.242,0.318-2.525,0.332-3.791  c0.004-0.369-0.399-0.935-0.743-1.059c-0.33-0.119-0.938,0.102-1.225,0.379c-0.681,0.658-1.343,1.377-1.837,2.179  C333.663,347.393,332.3,350.354,329.498,352.381z M383.418,456.208c-0.006,0.006,0.111-0.057,0.149-0.151  c0.135-0.333,0.247-0.675,0.356-1.017c1.492-4.666,1.799-9.458,1.67-14.324c-0.138-5.179-1.258-10.13-3.225-14.88  c-0.366-0.884-1.462-1.467-2.366-2.327c-0.17,0.608-0.271,0.866-0.312,1.134c-0.745,4.971-1.43,9.949-2.262,14.904  c-0.22,1.305-0.422,2.347,1.085,2.916c0.184,0.069,0.312,0.356,0.407,0.567c0.664,1.453,1.447,2.869,1.938,4.379  C381.8,450.304,382.569,453.253,383.418,456.208z M306.681,424.392c-0.731,1.062-1.168,1.875-1.776,2.53  c-0.902,0.975-1.786,2.278-2.93,2.639c-1.719,0.541-3.577,0.039-4.887-1.431c-1.44-1.617-1.549-1.629-2.76,0.189  c-0.545,0.818-0.746,1.55,0.145,2.276c0.231,0.189,0.349,0.526,0.496,0.809c1.012,1.938,1.98,3.9,3.053,5.806  c0.282,0.501,0.818,0.989,1.349,1.188c0.768,0.284,1.636,0.301,2.864,0.494c1.489-0.928,3.432-2.095,5.311-3.354  c0.308-0.205,0.508-0.836,0.469-1.243c-0.202-2.104-0.489-4.199-0.77-6.295C307.099,426.917,306.908,425.841,306.681,424.392z   M241.22,432.827c0.141,0.091,0.283,0.181,0.424,0.271c1.079-1.386,2.214-2.731,3.222-4.168c1.041-1.48,1.801-3.184,2.964-4.55  c2.084-2.451,2.917-5.711,5.305-7.939c0.219-0.204,0.323-0.549,0.442-0.844c0.343-0.853,0.636-1.726,1.005-2.564  c0.308-0.699,0.053-1.087-0.423-1.651c-0.739-0.876-1.408-1.909-1.753-2.989c-0.344-1.072-0.307-2.284-0.326-3.438  c-0.007-0.468,0.157-1.046,0.453-1.395c1.414-1.658,1.07-3.8-0.202-5.528c-0.125,0.715-0.227,1.283-0.325,1.852  c-0.204,1.176-0.362,2.362-0.621,3.526c-0.38,1.709-0.816,3.406-1.257,5.101c-0.321,1.234-0.59,2.495-1.054,3.678  c-0.982,2.504-2.147,4.937-3.109,7.446c-1.221,3.189-2.313,6.427-3.463,9.645C242.078,430.462,241.647,431.644,241.22,432.827z   M359.545,365.926c0.297,0.578,0.542,1.164,0.889,1.681c0.144,0.212,0.556,0.441,0.763,0.38c1.501-0.442,2.979-0.956,4.605-1.494  c-3.38-7.006-4.098-14.448-3.745-22.14c-0.354,0.135-0.462,0.142-0.492,0.193c-0.187,0.307-0.391,0.61-0.522,0.94  c-1.623,4.021-3.477,7.967-4.306,12.26c-0.187,0.961-0.182,1.996-0.057,2.97c0.219,1.696,0.899,2.231,2.577,2.471  c0.737,0.105,1.475,0.306,2.173,0.566c0.687,0.254,0.735,0.706,0.086,1.1C360.908,365.222,360.269,365.535,359.545,365.926z   M256.213,399.174c0.556-0.314,1.065-0.594,1.565-0.889c3.87-2.275,7.749-4.538,11.59-6.862c0.312-0.189,0.614-0.885,0.503-1.196  c-0.369-1.038-0.952-1.998-1.409-3.007c-0.528-1.168-1.394-1.339-2.461-0.873c-1.128,0.493-2.29,0.945-3.339,1.577  c-2.377,1.433-4.717,2.933-7.016,4.489c-0.368,0.249-0.684,0.969-0.612,1.403C255.32,395.537,255.77,397.23,256.213,399.174z   M371.492,460.987c-0.209,0.46-0.396,0.764-0.487,1.094c-0.462,1.647-1,3.285-1.328,4.962c-0.832,4.26-1.614,8.531-2.318,12.814  c-0.331,2.013,1.402,5.137,3.109,5.959C373.15,479.957,373.807,463.893,371.492,460.987z M291.624,401.693  c1.258,0.671,2.59,1.507,4.02,2.114c2.411,1.024,4.881,1.912,7.335,2.833c0.233,0.088,0.57,0.08,0.792-0.024  c0.649-0.308,1.265-0.687,2.106-1.154c-0.343-0.276-0.658-0.558-1-0.801c-0.544-0.39-1.285-0.637-1.624-1.152  c-0.777-1.184-1.461-2.454-1.992-3.766c-0.441-1.09-0.956-2.035-2.147-2.293c-1.779-0.386-3.577-0.698-5.382-0.928  c-0.261-0.033-0.754,0.519-0.879,0.888C292.41,398.721,292.079,400.068,291.624,401.693z M300.69,426.391  c0.654-0.558,1.275-0.968,1.738-1.514c0.591-0.695,1.043-1.508,1.574-2.257c0.812-1.147,0.773-1.57-0.306-2.511  c-0.536-0.469-1.329-0.806-1.586-1.388c-0.344-0.774-0.879-0.893-1.533-1.105c-1.875-0.614-3.77-1.199-5.574-1.986  c-1.793-0.782-1.957-0.802-2.618,1.074c-0.225,0.64-0.542,1.272-0.608,1.931c-0.04,0.402,0.206,1.085,0.516,1.231  c2.705,1.271,5.168,2.798,6.846,5.386C299.429,425.698,300.045,425.931,300.69,426.391z M294.775,372.436  c0.109-0.315,0.202-0.567,0.284-0.822c0.473-1.471,1.868-1.967,3.119-1.055c1.298,0.947,2.552,1.954,3.905,2.996  c0.101-0.399,0.367-0.871,0.303-1.292c-0.366-2.429-0.491-4.929-1.771-7.125c-0.147-0.251-0.492-0.493-0.777-0.54  c-1.807-0.295-3.622-0.542-5.436-0.787c-0.722-0.097-1.451-0.147-2.208-0.222c-0.099,2.17-0.227,4.159-0.251,6.149  c-0.005,0.434,0.254,1.002,0.584,1.281C293.154,371.548,293.919,371.912,294.775,372.436z M270.917,422.653  c-0.206-0.875-0.359-1.618-0.557-2.351c-0.201-0.74-0.674-0.898-1.379-0.623c-3.036,1.189-6.09,2.336-9.106,3.573  c-0.326,0.133-0.692,0.785-0.636,1.132c0.289,1.77,0.711,3.518,1.085,5.271c0.175,0.82,0.476,1.283,1.356,0.606  c2.872-2.205,5.77-4.378,8.629-6.599C270.622,423.423,270.75,422.941,270.917,422.653z M303.331,414.587  c0.529-0.042,1.005,0.054,1.135-0.116c0.396-0.519,0.746-1.11,0.939-1.729c0.102-0.323-0.036-0.966-0.279-1.114  c-1.345-0.822-2.702-1.67-4.156-2.259c-2.426-0.983-4.939-1.747-7.392-2.667c-0.872-0.326-1.209,0.042-1.343,0.78  c-0.127,0.703-0.129,1.431-0.262,2.133c-0.155,0.815,0.231,1.114,0.943,1.364c1.152,0.405,2.351,0.797,3.367,1.446  C298.517,413.856,301.047,414.108,303.331,414.587z M285.421,361.061c-0.769,2.231-1.526,4.36-2.201,6.515  c-0.055,0.176,0.521,0.799,0.69,0.757c1.688-0.421,3.031,0.204,4.281,1.233c0.059,0.048,0.212-0.018,0.273-0.025  c0-2.244,0.02-4.451-0.024-6.657c-0.006-0.292-0.273-0.713-0.534-0.841C287.13,361.66,286.297,361.396,285.421,361.061z   M314.095,287.03c2.369,2.022,5.152,2.577,7.716,3.624c2.564,1.047,5.087,2.201,7.628,3.307c0.053-0.103,0.105-0.207,0.159-0.31  c-0.32-0.282-0.622-0.591-0.966-0.841c-1.895-1.377-3.787-2.758-5.708-4.099c-0.699-0.489-1.438-1.144-2.223-1.247  C318.589,287.187,316.443,287.166,314.095,287.03z M347.031,331.073c0.461-0.731,0.854-1.196,1.071-1.733  c0.592-1.452,1.579-2.812,1.257-4.505c-0.075-0.391-0.358-0.742-0.547-1.111c-0.295,0.221-0.668,0.386-0.869,0.672  c-1.312,1.85-2.604,3.712-3.854,5.603c-0.351,0.529-0.537,1.166-0.799,1.754C344.669,331.458,345.342,329.162,347.031,331.073z   M253.857,389.154c0.098,0.067,0.196,0.134,0.294,0.2c0.381-0.245,0.77-0.479,1.142-0.737c0.71-0.493,1.369-1.08,2.127-1.481  c1.075-0.57,2.021-1.101,1.465-2.585c-0.098-0.26,0.142-0.628,0.107-0.932c-0.06-0.514-0.215-1.018-0.33-1.525  c-0.59,0.221-1.433,0.27-1.722,0.696c-0.875,1.29-1.57,2.708-2.264,4.11C254.325,387.612,254.125,388.4,253.857,389.154z   M270.784,326.804c0.947-3.397,1.051-6.502,1.134-9.757c-1.45,0.449-2.231,0.982-2.481,2.392c-0.394,2.222-0.021,4.29,0.637,6.362  C270.161,326.074,270.415,326.293,270.784,326.804z M277.2,489.623c-0.128,0.044-0.256,0.088-0.384,0.132  c0.118,0.981-1.189,1.908-0.101,2.881c0.524,0.47,1.143,1.183,2.296,0.514C278.398,491.955,277.799,490.789,277.2,489.623z   M299.962,375.51c-1.172-0.454-2.296-0.89-3.552-1.376C297.346,376.547,297.807,376.711,299.962,375.51z M351.74,370.157  c-0.086,0.055-0.171,0.11-0.257,0.165c0.189,0.956,0.38,1.913,0.604,3.046c0.665-0.345,1.149-0.595,1.771-0.917  C353.039,371.562,352.39,370.86,351.74,370.157z M266.215,431.117c-2.408,1.276-2.408,1.276-0.969,3.327  C265.577,433.309,265.874,432.289,266.215,431.117z M348.717,414.479c-0.152,0.004-0.308,0.007-0.462,0.01  c-0.371,1.568,0.07,3.104,0.462,4.643C348.717,417.581,348.717,416.03,348.717,414.479z M344.545,324.526  c0.815-1.24,1.51-2.294,2.237-3.4C345.11,321.556,344.248,322.775,344.545,324.526z M361.325,553.613  c0.271-0.964,0.771-1.928,0.77-2.891c-0.007-3.223,0.078-6.482-0.368-9.658c-0.938-6.668-2.181-13.29-3.315-19.93  c-0.728-4.244-1.449-8.49-2.251-12.721c-0.324-1.713-0.751-3.422-1.331-5.063c-0.377-1.069-2.104-1.48-3.101-0.952  c-0.748,0.396-0.896,1.509-0.508,2.543c0.526,1.404,1.062,2.829,1.359,4.294c0.977,4.765,1.82,9.557,2.767,14.327  c0.812,4.102,1.828,8.165,2.512,12.286c0.792,4.789,1.291,9.627,1.98,14.436c0.162,1.13,0.231,2.341,0.959,3.306  C360.974,553.598,361.149,553.605,361.325,553.613z M307.957,311.145c0.576,2.611,1.708,3.443,4.342,3.667  c4.58,0.39,7.967-1.923,10.911-4.894c1.789-1.805,3.11-4.091,4.524-6.239c0.373-0.566,0.496-1.441,0.409-2.134  c-0.146-1.186-0.826-1.361-1.721-0.543c-0.438,0.402-0.885,0.831-1.2,1.329c-1.896,2.996-4.164,5.667-7.146,7.599  c-1.056,0.684-2.396,1.039-3.656,1.263c-1.155,0.205-2.738-1.337-2.98-2.533c-0.438-2.155-0.267-4.29,0.143-6.422  c0.198-1.032-0.208-1.712-1.205-2.023c-1.023-0.319-1.996,0.077-2.359,1.053c-0.26,0.695-0.415,1.44-0.521,2.177  c-0.161,1.129-0.531,2.099-1.625,2.622c-1.58,0.755-3.184,1.461-4.743,2.254c-0.388,0.197-0.644,0.652-0.96,0.989  c0.427,0.25,0.877,0.747,1.275,0.708c1.911-0.188,3.808-0.521,5.958-0.84C307.554,309.705,307.796,310.416,307.957,311.145z   M298.134,306.32c1.644-0.026,2.004,0.483,1.567,1.676c-0.329,0.897-0.623,1.807-0.964,2.699c-0.389,1.015-0.384,1.967-0.214,3.086  c0.386,2.545,0.365,5.15,0.565,7.727c0.104,1.338,0.275,2.677,0.514,3.998c0.165,0.912-0.842,2.09-1.804,1.962  c-0.354-0.047-0.703-0.165-1.055-0.171c-0.251-0.005-0.504,0.123-0.756,0.19c0.079,0.276,0.169,0.548,0.234,0.828  c0.105,0.454,0.409,1.038,0.235,1.338c-0.23,0.396-0.873,0.837-1.282,0.788c-0.84-0.101-1.712-0.395-2.444-0.826  c-1.053-0.622-2.009-1.414-2.976-2.173c-1.669-1.312-2.027-3.249-2.289-5.175c-0.099-0.729,0.212-1.46,1.184-1.452  c1.387,0.012,2.265-0.851,2.847-1.897c1.722-3.095,3.342-6.247,4.964-9.396c0.209-0.406,0.176-0.931,0.289-1.393  C296.979,307.192,297.422,306.445,298.134,306.32z M297.492,314.846c-0.118-0.03-0.236-0.06-0.354-0.09  c-0.308,0.451-0.627,0.894-0.921,1.353c-1.403,2.188-2.252,4.757-4.448,6.41c-0.169,0.127-0.193,0.753-0.037,0.96  c0.949,1.258,1.849,2.492,3.726,2.607c1.619,0.099,1.817,0.051,1.825-1.549c0.013-2.736,0.135-5.472,0.207-8.208  C297.503,315.835,297.492,315.34,297.492,314.846z M293.85,343.835c1.095-0.504,2.149-1.147,3.294-1.484  c2.483-0.73,4.334-2.272,5.783-4.304c0.778-1.09,1.005-2.408,0.604-3.76c-0.2-0.675-0.663-0.92-1.28-0.644  c-0.834,0.374-1.79,0.678-2.406,1.298c-1.643,1.654-3.545,2.857-5.577,3.958c-1.835,0.995-3.649,1.059-5.512,0.38  c-1.28-0.466-2.142-1.303-2.419-2.824c-0.189-1.037-0.868-2.03-1.503-2.918c-0.241-0.337-1.034-0.532-1.459-0.405  c-0.323,0.096-0.654,0.808-0.648,1.241c0.016,1.106,0.216,2.21,0.348,3.314c0.171,1.43,1.107,2.362,2.165,3.167  c2.498,1.9,5.124,3.452,8.51,2.575C293.781,343.566,293.815,343.701,293.85,343.835z M295.842,288.964  c0.507-0.706,0.987-1.466,1.296-2.272c0.385-1.002-0.198-2.451-0.938-2.719c-0.773-0.28-1.787,0.375-2.303,1.491  c-0.067,0.145-0.118,0.297-0.183,0.443c-1.01,2.251-2.716,3.542-5.185,3.858c-1.104,0.141-2.305,0.192-3.257,0.682  c-1.192,0.613-2.24,0.387-3.31,0.019c-0.881-0.302-1.653-0.492-2.173,0.469c-0.392,0.725,0.065,2.048,0.837,2.408  c1.562,0.729,3.646,0.733,4.485-0.828c0.317-0.59,0.744-0.67,1.394-0.412c0.726,0.289,1.528,0.385,2.296,0.565  C292.126,292.533,293.916,291.644,295.842,288.964z"/>
</svg>
