<?xml version="1.0" encoding="utf-8"?>
<!-- Generator: Adobe Illustrator 16.0.1, SVG Export Plug-In . SVG Version: 6.00 Build 0)  -->
<!DOCTYPE svg PUBLIC "-//W3C//DTD SVG 1.1//EN" "http://www.w3.org/Graphics/SVG/1.1/DTD/svg11.dtd">
<svg xmlns="http://www.w3.org/2000/svg" xmlns:xlink="http://www.w3.org/1999/xlink" version="1.1" id="Layer_1" x="0px" y="0px" width="406px" height="367px" viewBox="93.5 212.5 406 367" xml:space="preserve">
<path d="M314.89,369.614c1.753,2.503,4.739,1.67,7.086,3.089c0.18-0.992,0.423-1.716,0.421-2.439  c-0.008-2.988-0.1-5.975-0.137-8.962c-0.009-0.73-0.019-1.484,0.156-2.181c0.073-0.29,0.659-0.667,0.962-0.628  c0.396,0.052,0.909,0.404,1.069,0.762c0.271,0.604,0.38,1.309,0.422,1.98c0.182,2.908,0.34,5.818,0.448,8.729  c0.025,0.706-0.144,1.425-0.266,2.13c-0.442,2.549-0.916,5.093-1.348,7.645c-0.077,0.455-0.011,0.934-0.011,1.562  c0.618-0.072,1.084-0.076,1.522-0.187c2.67-0.673,5.276-0.483,7.819,0.553c0.816,0.333,1.517,0.875,1.303,1.861  c-0.271,1.254-1.324,1.953-2.424,1.696c-0.653-0.152-1.266-0.472-1.914-0.649c-1.919-0.525-3.802-0.217-5.656,0.346  c-0.239,0.073-0.424,0.326-0.543,0.422c0.24,1.116,0.438,2.123,0.678,3.119c0.26,1.082,0.535,2.093,1.495,2.904  c0.728,0.614,1.062,1.672,1.653,2.469c1.251,1.683,2.334,3.586,3.895,4.923c2.364,2.027,4.766,4.112,7.758,5.275  c0.627,0.243,1.187,0.657,1.8,0.943c0.347,0.162,0.774,0.384,1.104,0.31c3.097-0.687,6.2-1.35,9.261-2.175  c5.87-1.583,11.453-3.932,16.899-6.606c0.596-0.293,1.08-0.803,1.661-1.13c0.349-0.195,0.819-0.389,1.176-0.311  c1.37,0.301,3.094-1.324,4.145,0.78c0.479,0.958,1.194,1.805,1.634,2.779c1.26,2.789,2.567,5.567,3.61,8.438  c1.943,5.356,3.791,10.753,5.523,16.182c0.81,2.531,1.331,5.162,1.832,7.775c0.188,0.982,0.054,2.067-0.147,3.062  c-0.085,0.417-0.679,0.838-1.135,1.017c-0.165,0.064-0.655-0.533-0.906-0.895c-0.284-0.409-0.467-0.891-0.817-1.586  c-3.119,6.637-5.486,13.414-9.942,19.082c-0.03,0.04,0.086,0.194,0.2,0.44c0.744-0.865,1.498-1.621,2.109-2.478  c1.972-2.759,3.771-5.649,5.864-8.312c1.967-2.5,4.218-4.775,6.35-7.145c0.821-0.912,1.61-1.86,2.503-2.697  c2.815-2.638,5.714-5.188,8.498-7.855c2.152-2.062,4.122-4.316,6.295-6.354c0.837-0.784,1.964-1.333,3.051-1.749  c0.746-0.285,1.408,0.674,1.605,2.123c-2.771,2.985-5.513,6.045-8.377,8.986c-1.633,1.677-3.517,3.106-5.195,4.741  c-1.884,1.833-3.797,3.661-5.464,5.685c-3.157,3.832-6.167,7.786-9.201,11.719c-2.556,3.314-5.104,6.638-7.571,10.019  c-2.379,3.258-4.637,6.603-6.965,9.896c-2.139,3.027-4.36,5.996-6.43,9.07c-1.289,1.918-2.406,3.958-3.493,6  c-0.249,0.469-0.173,1.2-0.044,1.764c0.478,2.094,0.19,4.15-0.3,6.164c-1.271,5.225-2.637,10.425-3.974,15.633  c-2.028,7.906-4.026,15.82-6.109,23.713c-1.403,5.318-2.933,10.604-4.397,15.906c-0.146,0.526-0.232,1.068-0.285,1.316  c1.338,1.524,2.553,2.78,3.614,4.152c1.638,2.113,3.824,3.524,6.095,4.758c2.766,1.502,5.73,2.639,8.497,4.141  c1.548,0.84,2.984,1.979,4.255,3.207c1.184,1.146,0.648,2.646-1.052,3.268c-1.848-2.49-4.869-3.062-7.514-4.257  c-5.571-2.52-10.839-5.409-14.635-10.402c-0.141-0.184-0.333-0.323-0.604-0.58c-0.986,1.946-1.109,4.633-4.37,4.634  c0-0.731-0.112-1.436,0.019-2.089c1.455-7.282,3.452-14.42,5.631-21.52c1.342-4.374,2.377-8.844,3.512-13.28  c1.592-6.223,3.158-12.449,4.711-18.682c0.74-2.969,1.425-5.951,2.142-8.958c-1.818-0.882-2.481-2.456-3.125-4.165  c-2.059-5.46-2.962-11.167-3.895-16.878c-0.096-0.588-0.278-1.163-0.447-1.737c-0.065-0.22-0.205-0.417-0.372-0.746  c-0.318,0.164-0.649,0.237-0.832,0.442c-2.096,2.343-4.244,4.645-6.211,7.09c-0.966,1.2-1.747,2.424-3.438,2.132  c-0.366,0.824-0.676,1.522-0.882,1.985c1.299,5.332,2.562,10.524,3.828,15.715c0.065,0.271,0.103,0.563,0.229,0.807  c0.968,1.827,1.035,3.83,1.122,5.821c0.283,6.459,0.605,12.919,0.788,19.382c0.09,3.218-0.107,6.441-0.14,9.663  c-0.01,1.034-0.028,2.099,0.188,3.098c0.274,1.263-0.046,2.15-1.131,2.817c-1.216-0.503-1.276-1.71-1.41-2.704  c-0.389-2.918-0.612-5.858-0.885-8.793c-0.076-0.83-0.158-1.671-0.106-2.498c0.03-0.5,0.316-0.981,0.479-1.476  c0.154-0.47,0.445-0.952,0.419-1.414c-0.206-3.507-0.433-7.013-0.734-10.512c-0.336-3.893-0.747-7.777-1.151-11.663  c-0.053-0.509-0.243-1.007-0.394-1.502c-1.253-4.162-2.487-8.33-3.784-12.479c-0.317-1.015-0.853-1.96-1.269-2.943  c-0.198-0.47-0.584-1.008-0.488-1.424c0.438-1.896-0.796-3.102-1.904-4.072c-2.058-1.801-4.384-3.293-6.602-4.909  c-0.094-0.067-0.224-0.12-0.336-0.12c-2.05,0.007-2.934-1.423-3.975-2.912c-3.127-4.474-6.428-8.826-9.63-13.247  c-0.365-0.503-0.679-1.123-0.762-1.724c-0.058-0.415,0.245-0.947,0.523-1.327c0.543-0.74,1.316-1.335,1.757-2.124  c1.234-2.215,2.353-4.495,3.499-6.757c0.101-0.198,0.1-0.454,0.117-0.687c0.21-2.728,0.375-5.459,0.65-8.179  c0.065-0.644,0.503-1.248,0.818-1.989c-1.354-1.822-1.104-2.617,1.133-3.991c1.752-1.076,3.383-2.353,5.116-3.573  c-1.946-1.179-1.278-3.126-1.003-4.771c0.761-4.522,1.778-9.003,2.646-13.509c0.142-0.73,0.013-1.513,0.053-2.268  c0.08-1.532,0.889-2.115,2.424-1.748c1.437-1.295,2.672-0.075,3.857,0.485c2.327,1.104,4.567,2.394,6.83,3.633  c1.146,0.628,2.222,1.399,3.4,1.954c1.429,0.67,2.907,1.259,4.411,1.734c1.946,0.616,2.265,1.92,1.656,4.184  c-0.672,2.494-0.814,5.132-1.188,7.705c0.147,0.06,0.295,0.116,0.442,0.176c1.01-0.861,2.003-1.74,3.03-2.578  c2.364-1.932,4.927-3.519,7.877-4.412c1.432-0.436,2.062-0.088,3.194,0.875c2.511,2.131,3.354,5.164,4.622,7.971  c0.527,1.165,0.088,1.789-1.043,2.597c-2.043,1.458-4,3.036-5.975,4.59c-1.375,1.081-2.719,2.2-4.016,3.254  c0.431,2.993,0.819,5.871,1.267,8.74c0.219,1.4,0.384,2.798,1.903,3.62c0.925,0.5,0.979,2.534,0.275,3.249  c-3.049,3.091-5.513,6.603-7.525,10.438c-0.297,0.564-0.594,1.132-0.92,1.681c-1.053,1.773-0.8,2.77,1.001,3.811  c0.24,0.139,0.5,0.246,0.759,0.354c0.933,0.39,1.332,1.068,1.521,2.086c1.026,5.531,2.134,11.047,3.229,16.565  c0.091,0.459,0.302,0.894,0.572,1.677c0.538-1.336,0.89-2.397,1.381-3.391c1.147-2.314,2.293-4.634,3.567-6.879  c1.651-2.906,3.378-5.773,5.164-8.6c2.021-3.199,4.252-6.271,6.173-9.527c0.762-1.29,0.966-2.921,1.366-4.41  c0.217-0.809,0.241-1.67,0.49-2.464c0.153-0.488,0.489-1.172,0.883-1.283c0.934-0.269,1.257-0.982,1.54-1.685  c2.182-5.396,4.32-10.811,6.457-16.226c0.203-0.514,0.354-1.062,0.43-1.609c0.188-1.386,0.948-2.242,2.451-2.642  c-0.262-0.812-0.493-1.559-0.744-2.3c-1.841-5.443-3.659-10.896-5.548-16.323c-0.496-1.426-1.025-2.902-1.869-4.13  c-1.28-1.86-2.015-3.964-3.077-5.914c-0.165-0.302-0.424-0.553-0.74-0.957c-1.827,0.804-3.577,1.65-5.384,2.35  c-4.16,1.61-8.335,3.184-12.526,4.704c-2.215,0.805-4.471,1.497-6.724,2.189c-3.352,1.028-6.539,0.653-9.532-1.217  c-0.431-0.27-0.897-0.483-1.365-0.681c-3.872-1.622-6.646-4.559-9.163-7.762c-1.62-2.061-3.123-4.215-4.623-6.366  c-0.328-0.469-0.46-1.09-0.618-1.659c-0.355-1.288-0.673-2.587-1.007-3.884c-0.433,0-0.63-0.028-0.817,0.005  c-0.954,0.166-1.683-0.082-1.944-1.098c-0.232-0.902,0.389-2.249,1.246-2.45c0.845-0.198,1.023-0.679,1.127-1.43  c0.298-2.167,0.675-4.324,1.013-6.486c0.029-0.187,0.004-0.381,0.004-0.677c-0.312,0-0.584-0.032-0.846,0.005  c-2.833,0.396-5.354-0.426-7.752-1.872c-0.642-0.385-1.444-0.497-2.169-0.744c-0.55-0.188-1.092-0.391-1.817-0.653  c0.315-0.521,0.459-0.944,0.748-1.206c2.767-2.493,4.574-5.701,6.536-8.784c1.624-2.553,3.092-5.205,4.716-7.758  c1.192-1.875,0.932-3.626,0.076-5.543c-1.993-4.468-3.707-9.082-3.753-14.026c-0.037-3.983,0.436-7.972,0.688-11.958  c0.023-0.358,0.146-0.716,0.131-1.07c-0.048-1.127,0.084-2.154,1.546-2.714c-1.265-1.951-2.334-3.806-3.606-5.509  c-1.412-1.89-2.11-3.99-2.438-6.275c-0.58-4.042,0.464-7.846,1.636-11.639c0.735-2.383,1.824-4.541,3.305-6.587  c1.147-1.588,1.615-3.658,2.713-5.293c1.662-2.472,3.581-4.775,5.445-7.106c1.115-1.395,2.412-2.648,3.479-4.075  c0.862-1.151,4.144-2.162,5.716-1.272c1.037-0.842,2.105-1.604,3.041-2.504c0.689-0.664,1.244-1.481,1.793-2.275  c0.662-0.959,1.617-1.234,2.613-0.95c2.142,0.61,4.219,1.44,6.357,2.056c5.86,1.688,11.724,3.375,17.619,4.938  c3.698,0.98,7.431,1.9,11.198,2.547c4.476,0.769,9.005,1.217,13.514,1.797c0.147,0.019,0.309-0.043,0.546-0.081  c-0.634-1.052-1.24-2.059-1.852-3.07c1.121-0.621,3.101-0.315,3.79,0.479c0.627,0.723,1.188,1.502,1.812,2.228  c0.581,0.677,1.116,1.178,2.068,0.312c0.729-0.662,1.671-0.53,2.514,0.13c0.432,0.339,0.986,0.638,1.521,0.711  c1.896,0.261,3.884,0.153,5.683,0.699c1.399,0.425,2.757,1.432,3.798,2.505c1.767,1.82,3.393,3.811,4.857,5.884  c2.764,3.907,5.354,7.936,8.062,11.881c0.293,0.426,0.923,0.606,1.35,0.958c0.877,0.726,1.87,1.376,2.555,2.26  c2.069,2.677,3.522,5.739,4.471,8.949c1.657,5.619,3.076,11.311,4.522,16.99c0.849,3.325,1.757,6.655,2.27,10.038  c0.452,2.979,0.493,6.033,0.539,9.057c0.09,6-0.73,11.933-1.425,17.879c-0.519,4.432-0.798,8.892-1.142,13.342  c-0.094,1.218-0.046,2.448-0.042,3.672c0.009,2.249,1.61,3.667,2.841,5.245c0.825,1.06,1.912,1.912,2.793,2.933  c2.883,3.338,5.791,6.656,8.562,10.085c2.744,3.396,4.599,7.342,6.663,11.17c2.571,4.771,4.726,9.708,6.384,14.83  c1.766,5.453,3.171,10.991,3.456,16.814c0.406,8.314,0.146,16.609-0.053,24.911c-0.073,3.071-0.271,6.145-0.548,9.202  c-0.131,1.435-0.578,2.84-0.882,4.259c-0.115,0.018-0.23,0.033-0.348,0.05c-0.411-1.275-0.822-2.553-1.232-3.828  c-0.105,0.022-0.213,0.047-0.318,0.069c-0.089,0.206-0.272,0.422-0.254,0.617c0.324,3.458,0.553,6.944,2.601,9.953  c1.159,1.702,2.585,2.782,4.816,2.827c2.146,0.044,4.252,0.2,6.305-0.636c0.326-0.135,1.119,0.025,1.153,0.175  c0.139,0.607,0.239,1.325,0.038,1.89c-0.492,1.375-1.805,1.91-3.045,2.302c-2.4,0.757-4.878,0.63-7.351,0.321  c-0.417-0.053-0.868-0.041-1.275,0.059c-2.631,0.641-5.233,1.406-7.887,1.935c-1.386,0.273-2.854,0.104-4.281,0.214  c-0.692,0.053-1.371,0.284-2.13,0.451c-1.698-0.563-3.557-1.111-5.362-1.794c-3.075-1.16-5.536-3.103-7.206-5.981  c-0.229-0.391-0.53-0.738-0.797-1.104c-0.129,0.033-0.259,0.067-0.388,0.104c0.086,1.642,0.159,3.283,0.262,4.923  c0.105,1.707,0.286,3.411,0.333,5.118c0.015,0.518-0.169,1.161-0.498,1.545c-3.125,3.648-4.183,8.075-4.862,12.651  c-0.077,0.512-0.14,1.036-0.118,1.551c0.054,1.327-0.115,2.492-2.006,2.763c0.21,1.978,0.424,3.824,0.599,5.676  c0.259,2.735,0.481,5.475,0.733,8.211c0.076,0.823,0.27,1.642,0.286,2.466c0.035,1.693-0.154,3.405,0.008,5.084  c0.207,2.135,0.719,4.238,1,6.368c0.123,0.933,0.117,1.917-0.037,2.844c-0.235,1.424-1.229,1.755-2.289,0.792  c-0.423-0.383-0.807-0.938-0.946-1.481c-0.715-2.777-1.395-5.566-1.989-8.373c-0.644-3.034-1.274-6.078-1.737-9.146  c-0.513-3.391-0.882-6.806-1.215-10.22c-0.363-3.732-0.75-7.473-0.883-11.216c-0.21-5.901-0.399-11.813-0.242-17.713  c0.097-3.646,0.854-7.274,1.312-10.912c0.448-3.561,0.88-7.121,1.346-10.68c0.187-1.425,0.626-2.839,0.638-4.26  c0.018-2.238,0.07-4.469-0.719-6.684c-1.85-5.188-3.715-10.358-6.136-15.313c-0.447-0.916-0.766-1.896-1.219-2.809  c-0.158-0.319-0.508-0.677-0.835-0.757c-1-0.246-1.83-0.6-1.85-2.187c-8.371,6.361-15.485,13.492-22.121,21.103  c-6.685,7.668-12.206,16.111-16.294,25.464c3.253,2.915,5.021,6.799,7.188,10.395c1.047,1.732,1.786,3.646,2.784,5.411  c0.647,1.146,1.51,2.17,2.409,3.164c0.644-6.326-0.991-11.938-4.811-17.025c-0.925,0.402-1.849,0.846-2.806,1.197  c-0.315,0.116-0.804,0.123-1.052-0.051c-0.18-0.124-0.229-0.7-0.102-0.957c1.268-2.535,2.561-5.065,5.261-6.514  c-0.915-0.544-1.775-1.055-2.616-1.554c-0.089-1.679,0.421-3.146,1.388-3.153c0.935-0.008,2.137,0.43,2.75,1.102  c0.963,1.054-0.057,2.108-0.642,3.007c0.638,0.533,1.524,0.938,1.773,1.584c0.216,0.562-0.292,1.401-0.479,2.118  c-0.123,0.001-0.247,0.002-0.37,0.003c0.296,0.552,0.569,1.117,0.893,1.653c1.188,1.983,2.136,4.192,3.659,5.878  c1.801,1.988,1.422,4.229,1.638,6.459c0.513,5.276,0.977,10.561,1.577,15.828c0.474,4.159,1.082,8.304,1.707,12.442  c0.361,2.396,0.938,4.76,1.307,7.153c0.339,2.193,0.46,4.422,0.808,6.613c0.271,1.714,0.998,3.385,1.07,5.094  c0.15,3.583,0.018,7.18-0.046,10.771c-0.007,0.404-0.253,0.855-0.511,1.191c-0.3,0.391-0.731,0.677-1.106,1.008  c-0.262-0.452-0.711-0.887-0.754-1.358c-0.308-3.38-0.382-6.787-0.823-10.147c-0.513-3.897-1.312-7.761-2.011-11.635  c-0.586-3.256-1.24-6.499-1.803-9.759c-1.045-6.053-2.045-12.111-3.068-18.166c-0.02-0.111-0.101-0.211-0.142-0.294  c-0.558,0.324-1.073,0.844-1.652,0.927c-2.54,0.367-1.771,0.372-3.24-2.17c-1.37-2.371-2.378-4.952-3.748-7.323  c-1.97-3.407-4.123-6.708-6.354-9.822c-0.562-0.186-1.123-0.372-1.89-0.626c0.613-2.104,1.016-4.159,1.81-6.049  c1.246-2.966,2.615-5.899,4.199-8.697c1.304-2.303,2.999-4.383,4.512-6.567c1.353-1.954,2.672-3.933,4.04-5.875  c3.442-4.889,7.603-9.143,11.901-13.255c3.969-3.796,7.995-7.531,12.086-11.195c3.043-2.728,6.471-2.998,10.082-1.104  c0.275,0.146,0.587,0.228,0.888,0.317c0.056,0.018,0.139-0.059,0.42-0.192c-0.762-1.389-1.404-2.845-2.297-4.128  c-1.933-2.778-3.955-5.499-6.02-8.183c-0.784-1.021-1.72-1.957-2.713-2.779c-0.518-0.428-1.292-0.606-1.98-0.754  c-2.241-0.476-4.188-1.621-5.955-2.938c-3.479-2.593-6.922-5.257-10.148-8.148c-3.159-2.832-4.861-6.606-6.214-10.623  c-1.176-3.495-1.594-7.034-1.826-10.655c-0.184-2.853-0.597-5.691-0.737-8.545c-0.07-1.405,0.241-2.83,0.383-4.255  c-0.29-0.037-0.444-0.108-0.516-0.059c-1.579,1.094-3.469,0.975-5.229,1.354c-2.123,0.457-3.771-0.482-5.347-1.76  c-0.655-0.532-1.421-1.023-2.218-1.271c-2.103-0.656-3.764-3.156-2.379-5.503c0.595-1.008,1.197-1.092,1.869-0.159  c0.046,0.064,0.068,0.146,0.113,0.211c1.12,1.628,1.61,1.814,3.684,1.229c1.115,1.042,2.327,2.175,3.81,3.559  c3.537,0.399,6.606-1.905,7.139-5.844c0.162-1.207,0.098-2.446,0.104-3.671c0.014-2.477-0.025-4.955,0.019-7.432  c0.019-1.022-0.344-1.75-1.313-2.319c-0.249,0.277-0.496,0.552-0.784,0.873c2.482,2.624,1.179,5.453,0.617,8.216  c-0.179,0.883-0.441,1.791-0.876,2.571c-0.688,1.241-2.185,1.539-3.297,0.808c-0.848-0.557-0.85-0.564-0.492-1.823  c1.786,0.492,1.926-0.844,2.056-2.063c0.147-1.394,0.165-2.802,0.242-4.256c-3.76,0.436-4.438,1.972-3.951,5.438  c0.092,0.656,0.35,1.309,0.64,1.91c0.312,0.645,0.664,1.235-0.061,1.805c-0.699,0.55-2.226,0.539-2.586-0.148  c-0.528-1.004-1.148-2.115-1.176-3.193c-0.041-1.711,0.199-3.483,0.663-5.133c0.309-1.094,1.213-2.021,1.87-3.053  c-1.438,0.292-3.236-0.295-4.172,1.837c-0.526,1.198-2.902,1.354-3.416,0.357c-0.251-0.487-0.2-1.129-0.291-1.732  c-1.946-0.499-3.993-0.952-5.995-1.552c-3.785-1.136-7.448-2.561-10.796-4.73c-0.82-0.532-1.872-0.691-2.75-1.152  c-3.168-1.665-6.296-3.406-9.46-5.079c-2.07-1.094-4.158-2.16-6.279-3.15c-0.732-0.343-1.592-0.421-2.708-0.699  c-5.141,2.792-10.46,3.01-15.479-1.487c-0.074,0.113-0.149,0.226-0.224,0.339c0,0.326-0.062,0.667,0.01,0.977  c0.479,2.058,0.896,4.136,1.508,6.154c0.74,2.439,1.79,4.791,2.431,7.251c0.292,1.12,0.232,2.54-0.206,3.601  c-1.167,2.828-2.518,5.595-3.999,8.272C318.556,363.85,316.706,366.649,314.89,369.614z M394.796,348.36  c0.105-0.546,0.154-0.663,0.145-0.774c-0.026-0.278-0.065-0.557-0.124-0.83c-1.368-6.434-3.883-12.466-6.658-18.378  c-1.508-3.21-3.312-6.295-5.164-9.325c-2.016-3.297-3.99-6.668-6.425-9.647c-4.838-5.919-9.432-12.009-13.386-18.535  c-2.657-4.389-4.837-9.069-7.241-13.612c-0.594-1.118-0.344-2.049,0.517-2.877c1.265-0.269,1.688,0.602,2.102,1.51  c0.63,1.375,1.237,2.762,1.93,4.105c1.331,2.587,2.633,5.193,4.097,7.705c1.621,2.783,3.41,5.469,5.176,8.275  c1.929-0.893,2.901,0.01,3.812,1.481c2.636,4.263,5.358,8.472,8.089,12.675c3.414,5.256,6.599,10.628,9.005,16.441  c2.136,5.158,4.67,10.169,5.771,15.7c0.918,4.611,1.76,9.239,2.616,13.862c0.331,1.784,0.307,3.609,1.291,5.285  c1.229,2.089,2.178,4.343,3.309,6.494c0.692,1.318,1.503,2.577,2.229,3.809c2.182-0.697,2.732-0.459,3.646,1.39  c0.212,0.43,0.396,0.872,0.614,1.298c1.453,2.834,2.718,5.79,4.417,8.467c2.088,3.284,4.284,6.538,7.322,9.091  c2.314,1.947,4.486,4.077,6.899,5.889c3.472,2.606,7.143,4.947,10.652,7.507c1.761,1.282,3.409,2.731,5.006,4.218  c1.617,1.506,3.332,2.99,4.601,4.771c1.865,2.618,3.575,5.339,5.59,7.867c1.581,1.986,3.02,4.151,4.136,6.427  c1.747,3.558,2.776,7.395,3.207,11.349c0.51,4.668,0.211,9.327-0.376,13.973c-0.069,0.551-0.169,1.11-0.138,1.658  c0.128,2.312,0.296,4.622,0.464,6.932c0.02,0.261,0.123,0.516,0.275,1.116c0.227-0.825,0.383-1.309,0.491-1.803  c0.531-2.416,1.043-4.837,1.576-7.252c0.335-1.513,0.946-3.011,0.992-4.528c0.075-2.464-0.175-4.94-0.354-7.408  c-0.631-8.683-3.196-16.85-6.771-24.719c-1.202-2.646-2.741-5.139-4.051-7.739c-2.305-4.577-5.066-8.852-8.449-12.696  c-1.648-1.875-3.495-3.576-5.234-5.372c-0.213-0.22-0.285-0.57-0.481-0.813c-0.965-1.191-1.55-2.801-3.471-2.91  c-0.842-0.047-1.331-0.596-1.304-1.532c0.04-1.3-0.413-2.389-1.373-3.319c-2.091-2.027-3.566-4.493-4.673-7.154  c-1.881-4.528-3.607-9.121-5.489-13.649c-2.544-6.122-3.992-12.453-3.936-19.101c0.043-5.031-0.075-10.082,1.697-14.918  c0.079-0.214,0.096-0.485,0.046-0.709c-0.909-4.078-1.382-8.325-2.861-12.186c-2.133-5.57-4.771-10.982-7.623-16.23  c-2.291-4.215-5.145-8.136-7.893-12.087c-1.472-2.117-3.237-4.03-4.891-6.019c-1.212-1.458-2.441-2.512-4.678-2.475  c-3.576,0.059-7.172-0.357-10.737-0.767c-2.647-0.304-5.279-0.829-7.885-1.413c-3.536-0.793-7.034-1.755-10.556-2.613  c-4.765-1.161-9.547-2.249-14.298-3.461c-1.678-0.428-3.283-1.129-5.229-1.812c0.775,2.721,1.359,5.196,2.191,7.585  c1.217,3.496,2.596,6.936,3.939,10.385c0.53,1.358,0.969,2.806,1.771,3.996c3.543,5.263,7.146,10.486,10.84,15.646  c2.919,4.08,6.051,8.007,8.988,12.075c2.333,3.231,4.689,6.468,6.712,9.895c1.962,3.327,3.463,6.924,5.258,10.354  c0.992,1.896,2.276,3.644,3.213,5.564c0.354,0.729,0.729,0.958,1.408,1.189c1.229,0.418,2.411,0.979,3.592,1.523  C393.348,347.511,393.976,347.907,394.796,348.36z M432.376,420.854c-0.008,0.14-0.045,0.235-0.013,0.293  c0.556,0.968,1.077,1.957,1.688,2.889c3.228,4.911,5.111,10.283,5.458,16.148c0.163,2.775,0.087,5.563,0.195,8.344  c0.052,1.312,0.353,2.613,0.42,3.927c0.225,4.383,0.527,8.768,0.551,13.152c0.028,5.298-0.197,10.598-0.312,15.896  c-0.011,0.497-0.002,0.994-0.002,1.474c0.661,0.049,1.267-0.092,1.557,0.148c0.703,0.582,1.419,1.254,1.849,2.044  c1.883,3.461,4.582,5.901,8.381,7.038c0.694,0.208,1.45,0.217,2.334,0.339c0.776-3.351,1.449-6.553,2.268-9.718  c1.796-6.958,2.112-14.05,1.887-21.17c-0.182-5.733-1.396-11.319-3.113-16.782c-1.602-5.092-4.081-9.771-7.058-14.177  c-1.672-2.476-3.546-4.812-5.309-7.227c-2.538-3.477-4.943-7.057-7.618-10.424c-2.479-3.117-5.165-6.076-7.887-8.987  c-3.352-3.585-6.994-6.904-10.22-10.596c-4.718-5.399-9.426-10.841-12.876-17.203c-2.882-5.315-5.753-10.637-8.634-15.953  c-0.189-0.352-0.415-0.685-0.659-1.083c-0.19,1.718-0.383,3.252-0.518,4.792c-0.03,0.341,0.101,0.716,0.229,1.048  c1.217,3.153,2.294,6.372,3.723,9.427c1.227,2.624,2.902,5.033,4.299,7.583c2.336,4.264,4.583,8.577,6.911,12.845  c2.055,3.771,4.653,7.159,7.608,10.255c1.54,1.614,3.213,3.112,4.912,4.56c2.753,2.342,5.579,4.598,8.374,6.891  c1.017,0.833,2.062,1.636,3.028,2.521c0.293,0.269,0.373,0.769,0.584,1.237C433.573,420.579,432.967,420.719,432.376,420.854z   M324.872,284.197c-0.11-0.071-0.221-0.142-0.33-0.213c-0.086,0.18-0.154,0.373-0.262,0.54c-1.453,2.241-2.917,4.475-4.359,6.723  c-0.168,0.262-0.284,0.589-0.319,0.898c-0.264,2.327-0.758,4.666-0.68,6.984c0.097,2.853,0.717,5.686,1.04,8.535  c0.312,2.746,1.003,5.326,2.754,7.539c0.489,0.618,1.009,1.232,1.375,1.923c0.625,1.181,0.954,2.559,1.736,3.609  c2.261,3.039,4.938,5.715,8.011,7.937c1.078,0.779,2.353,1.583,3.612,1.734c1.51,0.181,2.604,0.771,3.658,1.718  c0.701,0.631,1.407,1.29,2.214,1.767c1.658,0.982,3.394,1.831,5.078,2.77c2.146,1.197,4.246,2.479,6.418,3.628  c1.298,0.688,2.712,1.154,4.043,1.785c3.346,1.586,6.585,3.449,10.035,4.752c3.491,1.318,7.096,2.78,10.916,0.484  c1.401-0.842,3.196-1.028,5.012-1.574c-0.797-1.054-1.292-2.096-2.111-2.691c-0.872-0.632-2.088-0.765-3.089-1.249  c-3.155-1.526-6.417-2.895-9.384-4.733c-3.652-2.264-7.041-4.952-10.56-7.435c-4.718-3.33-9.508-6.56-14.149-9.99  c-2.068-1.529-4.127-3.224-5.712-5.223c-4.438-5.592-8.623-11.397-11.374-18.051c-1.122-2.712-1.938-5.556-2.799-8.368  C325.27,286.767,325.123,285.466,324.872,284.197z M327.986,280.152c0.127,1.403,0.181,3.087,0.451,4.734  c0.469,2.832,1.223,5.58,2.609,8.142c1.318,2.435,2.419,4.99,3.761,7.412c1.062,1.916,2.266,3.766,3.545,5.546  c1.739,2.418,3.413,4.934,5.472,7.063c3.649,3.779,8.329,6.267,12.56,9.319c3.259,2.351,6.511,4.716,9.821,6.992  c3.439,2.365,6.928,4.664,10.439,6.918c0.906,0.582,1.987,0.89,3.308,1.462c-2.354-5.059-4.855-9.57-8.066-13.667  c-2.95-3.764-6.055-7.419-8.817-11.315c-5.469-7.708-10.714-15.575-16.137-23.316c-1.055-1.506-1.728-2.789-0.323-4.057  c-1.733-5.379-3.399-10.548-5.104-15.841C337.043,273.046,332.616,276.52,327.986,280.152z M433.746,376.71  c0.114-0.031,0.228-0.063,0.341-0.094c-0.021-0.384-0.074-0.769-0.06-1.152c0.081-2.199-0.284-4.502,1.585-6.276  c0.262-0.248,0.26-0.816,0.305-1.243c0.458-4.364,0.966-8.725,1.332-13.097c0.451-5.383,0.556-10.799-0.38-16.125  c-0.979-5.573-2.341-11.08-3.56-16.61c-0.157-0.721-0.459-1.411-0.693-2.116c0.169,2.535,0.455,5.02,0.669,7.51  c0.042,0.492-0.191,1.008-0.298,1.513c-0.144-0.009-0.286-0.018-0.431-0.026c-0.174-0.558-0.399-1.105-0.512-1.675  c-0.867-4.41-1.786-8.771-3.313-13.049c-2.036-5.703-4.219-11.281-7.632-16.307c-3.294-4.849-6.369-9.86-10.558-14.043  c-1.342-1.339-2.689-2.604-4.597-3.089c-0.284-0.072-0.63-0.281-0.756-0.525c-0.495-0.961-1.212-0.781-2.133-0.536  c1.368,2.497,2.618,4.932,4.009,7.283c3.777,6.396,7.383,12.873,10.32,19.712c2.48,5.772,4.671,11.62,5.637,17.864  c0.062,0.405,0.277,0.786,0.421,1.173c0.336-0.042,0.53-0.075,0.729-0.09c1.428-0.108,2.089,0.698,1.625,2.046  c-0.219,0.634-0.627,1.205-0.836,1.841c-1.74,5.305-1.614,10.806-1.349,16.252c0.221,4.532,1.051,9.014,2.827,13.274  c2.008,4.813,3.869,9.687,5.826,14.522C432.692,374.698,433.25,375.692,433.746,376.71z M330.81,461.474  c0.168-2.766,0.311-5.188,0.466-7.609c0.151-2.403,0.317-4.808,0.479-7.223c-2.644-0.836-5.004-1.257-7.473-1.175  c-2.466,0.082-4.938,0.02-7.348,0.02c-1.754,2.659-3.524,5.299-5.223,7.984c-0.184,0.29-0.09,0.955,0.13,1.269  c2.06,2.934,4.126,5.862,6.289,8.721c1.291,1.705,2.735,3.219,4.656,4.369c2.679,1.604,5.147,3.568,7.645,5.461  c1.091,0.826,2.026,1.856,3.046,2.807c0.911-0.853,1.744-1.541,2.471-2.327c2.051-2.229,4.02-4.534,6.105-6.729  c0.564-0.593,0.751-1.104,0.45-1.793c-0.988-2.259-1.918-4.55-3.042-6.739c-0.505-0.982-1.418-1.756-2.275-2.777  c-0.33,0.585-0.604,0.899-0.696,1.262c-0.403,1.584-0.785,3.175-1.111,4.775c-0.185,0.906-0.455,1.812-1.382,2.071  c-1.434,0.4-2.926,0.82-4.393,0.818c-1.852-0.002-3.702-0.413-5.552-0.658c-0.941-0.125-1.896-0.209-2.815-0.428  c-0.796-0.189-1.361-1.44-1.178-2.354c0.193-0.957,0.918-1.185,1.72-1.102c1.546,0.161,3.083,0.403,4.621,0.637  C327.873,460.977,329.343,461.232,330.81,461.474z M343.914,459.032c2.302-3.275,4.531-6.414,6.701-9.593  c0.18-0.264,0.019-0.812-0.081-1.203c-0.579-2.263-1.194-4.516-1.784-6.774c-0.288-1.103-0.318-2.301-1.447-3.024  c-1.436-0.923-1.703-1.934-1.098-3.567c0.161-0.438,0.246-0.916,0.28-1.382c0.108-1.464,0.825-2.03,2.262-1.816  c0.31,0.046,0.738-0.042,0.97-0.236c2.53-2.135,5.035-4.299,7.542-6.461c1.229-1.059,1.341-1.886,0.473-3.275  c-1.021-1.633-2.03-2.127-3.267-1.408c-3.323,1.936-6.52,4.032-8.532,7.477c-0.151,0.262-0.411,0.492-0.673,0.651  c-1.423,0.871-1.867,1.855-1.6,3.646c1.858,0.317,2.286,0.974,1.881,2.888c-0.307,1.444-0.663,2.88-0.908,4.335  c-0.201,1.196-0.283,2.413-0.397,3.623c-0.126,1.322-1.327,1.877-1.959,2.828c-1.102,1.659-2.083,3.399-3.036,5.149  c-0.462,0.85-0.746,1.795-1.155,2.808C341.521,453.949,342.26,456.961,343.914,459.032z M414.618,407.749  c-0.21-0.489-0.231-0.615-0.304-0.696c-3.383-3.786-6.304-7.896-8.685-12.381c-1.288-2.426-2.454-4.918-3.774-7.326  c-1.779-3.245-3.672-6.429-5.483-9.657c-0.638-1.136-1.183-2.324-1.89-3.724c-0.204,1.173-0.409,2.021-0.488,2.881  c-0.189,2.049-0.75,4.185-0.379,6.138c0.667,3.505,1.77,6.95,2.939,10.333c1.69,4.886,4.424,9.117,8.729,12.149  c1.873,1.319,3.838,2.509,5.869,3.828C411.987,407.822,412.828,406.878,414.618,407.749z M325.681,406.532  c-0.88,5.5-1.687,10.54-2.491,15.571c1.038,0.405,1.95,0.762,3.182,1.241c-0.257-1.517-0.444-2.757-0.684-3.986  c-0.228-1.177-0.066-2.315,0.841-3.068c0.982-0.815,2.146-0.228,3.152,0.137c1.104,0.4,2.112,1.058,3.196,1.521  c1,0.428,1.614,1.975,1.254,2.989c-0.203,0.572-0.274,1.305-0.104,1.876c0.382,1.284,0.95,2.515,1.503,3.915  c1.493,0.688,3.145,1.484,4.83,2.199c0.302,0.129,0.744-0.078,1.043-0.119c-0.346-0.729-0.751-1.199-0.757-1.674  c-0.021-2.144,0.051-4.29,0.126-6.434c0.073-2.061,0.195-4.117,0.288-6.021C335.931,411.963,330.962,409.33,325.681,406.532z   M432.344,505.745c0.139-0.007,0.275-0.014,0.413-0.021c0.975-2.382,1.969-4.754,2.91-7.147c0.446-1.136,1.062-2.299,1.123-3.476  c0.159-3.06,0.054-6.132,0.054-9.291c-1.306,0.232-1.535-0.447-1.619-1.262c-0.072-0.709-0.112-1.422-0.199-2.13  c-0.132-1.058-0.387-2.108-0.417-3.167c-0.067-2.268,0.019-4.539-0.048-6.806c-0.032-1.13-0.263-2.254-0.403-3.38  c-0.151-0.006-0.304-0.01-0.455-0.015c-0.321,4.018-0.671,8.03-0.957,12.049c-0.294,4.137-0.677,8.274-0.744,12.416  C431.934,497.591,432.215,501.669,432.344,505.745z M338.953,431.81c-1.802-0.714-3.346-1.341-4.9-1.938  c-2.932-1.124-5.863-2.245-8.812-3.325c-0.347-0.127-0.897-0.146-1.165,0.047c-0.996,0.719-1.915,1.544-2.858,2.336  c-0.589,0.495-1.168,1-1.919,1.646c0.675,0.354,1.07,0.606,1.498,0.78c1.366,0.555,2.719,1.166,4.125,1.599  c3.493,1.072,7.006,2.087,10.535,3.035c0.376,0.102,1.025-0.285,1.349-0.632c0.586-0.629,1.048-1.381,1.513-2.111  C338.557,432.867,338.688,432.422,338.953,431.81z M434.832,405.85c-0.075,0.083-0.149,0.165-0.225,0.248  c0.167,0.242,0.319,0.494,0.503,0.725c1.411,1.773,2.874,3.511,4.233,5.324c2.656,3.54,5.155,7.203,7.902,10.671  c4.72,5.958,8.514,12.421,11.226,19.518c0.295,0.773,0.473,1.594,0.703,2.393c0.175-0.04,0.351-0.079,0.523-0.119  c-0.396-2.427-0.691-4.872-1.202-7.273c-1.26-5.926-4.152-11.01-8.32-15.363c-2.507-2.618-5.197-5.062-7.64-7.737  c-0.983-1.077-2.914-1.939-1.72-4.09C438.774,408.677,436.804,407.263,434.832,405.85z M316.302,441.288  c1.197,0.217,2.304,0.514,3.425,0.603c3.646,0.288,7.3,0.492,10.947,0.748c0.579,0.041,1.149,0.188,1.797,0.297  c0.592-1.161,1.142-2.24,1.668-3.278c-5.547-1.812-10.933-3.573-16.349-5.345C317.304,436.591,316.841,438.758,316.302,441.288z   M436.39,454.946c0.098-0.009,0.192-0.019,0.288-0.026c0.027-0.297,0.118-0.604,0.073-0.889c-0.624-3.976-1.257-7.947-1.911-11.917  c-0.17-1.031-0.396-2.037,0.235-3.014c0.157-0.242,0.254-0.624,0.188-0.896c-0.476-1.974-0.75-4.047-1.564-5.875  c-1.295-2.9-2.883-5.682-4.494-8.428c-1.455-2.479-3.157-4.809-5.678-6.354c-1.062-0.65-2.188-1.199-3.283-1.793  c-0.104,0.063-0.208,0.128-0.312,0.192c0.129,0.326,0.189,0.705,0.396,0.973c2.929,3.821,6.221,7.394,8.339,11.775  c1.416,2.932,3.062,5.827,3.937,8.928c1.46,5.177,2.387,10.504,3.529,15.77C436.242,453.907,436.305,454.429,436.39,454.946z   M320.094,330.503c0.984,0.434,1.683,0.666,2.3,1.031c0.839,0.494,1.628,1.075,2.418,1.646c2.734,1.973,5.565,1.543,8.623,0.438  c-5.062-3.338-8.892-7.647-12.331-12.344c-0.111,0.017-0.225,0.034-0.337,0.051C320.537,324.458,320.308,327.592,320.094,330.503z   M461.216,477.414c-1.318,5.035-2.639,10.069-4.019,15.334c2.352-0.23,4.601-0.451,7.121-0.698  c-0.443-0.553-0.614-0.815-0.834-1.031c-1.924-1.879-2.548-4.226-1.84-6.704C462.335,481.899,461.148,479.714,461.216,477.414z   M424.837,436.282c0.918,0.807,1.58,1.468,2.323,2.019c0.82,0.606,1.064,1.3,0.771,2.28c-0.127,0.421-0.155,0.964-0.001,1.362  c1.098,2.818,2.249,5.616,3.398,8.416c0.088,0.214,0.287,0.382,0.614,0.801c0-0.492,0.031-0.683-0.005-0.855  c-0.749-3.457-1.477-6.918-2.28-10.361c-0.252-1.078-0.682-2.123-1.112-3.148c-0.124-0.292-0.535-0.631-0.832-0.648  C426.896,436.099,426.07,436.21,424.837,436.282z M336.24,447.771c1.176-2.062,2.812-3.854,3.295-6.25  c-0.563-0.263-0.98-0.456-1.442-0.673C336.746,442.991,335.78,445.184,336.24,447.771z M341.795,433.79  c-0.59,1.102-1.181,2.202-1.86,3.471C341.119,437.142,341.922,435.644,341.795,433.79z M310.536,265.157  c-0.884-2.476-1.823-4.936-2.843-7.359c-0.342-0.811-0.2-1.256,0.357-1.881c1.13-1.266,2.488-2.5,3.112-4.012  c1.803-4.37,1.077-8.528-1.503-12.517c-1.581-2.443-3.646-3.105-6.326-2.787c-2.505,0.297-4.775,1.232-7,2.341  c-2.131,1.062-3.477,2.728-4.093,5.038c-0.467,1.753-0.269,2.361,1.303,3.213c1.24-0.22,1.966-0.912,2.08-2.226  c0.115-1.319,0.91-2.267,2.019-2.797c1.503-0.718,3.086-1.288,4.672-1.809c1.941-0.637,3.467-0.442,4.753,1.604  c2.67,4.25,2.146,9.111-2.946,11.825c-0.672,0.357-1.434,0.97-1.665,1.634c-0.392,1.128-0.085,2.379,0.852,3.192  c1.656,1.438,2.202,3.456,3.039,5.325c0.709,1.584,1.354,3.199,2.02,4.786C310.778,268.448,311.346,267.425,310.536,265.157z   M284.736,267.467c2.415-2.186,4.036-4.93,5.352-7.846c1.277-2.831,0.201-4.951-2.45-6.373c-1.775-0.952-3.732-1.639-5.685-2.157  c-1.182-0.313-2.545-0.273-3.765-0.053c-3.032,0.546-4.675,2.815-6.07,5.312c-1.043,1.868-1.538,3.85-1.133,5.97  c0.101,0.528,0.416,1.174,0.838,1.45c1.188,0.777,2.128-0.087,2.112-1.916c-0.025-2.792,1.28-4.978,3.156-6.869  c0.983-0.99,2.291-1.438,3.637-1.005c1.848,0.594,3.666,1.317,5.429,2.13c1.024,0.472,1.38,1.438,0.876,2.528  c-0.434,0.938-0.866,1.895-1.45,2.739c-1.29,1.866-2.593,3.703-4.744,4.781c-1.324,0.663-1.518,2.593-0.59,3.515  c2.477,2.46,4.897,4.978,7.429,7.38c0.448,0.425,1.458,0.718,1.973,0.505c0.798-0.331,1.164-1.26,0.567-2.125  c-1.01-1.464-2.031-2.932-3.178-4.287c-0.862-1.018-1.93-1.86-2.958-2.83C284.448,267.837,284.565,267.622,284.736,267.467z   M392.312,555.546c-5.127,0.97-10.258,1.917-15.378,2.918c-2.693,0.526-5.37,1.141-8.053,1.729  c-0.465,0.102-0.975,0.188-1.353,0.443c-0.396,0.269-0.953,0.773-0.908,1.103c0.069,0.504,0.502,1.102,0.952,1.366  c0.422,0.248,1.087,0.221,1.61,0.126c1.333-0.24,2.644-0.609,3.971-0.887c6.046-1.261,12.092-2.518,18.144-3.75  c1.366-0.277,2.767-0.398,4.124-0.709c0.364-0.083,0.63-0.595,0.941-0.909c-0.304-0.285-0.565-0.748-0.913-0.824  c-1.007-0.219-2.047-0.281-3.074-0.405C392.354,555.68,392.333,555.613,392.312,555.546z M324.552,343.04  c-0.002,0.355,0.052,0.714,0.108,1.067c0.328,2.047,0.588,4.111,1.035,6.132c0.203,0.92,0.633,1.885,1.235,2.595  c0.619,0.729,1.636,0.581,2.429,0.097c0.804-0.49,1.527-2.957,1.312-3.789c-0.439-1.689-0.979-3.377-1.166-5.1  c-0.226-2.104-0.893-2.937-2.971-2.967C325.163,341.055,324.562,341.642,324.552,343.04z M309.993,275.027  c-0.901,0.36-1.386,1.458-1.104,2.506c0.252,0.936,1.815,1.983,2.712,1.818c0.868-0.16,1.697-1.183,1.686-2.08  C313.269,275.871,311.278,274.515,309.993,275.027z M297.064,284.401c0.054-0.98-0.807-1.97-1.775-2.041  c-1.073-0.079-2.115,0.923-2.151,2.068c-0.031,0.98,0.902,1.76,2.218,1.854C296.265,286.347,297.001,285.536,297.064,284.401z   M319.816,456.811c1.467-0.089,2.937-0.147,4.399-0.275s2.939-0.231,4.366-0.542c0.486-0.106,1.108-0.765,1.194-1.253  c0.116-0.669-0.369-1.268-1.205-1.332c-1.38-0.109-2.757-0.264-4.139-0.337c-1.93-0.105-3.864-0.25-5.791-0.186  c-0.826,0.028-1.903,0.315-2.396,0.891c-0.919,1.067-0.098,2.771,1.309,2.982c0.738,0.111,1.507,0.021,2.263,0.021  C319.816,456.789,319.816,456.8,319.816,456.811z M242.173,303.774c5.447,2.711,10.792,5.416,15.375,9.389  c2.282-3.298,6.364-2.237,8.51,0.794c0.321,0.454,0.533,0.984,0.835,1.453c0.916,1.415,0.665,2.579-0.761,3.425  c0.009,0.02,0.547,4.956,0.526,5.151c0.284-0.087,0.6-0.085,0.718-0.236c0.935-1.198,2.19-1.216,3.479-0.926  c2.369,0.533,4.737,1.083,7.072,1.745c0.684,0.194,1.344,0.7,1.861,1.216c2.202,2.196,4.409,4.393,6.488,6.703  c1.274,1.416,1.702,2.645-0.194,3.993c-0.589,0.419-0.912,1.219-1.506,1.624c-1.002,0.681-2.125,1.185-3.29,1.813  c0.776,17.052,1.569,34.466,2.375,52.168c1.912,0.584,4.016,1.226,6.366,1.943c0.018,0.261,0.271,0.951,0.046,1.188  c-1.122,1.186-2.271,2.401-3.621,3.288c-0.55,0.36-1.629-0.085-2.66-0.182c0.002-0.007-0.015,0.374-0.203,0.627  c-0.426,0.574-0.835,1.289-1.431,1.588c-3.243,1.629-6.53,3.183-10.145,3.84c-1.547,0.281-3.085,0.338-4.52-0.385  c-0.658,0.337-1.285,0.657-1.913,0.979c1.051,2.068,0.66,3.263-1.437,4.396c-0.863,0.467-1.706,0.971-2.565,1.443  c-3.668,2.026-7.591,2.942-11.789,2.888c-1.493-0.021-2.99,0.354-4.486,0.551c-0.101,0.941-0.154,1.778-0.286,2.602  c-0.275,1.713-1.151,2.258-2.797,1.79c-0.266-0.074-0.53-0.155-1.008-0.298c-0.82,1.261-1.704,2.521-2.484,3.843  c-1.299,2.202-3.035,3.962-5.344,5.021c-0.596,0.272-1.512-0.15-2.625-0.301c-2,0.484-4.43,1.008-6.818,1.677  c-1.79,0.502-3.534,1.172-5.284,1.807c-3.661,1.326-7.316,2.603-11.247,2.97c-1.931,0.18-3.809,0.864-5.735,1.16  c-2.322,0.357-4.664,0.657-7.008,0.779c-4.686,0.244-9.379,0.422-14.071,0.481c-1.941,0.023-3.886-0.462-5.833-0.484  c-6.556-0.074-12.854-1.67-19.169-3.146c-1.415-0.331-2.764-1.035-4.061-1.725c-0.458-0.243-0.886-0.922-0.958-1.451  c-0.288-2.124-2.164-2.772-3.481-4.262c-1.099,2.671-3.528,2.646-5.555,3.409c-2.041,0.769-3.986,1.787-6.016,2.586  c-4.705,1.854-9.417,3.688-14.161,5.438c-3.762,1.389-7.563,2.672-11.371,3.932c-1.277,0.422-2.623,0.638-3.943,0.921  c-0.151,0.032-0.34-0.111-0.644-0.221c3.37-2.479,7.04-4.062,10.708-5.654c2.471-1.074,4.9-2.245,7.375-3.312  c1.987-0.854,4.039-1.562,6.017-2.436c2.859-1.264,5.729-2.523,8.497-3.97c1.958-1.023,3.733-2.394,5.642-3.521  c0.531-0.313,1.248-0.313,2.144-0.519c-0.124-1.085-0.346-2.359-0.402-3.643c-0.157-3.584-0.195-7.174-0.372-10.757  c-0.3-6.102-0.622-12.203-1.023-18.299c-0.388-5.892-0.929-11.773-1.326-17.665c-0.228-3.381-0.277-6.773-0.454-10.158  c-0.211-4.026-0.548-8.047-0.691-12.074c-0.132-3.708-0.061-7.424-0.114-11.135c-0.066-4.671-0.17-9.342-0.253-14.013  c-0.005-0.317,0.033-0.634,0.295-0.846c0.366-0.669,0.984-1.315,1.049-2.012c0.154-1.663,1.115-2.655,2.72-3.683  c-1.76-0.718-3.247-1.376-4.771-1.933c-1.633-0.595-2.524-2.368-1.836-3.939c0.143-0.327,0.482-0.656,0.811-0.801  c2.724-1.202,5.466-2.361,8.236-3.548c-0.021-3.974,2.195-6.602,5.196-8.955c2.147-1.682,4.589-2.684,6.918-3.97  c4.806-2.655,10.03-4.052,15.288-5.356c2.379-0.59,4.82-0.932,7.232-1.39c0.27-0.051,0.535-0.122,0.576-0.131  c-0.128-1.851-0.542-3.648-0.303-5.355c0.362-2.585,1.521-4.859,4.075-6.116c0.784-0.385,1.477-0.952,2.247-1.371  c2.298-1.254,4.759-0.811,7.182-0.596c0.904,0.08,1.819,0.248,2.686,0.515c4.641,1.429,6.04,6.347,5.428,10.357  c-0.064,0.424-0.151,0.844-0.253,1.406c1.097,0.318,2.106,0.68,3.146,0.898c2.849,0.599,5.75,0.991,8.557,1.737  c3.565,0.947,7.205,1.626,10.619,3.167c2.948,1.33,4.52,3.811,6.102,6.35c0.566,0.91,1.095,1.862,1.492,2.854  c0.552,1.38,0.964,2.816,1.516,4.47c1.135,0.348,2.564,0.787,3.994,1.226c0.083-0.08,0.166-0.16,0.248-0.24  c-0.236-0.349-0.423-0.748-0.717-1.039c-1.082-1.073-1.187-1.928-0.531-3.308c0.337-0.709,0.563-1.507,0.653-2.286  c0.081-0.701-0.181-1.384-1.071-1.451c-1.049-0.079-2.106-0.208-3.15-0.147c-1.197,0.069-2.121-0.582-2.337-1.862  c-0.16-0.954,0.335-1.556,1.596-1.8c2.823-0.545,5.407,0.086,7.668,1.822c1.359,1.044,1.762,2.531,1.367,4.191  C242.813,301.604,242.47,302.705,242.173,303.774z M276.814,358.854c0.308,0.441,0.616,0.882,1.042,1.49  c0.358-1.324-0.313-1.434-1.071-1.461c-0.605-1.198-1.74-0.973-2.72-0.896c-1.627,0.128-3.238,0.461-4.864,0.62  c-0.963,0.094-1.942,0.017-3.067,0.017c-0.485,7.753,0.699,15.222,0.911,22.651c0.469,0.317,0.831,0.559,1.189,0.806  c1.259,0.865,2.079,0.724,3.372-0.062c1.297-0.789,2.707-1.505,4.163-1.876c0.803-0.205,1.803,0.365,2.796,0.605  c-0.05,0.101,0.046-0.001,0.042-0.099c-0.093-2.391-0.161-4.783-0.345-7.167c-0.021-0.281-0.719-0.767-1.047-0.725  c-1.497,0.192-2.968,0.566-4.458,0.824c-1.677,0.291-3.469,1.082-4.834-0.643c-0.32-0.404-0.523-1.184-0.357-1.634  c0.444-1.201,1.585-1.037,2.635-1.081c1.678-0.07,3.35-0.269,5.004-0.412c0.062-1.045-0.786-2.095,0.494-2.518  c0.786-0.26,1.664-0.243,2.614-0.364c-0.06-0.69-0.115-1.325-0.181-2.086c-1.078,0.478-1.943,0.86-2.86,1.267  c-0.047,0.34-0.099,0.721-0.161,1.17c-0.431,0.055-0.817,0.128-1.207,0.15c-2.124,0.121-2.712-0.343-3.113-2.376  c-0.224-1.134-0.478-2.263-0.731-3.392c-0.322-1.427,0.309-2.431,1.702-2.227C273.541,359.695,275.155,359.253,276.814,358.854z   M152.154,343.161c-1.714-0.957-3.008,0.09-3.91,1.305c-1.822,2.456-2.917,5.249-2.688,8.402c0.145,1.988,0.363,3.97,0.504,5.958  c0.448,6.324,0.876,12.65,1.308,18.976c0.53,7.764,1.06,15.527,1.579,23.292c0.072,1.074,0.057,2.154,0.132,3.229  c0.322,4.616,0.959,9.234,0.889,13.845c-0.044,2.93,0.486,5.268,2.774,7.061c1.547,1.213,3.056,2.895,4.832,3.315  c5.65,1.344,11.375,2.497,17.235,2.561c0.774,0.009,1.548,0.002,2.463,0.002c-0.771-1.54-1.391-2.964-2.172-4.291  c-0.918-1.561-2.103-1.769-3.765-1.01c-4.58,2.089-9.25,2.296-13.962,0.468c-0.489-0.189-1.07-0.577-1.259-1.021  c-0.492-1.153-0.913-2.367-1.141-3.597c-0.926-4.978-1.854-9.955-2.616-14.957c-0.708-4.646-1.104-9.339-1.823-13.982  c-0.677-4.373-1.575-8.712-2.419-13.058c-0.301-1.552,0.534-2.36,2.073-2.023c1.6,0.35,2.192,1.413,2.404,2.882  c0.394,2.726,1.016,5.353,2.231,7.89c0.861,1.795,1.1,3.889,1.617,5.849c-0.101,0.029-0.201,0.058-0.302,0.086  c-0.76-2.231-1.52-4.461-2.28-6.692c-0.168,0.05-0.336,0.1-0.504,0.15c0.569,2.635,1.139,5.271,1.715,7.939c-0.146,0-0.351,0-0.6,0  c0.713,6.184,1.419,12.302,2.119,18.374c0.941-0.433,1.734-1.079,2.525-1.077c0.757,0.002,1.512,0.678,2.268,1.057  c-0.053,0.112-0.106,0.225-0.159,0.335c0.883,0.223,1.958,0.03,2.231,1.363c0.24,1.171-0.27,1.991-1.083,2.586  c-0.869,0.636-1.833,1.422-3.02,0.525c-0.635-0.479-1.27-0.961-2.098-1.587c0.162,0.983,0.25,1.73,0.415,2.462  c0.157,0.696,0.356,1.39,0.602,2.061c0.936,2.558,2.137,3.321,4.903,3.342c1.861,0.015,3.604-0.366,5.38-0.922  c2.047-0.639,3.48-1.699,4.172-3.774c0.424-1.272,1.15-1.577,2.438-1.199c0.449,0.131,0.865,0.373,1.46,0.637  c-0.157,0.581-0.306,1.131-0.499,1.844c1,0.885-0.287,1.556-0.462,2.198c0.888,1.272,1.874,2.321,2.408,3.564  c0.433,1.007,0.708,1.836,2.358,1.625c-0.372,0.927-0.643,1.602-0.921,2.293c0.291,0.031,0.725,0.123,1.157,0.117  c3.784-0.055,7.571-0.043,11.35-0.216c3.104-0.142,6.207-0.433,9.294-0.794c2.252-0.264,4.489-0.694,6.711-1.154  c1.669-0.346,3.317-0.81,4.951-1.3c2.499-0.75,4.98-1.561,7.462-2.363c0.37-0.12,0.702-0.351,1.06-0.514  c0.389-0.177,0.773-0.382,1.181-0.492c1.527-0.42,3.059-0.82,4.596-1.197c1.529-0.374,3.016-1.771,4.753,0.104  c0.678-1.567,1.384-2.864,1.803-4.248c0.643-2.125,0.776-2.267,2.877-1.448c1.03-1.157,2.009-2.414,3.16-3.487  c0.65-0.606,0.851-1.205,0.753-1.999c-0.053-0.434-0.178-0.861-0.194-1.295c-0.187-5.339-0.363-10.679-0.533-16.018  c-0.024-0.764-0.003-1.529-0.003-2.265c-1.935,0.46-3.544,0.843-5.035,1.198c0,2.072-0.014,4.262,0.009,6.453  c0.006,0.586,0.026,1.203,0.208,1.75c0.368,1.104,0.03,1.797-1.113,1.962c-0.337,0.049-0.687,0.008-1.046,0.008  c0.498,3.109,0.976,6.089,1.496,9.338c-1.124,0.327-2.174,0.604-3.202,0.947c-0.383,0.129-0.95,0.356-1.024,0.646  c-0.282,1.098-0.894,1.628-1.99,1.932c-1.225,0.337-1.693,0.173-1.829-1.083c-0.188-1.749,0.129-3.272,1.921-4.013  c-0.07-0.525-0.122-0.917-0.198-1.494c0.715-0.442,1.463-0.906,2.239-1.388c0.152-1.486,0.25-3.073,0.497-4.636  c0.183-1.163,0.786-2.291,0.802-3.44c0.03-2.146-0.23-4.298-0.369-6.448c-0.052-0.809-0.459-1.239-1.292-1.244  c-5.965-0.037-11.93-0.111-17.895-0.098c-2.03,0.005-4.064,0.379-6.088,0.315c-3.664-0.115-7.321-0.418-10.98-0.667  c-3.492-0.238-6.981-0.506-10.404-0.756c-0.384,0.706-0.541,1.254-0.899,1.583c-0.366,0.336-0.934,0.632-1.404,0.621  c-0.415-0.01-1.069-0.389-1.183-0.745c-0.51-1.583-1.029-3.194-1.237-4.834c-0.381-3.004-0.423-6.052-0.84-9.048  c-0.312-2.242-1.134-4.411-1.48-6.65c-1.035-6.697-1.983-13.409-2.882-20.126c-0.2-1.496,0.737-2.992,2.451-2.371  c0.466,0.169,1.032,0.13,1.545,0.088c1.79-0.144,3.577-0.316,5.362-0.511c0.447-0.048,0.88-0.221,1.519-0.389  c-0.45-0.638-0.774-1.098-1.158-1.642c-0.535,0.39-0.937,0.707-1.361,0.987c-1.607,1.064-3.207,0.627-4.131-0.993  c-0.396-0.693-1.049-1.239-1.542-1.802c-1.703,0.741-2.994,1.583-3.78,3.091c-0.41,0.788-0.992,1.416-2.074,1.328  c-2.055-0.168-3.857,0.705-5.599,1.625c-1.008,0.533-2.19,0.63-2.896-0.03c-0.725-0.677-0.786-1.761-0.042-2.782  c0.668-0.917,0.272-1.692-0.249-2.405c-0.233-0.318-0.78-0.657-1.119-0.599c-0.887,0.151-1.263,0.861-1.372,1.737  c-0.136,1.094-0.718,1.845-1.832,2.081c-1.308,0.278-2.621,0.535-3.937,0.766c-0.209,0.037-0.468-0.069-0.672-0.173  c-1.307-0.667-1.56-1.829-0.652-3.041c0.681-0.909,1.224-1.815,0.389-2.921C153.065,344.4,152.622,343.792,152.154,343.161z   M237.012,342.064c-0.178-2.226-0.343-4.202-0.492-6.179c-0.243-3.217-0.433-6.438-0.727-9.65c-0.199-2.174-0.538-4.336-0.814-6.503  c-1.223,1.403-1.915,1.549-3.508,0.936c-1.032-0.397-2.112-0.791-3.2-0.896c-3.441-0.336-6.893-0.644-10.347-0.763  c-4.42-0.153-8.849-0.062-13.272-0.167c-7.379-0.174-14.76-0.667-22.134-0.564c-6.772,0.094-13.545,0.693-20.301,1.268  c-4.084,0.347-8.156,0.939-12.073,2.307c-1.338,0.467-2.769,0.669-4.575,1.089c-0.236,0.778-0.946,2.052-0.95,3.329  c-0.015,4.302,0.208,8.606,0.369,12.909c0.04,1.078,0.184,2.152,0.286,3.294c1.096-0.79,1.96-1.577,2.962-2.102  c2.456-1.289,5.211-1.591,7.011,1.281c0.696,1.111,1.737,2.006,2.691,3.078c1.556-1.695,3.506-2.151,5.588-1.472  c2.138,0.697,2.733,2.829,3.597,4.624c1.018-0.124,1.602-0.542,2.298-1.196c1.296-1.218,2.871-2.218,4.483-2.991  c1.033-0.496,2.334-0.467,3.524-0.588c1.052-0.106,2.045,0.019,2.856,0.889c0.524,0.563,1.22,0.967,1.853,1.453  c1.797-1.156,3.564-1.528,5.341-0.278c1.614-0.809,2.844-0.483,4.105,0.782c0.604,0.605,1.458,1.254,2.244,1.317  c1.167,0.094,1.781,0.429,1.804,1.593c4.925,0,9.763,0,14.556,0c1.753-4.903,4.553-6.689,7.965-5.161  c2.148-1.206,3.836-3.319,6.845-3.379c0.134-0.799,0.431-1.639,0.386-2.461c-0.197-3.625-0.551-7.243-0.727-10.869  c-0.075-1.536,0.053-3.101,0.271-4.626c0.123-0.856,0.588-1.735,1.73-1.626c1.258,0.12,2.18,1.077,2.125,2.125  c-0.097,1.86-0.303,3.721-0.282,5.579c0.029,2.583,0.225,5.163,0.354,7.849c2.275-0.217,3.166,1.391,4.173,2.954  c0.312-0.362,0.522-0.607,0.638-0.742C234.72,339.629,235.768,340.743,237.012,342.064z M227.168,355.373  c-16.243-2.911-32.197-2.634-48.229-0.216c0.249,2.074,0.443,3.979,0.713,5.873c0.528,3.708,0.927,7.446,1.696,11.104  c0.928,4.415,2.128,8.765,1.909,13.341c-0.037,0.769,0.178,1.55,0.271,2.283c0.34,0.078,0.492,0.131,0.647,0.145  c3.768,0.351,7.533,0.743,11.305,1.032c3.496,0.268,6.999,0.522,10.502,0.594c2.065,0.042,4.137-0.4,6.208-0.417  c5.808-0.046,11.616,0.021,17.425,0.023c0.279,0,0.559-0.194,0.906-0.323c-0.458-3.916-0.903-7.727-1.391-11.901  c-1.402,1.614-2.913,2.156-4.653,2.255c-1.415,0.08-2.296-0.603-2.344-2.029c-0.089-2.615-0.039-5.244-0.294-7.842  c-0.195-1.989,0.115-4.106-0.972-5.937c-0.771-1.297,0.111-2.102,0.857-2.773c0.653-0.586,1.543-0.85,2.532-0.279  c0.96,0.554,2.058,0.871,3.094,1.292c0.142-0.105,0.283-0.211,0.424-0.316C227.571,359.292,227.366,357.303,227.168,355.373z   M165.814,299.447c1.137,1.158,2.192,0.915,3.206,0.935c0.463,0.009,0.922,0.208,1.383,0.321c-0.222,0.452-0.35,1-0.688,1.335  c-0.585,0.58-1.3,1.027-1.961,1.529c1.577,0.136,3.046,0.135,4.497-0.025c2.882-0.318,5.746-0.929,8.632-1.041  c3.652-0.141,7.319,0.069,10.978,0.179c3.86,0.115,7.719,0.323,11.58,0.426c2.688,0.071,5.378,0.018,8.067,0.051  c0.661,0.008,1.322,0.213,1.979,0.194c1.453-0.042,2.91-0.304,4.353-0.236c3.264,0.155,6.521,0.462,9.781,0.695  c0.906,0.064,1.815,0.087,3.03,0.144c-0.554-1.189-0.957-2.167-1.453-3.095c-1.146-2.148-2.301-4.278-4.591-5.505  c-3.271-1.753-6.904-2.4-10.409-3.375c-4.014-1.116-8.151-1.791-12.234-2.657c-0.105-0.18-0.21-0.36-0.315-0.541  c-0.532,0.703-0.979,1.498-1.619,2.081c-0.675,0.615-1.632,0.907-2.357,0.12c-0.675-0.732-0.54-1.609,0.139-2.375  c0.342-0.384,0.643-0.805,0.962-1.209c-0.073-0.076-0.146-0.151-0.22-0.227c-0.322,0.195-0.646,0.388-0.967,0.585  c-1.452,0.891-2.912,1.653-4.701,0.905c-0.988-0.413-2.058-0.636-3.03-1.079c-1.708-0.777-2.154-2.292-1.101-3.706  c0.202-0.271,0.825-0.464,1.154-0.364c1.14,0.345,2.229,0.857,3.352,1.265c1.613,0.586,4.173-0.234,4.895-1.644  c-1.296-0.405-2.583-0.777-3.848-1.211c-0.914-0.314-1.577-1.76-1.159-2.555c0.533-1.013,1.346-0.744,2.165-0.371  c0.471,0.215,0.957,0.419,1.458,0.541c0.959,0.232,1.934,0.402,2.901,0.598c0.059-0.107,0.119-0.213,0.178-0.321  c-0.377-0.425-0.682-0.976-1.149-1.245c-0.784-0.452-1.67-0.728-2.516-1.072c-4.001-1.631-8.567-0.062-10.393,3.889  c-0.704,1.524-0.457,3.28,0.752,4.392c1.128,1.038,1.44,2.333,1.346,3.767c-0.072,1.108-1.096,1.946-2.058,1.919  c-1.139-0.032-2.281,0.049-3.421,0.107c-0.949,0.047-1.21,0.472-0.926,1.432c0.361,1.214-0.343,2.301-1.558,2.622  c-2.585,0.683-5.181,1.331-7.764,2.026C170.144,298.196,168.133,298.79,165.814,299.447z M263.481,404.286  c-0.062-0.779-0.177-1.454-0.15-2.124c0.028-0.701,0.274-1.397,0.283-2.098c0.026-2.23,0.035-4.464-0.041-6.693  c-0.113-3.271-0.3-6.539-0.468-9.807c-0.043-0.844-0.211-1.607-1.309-1.646c-3.627-0.128-7.256-0.22-10.878-0.435  c-1.066-0.063-2.253-0.26-3.125-0.809c-0.89-0.56-2.163-0.998-2.236-2.418c-0.108-2.114-0.27-4.226-0.34-6.341  c-0.057-1.7-0.012-3.403-0.012-5.123c-0.88,0-1.458,0-2.311,0c0,1.409-0.049,2.749,0.009,4.083  c0.218,5.068,0.515,10.133,0.699,15.203c0.193,5.307,0.279,10.618,0.436,15.926c0.062,2.074,0.162,4.148,0.306,6.218  c0.043,0.623-0.033,1.485,1.03,1.415c3.707-0.241,7.501,0.174,11.038-1.379c1.387-0.607,2.736-1.303,4.103-1.958  c-0.041-0.151-0.083-0.305-0.124-0.458c-1.033-0.165-2.079-0.271-3.094-0.511c-1.128-0.267-1.427-0.929-0.718-1.834  c0.529-0.675,1.357-1.115,2.15-1.736c0-2.892,0.134-5.966-0.044-9.021c-0.132-2.257-0.684-4.488-1.022-6.734  c-0.134-0.885-0.236-1.826,0.876-2.197c0.973-0.325,3.017,0.825,3.146,1.848c0.402,3.203,0.835,6.41,1.021,9.629  c0.154,2.665-0.021,5.349-0.056,8.024C262.638,403.988,262.747,404.515,263.481,404.286z M261.914,346.65  c-3.202,0.754-3.624,0.723-4.374-0.084c-0.963-1.039-0.383-2.077-0.037-3.143c-0.201-0.338-0.407-0.679-0.608-1.021  c-0.648-1.105-0.434-2.063,0.818-2.297c0.808-0.151,1.83,0.286,2.619,0.714c1.46,0.792,1.559,1.834,0.433,3.062  c0.31,0.457,0.625,0.921,0.94,1.386c0.23-1.263,0.234-2.47,0.229-3.677c-0.013-2.953-0.052-5.907-0.033-8.859  c0.007-1.02-0.374-1.607-1.371-1.907c-1.477-0.444-3.086-0.737-4.346-1.547c-1.744-1.123-3.524-1.974-5.532-2.416  c-0.459-0.102-0.88-0.368-1.33-0.523c-2.063-0.71-4.098-1.542-6.209-2.056c-1.088-0.265-2.317,0.046-3.668,0.105  c0.251,3.34,0.479,6.37,0.714,9.485c0.761-0.275,1.246-0.615,1.709-0.589c2.042,0.114,4.035,0.477,5.843,1.541  c1.118,0.658,1.753,1.691,1.536,2.987c-0.163,0.973-0.612,1.897-0.774,2.87c-0.162,0.967-0.742,1.396-1.581,1.517  c-1.861,0.269-3.708,1.094-5.926-0.119c0.641,6.898,1.246,13.416,1.83,19.712c0.83,0.404,1.393,0.678,2.203,1.072  c-0.455-2.057-0.842-3.911-1.279-5.753c-0.307-1.294-0.004-1.985,1.283-2.328c1.031-0.275,2.101-0.547,3.156-0.558  c4.577-0.047,9.167-0.141,13.756,1.269C261.914,352.501,261.914,349.621,261.914,346.65z M233.203,313.972  c-0.312-0.079-0.573-0.172-0.84-0.208c-2.056-0.279-4.106-0.647-6.172-0.795c-2.973-0.213-5.961-0.408-8.938-0.346  c-3.391,0.07-6.775,0.586-10.166,0.631c-5.904,0.078-11.811-0.083-17.716-0.095c-3.948-0.008-7.899-0.014-11.844,0.123  c-7.838,0.271-15.6,1.237-23.299,2.742c-1.109,0.217-2.052,0.423-2.554,1.601c-0.179,0.419-0.719,0.7-1.125,1.002  c-0.363,0.27-0.769,0.481-1.156,0.719c0.359,0.183,0.612,0.131,0.864,0.076c3.069-0.673,6.115-1.495,9.214-1.979  c3.572-0.558,7.183-0.953,10.791-1.173c5.975-0.365,11.959-0.651,17.942-0.745c4.193-0.066,8.39,0.299,12.587,0.367  c4.108,0.067,8.218-0.038,12.327,0.003c4.345,0.043,8.688,0.184,13.032,0.252c2.033,0.033,4.072,0.078,6.099-0.037  c1.369-0.078,1.852,0.113,2.243,1.42c0.071,0.24,0.219,0.458,0.354,0.73c1.041-1.282,1.768-1.586,2.875-0.726  c0.791,0.614,1.196,1.723,1.903,2.811c-0.082-0.005,0.153,0.029,0.387,0.018c2.66-0.125,5.265,0.121,7.778,1.07  c1.629,0.615,3.26,1.227,4.904,1.798c0.844,0.293,1.832,0.315,2.557,0.773c1.388,0.877,2.67,1.158,4.059,0.13  c0.902-0.668,1.798-1.343,2.915-2.177c-3.05-1.804-5.78-3.486-8.582-5.037c-0.99-0.548-2.132-0.933-3.25-1.117  c-1.922-0.316-3.878-0.445-5.824-0.598c-1.431-0.113-2.563-0.568-2.987-2.092c-0.048-0.173-0.195-0.32-0.334-0.538  c-0.354,0.236-0.652,0.421-0.936,0.626c-1.423,1.029-2.845,2.026-4.641,2.364C233.71,315.936,233.218,315.696,233.203,313.972z   M147.609,314.238c0.526-0.305,0.931-0.685,1.395-0.782c1.774-0.373,3.559-0.713,5.354-0.959c3.76-0.514,7.53-0.956,11.294-1.437  c2.044-0.261,4.079-0.608,6.13-0.792c1.483-0.133,2.988-0.003,4.477-0.096c1.592-0.099,3.175-0.334,4.765-0.478  c0.35-0.032,0.712,0.099,1.069,0.107c1.735,0.037,3.473,0.131,5.206,0.066c2.218-0.083,4.432-0.418,6.647-0.423  c2.418-0.004,4.84,0.403,7.253,0.347c3.62-0.083,7.235-0.407,10.851-0.643c2.271-0.148,4.543-0.504,6.808-0.448  c6.124,0.151,12.238,0.503,18.213,2.048c0.243,0.062,0.568-0.193,1.17-0.419c-1.726-0.616-3.094-1.108-4.465-1.594  c-1.079-0.382-2.145-1.029-3.242-1.09c-6.077-0.342-12.16-0.577-18.244-0.774c-3.064-0.099-6.136,0.021-9.202-0.07  c-3.386-0.101-6.766-0.38-10.152-0.491c-3.781-0.123-7.566-0.241-11.347-0.178c-2.981,0.05-5.972,0.259-8.933,0.607  c-5.298,0.622-10.604,1.249-15.853,2.177c-2.801,0.496-5.488,1.632-8.231,2.467c-0.485,0.147-1.097,0.473-1.465,0.307  c-1.448-0.656-2.261,0.383-3.578,1.009C145.115,313.297,146.405,313.783,147.609,314.238z M277.81,354.817  c0.029-0.143,0.081-0.26,0.073-0.373c-0.312-4.418-0.655-8.835-0.936-13.256c-0.14-2.201-0.762-3.916-3.273-4.352  c-1.083-0.188-2.1-0.803-3.183-0.942c-1.575-0.202-3.182-0.15-4.634-0.201c0,6.195,0,12.621,0,19.124  C269.996,354.817,273.862,354.817,277.81,354.817z M262.798,378.496c-0.275-4.979-0.542-9.804-0.808-14.627  c-0.95,0.142-1.854,0.237-2.741,0.421c-0.718,0.148-1.49,0.28-2.092,0.655c-0.365,0.228-0.641,0.917-0.604,1.371  c0.031,0.382,0.507,0.844,0.901,1.053c0.627,0.332,1.357,0.463,2.031,0.712c1.433,0.53,2.535,2.377,2.48,3.893  c-0.07,1.924-1.191,3.087-2.832,3.596c-1.9,0.589-3.917,0.695-5.448-0.959c-0.7-0.756-0.704-1.701-0.088-2.642  c0.638-0.975,1.309-0.56,2.063-0.238c0.481,0.205,1.02,0.276,1.58,0.419c0.34-1.357-0.518-1.532-1.276-1.701  c-1.966-0.439-3.238-1.605-3.851-3.511c-0.135-0.417-0.188-0.891-0.423-1.242c-0.749-1.114-0.304-1.948,0.652-2.505  c1.404-0.818,2.875-1.532,4.355-2.208c1.003-0.458,2.039-0.607,3.088,0.05c0.644,0.403,1.395,0.636,2.152,0.969  c0-1.036,0-2.044,0-2.921c-3.626-1.406-7.275-1.517-10.952-1.401c-1.981,0.062-2.269,0.41-1.954,2.392  c0.075,0.473,0.124,0.953,0.14,1.432c0.118,3.471,0.18,6.944,0.353,10.412c0.098,1.97,0.03,4.025,1.538,5.64  C254.907,377.861,258.744,378.169,262.798,378.496z M239.256,380.309c-0.375,0.017-0.533,0.004-0.681,0.034  c-2.021,0.403-2.537,0.087-2.578-1.896c-0.047-2.269,0.177-4.545,0.072-6.809c-0.149-3.218-0.498-6.426-0.745-9.639  c-0.02-0.264,0.055-0.544,0.133-0.803c0.426-1.412,1.542-1.547,2.957-1.292c-0.089-1.322-0.166-2.455-0.237-3.515  c-2.693,0.996-4.99-0.626-7.623-0.993c0.144,1.937,0.258,3.79,0.426,5.637c0.12,1.326,0.395,2.557,1.648,3.401  c0.483,0.326,0.775,1.008,1.031,1.583c1.162,2.611,0.232,4.973-0.908,7.318c-0.226,0.465-0.386,1.041-0.342,1.545  c0.232,2.664,0.522,5.323,0.828,7.98c0.245,2.123,0.542,4.24,0.815,6.359c0.096,0.093,0.191,0.186,0.287,0.28  c1.422-1.915,3.113-2.418,5.37-0.949C239.546,385.579,239.403,382.966,239.256,380.309z M278.588,397.421  c-0.03-0.155-0.061-0.312-0.091-0.467c-0.598,0-1.242,0.141-1.781-0.036c-0.656-0.216-1.492-0.573-1.741-1.107  c-0.182-0.388,0.317-1.326,0.77-1.727c0.714-0.63,1.645-1.014,2.541,0.01c0.102-0.042,0.204-0.083,0.306-0.125  c0.122-2.187,0.245-4.374,0.36-6.435c-1.327,0.139-2.447,0.256-3.72,0.389c0.411,0.193,0.817,0.25,0.946,0.47  c0.42,0.717,1.083,1.529,1.008,2.238c-0.096,0.907-1.177,0.888-1.987,0.847c-0.477-0.024-0.958-0.089-1.422-0.202  c-1.477-0.358-1.919-1.6-0.956-2.732c0.366-0.429,0.849-0.758,1.257-1.114c-0.294-0.666-0.618-1.401-0.891-2.018  c-1.875,0.458-3.711,0.907-5.663,1.384c0.036,0.459,0.216,1.069,0.094,1.612c-0.183,0.816,0.06,1.24,0.76,1.638  c2.102,1.193,3.354,3.251,4.884,5.013c0.722,0.832,0.389,1.368-0.688,1.454c-1.766,0.141-3.3-0.287-4.435-1.885  c0,2.063,0,3.948,0,5.867C272.065,400.505,275.737,400.227,278.588,397.421z M265.504,331.447c1.578,0.071,2.98,0.114,4.381,0.201  c3.221,0.199,6.232,1.145,9.08,2.63c0.671,0.35,1.281,0.823,1.968,1.129c0.252,0.113,0.693-0.02,0.958-0.184  c0.132-0.083,0.175-0.562,0.063-0.738c-0.527-0.831-0.999-1.757-1.718-2.393c-1.556-1.375-2.977-2.865-4.804-4.001  c-1.662-1.034-3.272-1.546-5-1.151c-2.539,0.58-4.986,0.771-7.492-0.028c-0.344-0.109-0.794,0.114-1.196,0.184  c-0.02,0.171-0.041,0.341-0.062,0.512c0.451,0.204,0.886,0.533,1.354,0.59c1.325,0.161,2.172,0.914,2.356,2.265  C265.451,330.882,265.488,331.303,265.504,331.447z M237.908,352.672c-0.255-2.919-0.498-5.703-0.759-8.701  c-1.496,1.067-2.681,0.795-3.742-0.374c-0.206-0.227-0.546-0.324-0.805-0.509c-0.858-0.613-1.71-1.233-2.557-1.862  c-0.225-0.167-0.418-0.375-0.904-0.817c0.334,3.689,0.634,7,0.913,10.076C232.729,351.23,235.16,351.907,237.908,352.672z   M165.17,304.149c0.036-0.159,0.073-0.318,0.109-0.477c-0.712-0.375-1.439-0.723-2.132-1.13c-0.814-0.478-1.823-0.848-2.33-1.561  c-0.449-0.631-0.325-1.669-0.47-2.641c-3.331,1.524-6.421,3.484-8.493,6.979c0.476,0.24,0.807,0.562,1.09,0.525  C157.023,305.308,161.096,304.723,165.17,304.149z M226.567,350.498c0.639-3.029-1.902-4.257-2.86-6.267  c-2.396,0.804-3.952,2.784-4.184,5.238C221.857,349.809,224.192,350.15,226.567,350.498z M225.581,365.623  c0.239,2.836,0.469,5.56,0.708,8.389c1.967-1.009,2.388-1.693,2.239-3.439c-0.078-0.909-0.192-1.815-0.294-2.722  C228.009,365.872,227.934,365.801,225.581,365.623z M240.667,336.998c-0.121,1.35,0.302,1.783,2.861,2.609  c-0.121-0.973,1.611-1.057,1.107-2.099C243.189,337.322,241.924,337.159,240.667,336.998z M175.614,293.422  c-0.058-0.209-0.117-0.419-0.175-0.629c-2.212,0.68-4.424,1.361-6.636,2.042c0.035,0.108,0.068,0.217,0.103,0.326  C171.142,294.581,173.378,294.001,175.614,293.422z M260.162,315.315c-0.033,0.168-0.064,0.336-0.097,0.504  c0.782,0.373,1.563,0.745,2.345,1.117c0.102-0.114,0.204-0.228,0.307-0.341c-0.224-0.589-0.448-1.179-0.725-1.908  C261.298,314.926,260.73,315.121,260.162,315.315z M243.716,310.926c1.219,0.209,2.284,0.393,3.35,0.576  c0.043-0.174,0.087-0.348,0.13-0.522c-1.026-0.401-2.052-0.803-3.139-1.229C243.921,310.217,243.847,310.476,243.716,310.926z   M278.84,385.775c0-1.131,0-1.998,0-2.988c-0.668,0.602-1.173,1.055-1.719,1.546C277.705,384.823,278.193,385.232,278.84,385.775z   M215.241,347.319c-0.107-0.016-0.215-0.032-0.322-0.048c-0.285,0.594-0.571,1.189-0.951,1.981c0.693,0,1.149,0,1.693,0  C215.5,348.505,215.37,347.912,215.241,347.319z M187.809,349.596c0.888-0.042,1.516-0.072,2.143-0.102  c0.031-0.084,0.063-0.168,0.094-0.251c-0.414-0.291-0.828-0.583-1.264-0.889C188.473,348.75,188.236,349.051,187.809,349.596z   M278.044,361.24c-0.506,0.322-0.811,0.516-1.303,0.829c0.553,0.19,0.896,0.308,1.376,0.473  C278.093,362.097,278.077,361.81,278.044,361.24z M190.018,493.794c-0.681,0.605-1.052,1.105-1.549,1.343  c-1.259,0.604-2.243-0.025-2.285-1.416c-0.038-1.268-0.008-2.537-0.008-3.895c-0.477-0.133-0.843-0.301-1.22-0.331  c-3.377-0.271-6.756-0.504-10.133-0.771c-2.144-0.169-4.282-0.417-6.428-0.556c-3.774-0.244-7.556-0.388-11.328-0.654  c-4.456-0.314-8.908-0.689-13.356-1.094c-2.26-0.205-4.513-0.497-6.76-0.808c-2.156-0.298-4.306-0.646-6.447-1.034  c-0.319-0.059-0.678-0.412-0.84-0.722c-0.403-0.771-0.704-1.597-1.055-2.419c0.529-1.315,0.796-1.33,2.131-0.922  c2.004,0.615,4.05,1.112,6.103,1.539c1.979,0.412,3.98,0.786,5.99,0.975c3.407,0.315,6.832,0.45,10.246,0.704  c2.341,0.174,4.673,0.481,7.016,0.621c3.741,0.221,7.489,0.32,11.231,0.53c1.898,0.106,3.786,0.379,5.684,0.508  c2.547,0.173,5.098,0.28,7.647,0.401c0.179,0.009,0.364-0.104,0.664-0.196c-0.468-3.012-0.931-5.985-1.398-8.994  c-0.5,0-0.798,0-1.157,0c-0.179-0.446-0.369-0.922-0.564-1.408c0.409-0.479,0.806-0.946,1.39-1.632  c-1.979-0.259-3.692-0.516-5.412-0.698c-4.635-0.493-9.273-0.958-13.911-1.429c-3.365-0.342-6.728-0.713-10.097-0.997  c-4.93-0.418-9.862-0.804-14.798-1.145c-4.498-0.31-9.001-0.521-13.5-0.816c-2.03-0.134-3.21-1.822-2.749-4.053  c0.543,0.034,1.123,0.021,1.684,0.113c1.788,0.297,3.558,0.768,5.356,0.928c4.067,0.362,8.147,0.578,12.222,0.856  c3.686,0.253,7.379,0.432,11.056,0.789c3.325,0.323,6.628,0.868,9.948,1.264c1.342,0.159,2.704,0.152,4.053,0.271  c5.436,0.472,10.866,1.013,16.306,1.425c2.899,0.22,5.815,0.218,8.722,0.334c1.997,0.081,2.558,0.466,3.417,2.308  c0.343-0.105,0.699-0.218,1.091-0.34c0.285,0.261,0.572,0.522,0.975,0.89c1.029-0.959,2.02-1.909,3.041-2.827  c2.194-1.971,4.357-3.979,6.621-5.865c2.003-1.67,4.192-3.117,6.176-4.809c2.574-2.19,4.98-4.578,7.543-6.783  c2.497-2.148,5.07-4.211,7.665-6.241c4.01-3.137,8.094-6.179,12.097-9.325c4.795-3.769,9.517-7.632,14.312-11.4  c3.041-2.39,6.029-4.884,9.275-6.966c3.993-2.562,7.366-5.833,11.029-8.771c1.986-1.594,4.132-2.986,6.187-4.496  c2.41-1.771,4.826-3.533,7.173-5.382c0.413-0.325,0.581-1.038,0.731-1.606c0.329-1.241-0.108-2.814,1.777-3.533  c0.543,0.391,1.209,0.801,1.782,1.317c0.226,0.203,0.411,0.692,0.327,0.963c-0.679,2.187,0.292,4.343,0.062,6.514  c-0.023,0.219,0.081,0.477,0.194,0.677c0.639,1.135,0.453,2.628-0.521,3.525c-3.72,3.435-7.375,6.941-11.204,10.25  c-4.216,3.645-8.559,7.146-12.914,10.624c-5.917,4.728-11.482,9.845-17.08,14.936c-2.882,2.621-6.089,4.883-9.05,7.422  c-1.989,1.705-3.743,3.682-5.71,5.415c-3.224,2.843-6.523,5.601-9.815,8.366c-2.676,2.247-5.408,4.431-8.076,6.688  c-1.334,1.129-2.52,2.439-3.884,3.527c-2.035,1.624-4.168,3.124-6.261,4.676c-0.701,0.52-1.359,1.122-2.121,1.527  c-0.541,0.287-1.246,0.247-1.837,0.464c-0.841,0.309-1.713,0.614-2.452,1.104c-2.859,1.896-5.658,3.88-7.861,6.566  c-0.427,0.521-0.82,1.068-1.243,1.594C192.814,492.776,191.512,493.803,190.018,493.794z M194.583,485.321  c0.253-0.149,0.43-0.238,0.591-0.353c3.001-2.104,5.978-4.242,9.007-6.305c1.96-1.335,4.086-2.439,5.974-3.866  c1.959-1.479,3.686-3.265,5.576-4.843c2.229-1.86,4.579-3.579,6.777-5.475c2.415-2.082,4.679-4.338,7.078-6.438  c2.155-1.887,4.438-3.628,6.601-5.507c2.552-2.216,4.998-4.554,7.562-6.755c2.116-1.817,4.404-3.438,6.496-5.281  c3.381-2.979,6.626-6.112,10.004-9.096c1.578-1.394,3.372-2.537,4.995-3.883c3.557-2.948,7.107-5.908,10.587-8.947  c4.565-3.984,9.064-8.043,13.575-12.09c0.306-0.273,0.469-0.706,0.698-1.065c-0.103-0.096-0.205-0.191-0.308-0.288  c-0.807,0.539-1.642,1.039-2.415,1.622c-3.435,2.588-6.886,5.157-10.266,7.815c-2.758,2.169-5.285,4.656-8.162,6.646  c-5.321,3.676-10.482,7.538-15.427,11.702c-2.835,2.388-5.758,4.673-8.662,6.979c-2.344,1.859-4.698,3.707-7.083,5.513  c-2.95,2.232-5.995,4.344-8.891,6.644c-3.242,2.576-6.365,5.301-9.532,7.969c-2.195,1.849-4.346,3.751-6.575,5.558  c-3.175,2.573-6.495,4.975-9.579,7.651c-2.244,1.947-4.499,3.789-7.206,4.897c-0.451-0.198-0.817-0.36-1.415-0.623  C194.583,480.227,194.583,482.702,194.583,485.321z M189.578,485.902c0.094-0.063,0.188-0.127,0.282-0.19c0-2.167,0-4.334,0-6.575  c-1.332,0.464-1.87,1.175-1.582,2.424c0.259,1.124,0.417,2.272,0.69,3.395C189.052,485.3,189.368,485.588,189.578,485.902z   M186.792,475.128c0.654,1.056,1.282,0.943,2.877-0.469C188.562,474.84,187.718,474.977,186.792,475.128z M175.439,292.793  c-2.212,0.68-4.424,1.361-6.636,2.042c0.035,0.108,0.068,0.217,0.103,0.326c2.236-0.58,4.473-1.159,6.708-1.739  C175.556,293.212,175.498,293.002,175.439,292.793z M189.952,349.495c0.031-0.084,0.063-0.168,0.094-0.251  c-0.414-0.291-0.828-0.583-1.264-0.889c-0.31,0.395-0.546,0.697-0.974,1.242C188.696,349.554,189.324,349.524,189.952,349.495z   M276.742,362.069c0.553,0.19,0.896,0.308,1.376,0.473c-0.025-0.444-0.042-0.732-0.074-1.302  C277.539,361.562,277.233,361.756,276.742,362.069z M276.813,358.854c0.309,0.44,0.617,0.881,1.043,1.489  c0.358-1.324-0.313-1.434-1.071-1.461C276.786,358.882,276.812,358.855,276.813,358.854z M167.569,366.379  c-0.465,0.28-0.87,0.633-1.341,0.787c-1.345,0.438-2.507,0.057-3.123-1.236c-0.94-1.976-2.5-2.335-4.452-2.188  c-0.609,0.046-1.37-0.155-1.848-0.521c-0.978-0.75-0.802-1.899,0.255-2.534c0.229-0.137,0.463-0.266,0.853-0.489  c-1.054-1.07-0.931-2.144-0.424-3.413c0.506-1.266-0.286-1.982-1.655-1.727c-1.74,0.325-3.005,1.168-3.457,3.019  c-0.263,1.078-1.622,1.909-2.562,1.704c-1.104-0.242-1.618-1.142-1.514-2.465c0.038-0.481-0.038-1.021-0.228-1.462  c-0.615-1.433,0.321-2.793,1.986-2.502c0.643,0.112,1.426-0.241,2.071-0.543c1.57-0.735,3.106-1.266,4.925-1.015  c1.886,0.26,2.94,1.404,3.925,2.814c0.289,0.413,0.746,0.837,1.208,0.974c1.253,0.373,2.006,1.283,1.9,2.611  c-0.042,0.514-0.163,1.022-0.255,1.532c-0.084,0.468-0.177,0.935-0.243,1.282c0.821,1.05,1.567,2.004,2.408,3.079  c0.241-0.208,0.736-0.48,0.702-0.631c-0.275-1.214,0.785-1.879,1.086-2.846c0.319-1.021,1.766-1.826,3.146-1.735  c0.744,0.049,1.501,0.198,2.208,0.436c1.501,0.506,1.997,1.515,1.866,3.138c-0.063,0.786,0.225,1.595,0.222,2.393  c-0.002,0.584-0.041,1.313-0.375,1.724c-1.167,1.432-4.977,2.231-6.616,0.357C168.062,366.717,167.816,366.575,167.569,366.379z   M171.021,361.721c-0.141,0.087-0.283,0.174-0.424,0.26c0.09,0.456,0.105,0.945,0.29,1.358c0.234,0.522-0.222,1.487,0.884,1.491  c-0.002-0.568,0.091-1.159-0.035-1.699C171.62,362.633,171.269,362.189,171.021,361.721z M161.973,409.4  c0.296,0.073,0.633,0.052,0.896,0.185c1.516,0.771,2.866,0.162,3.292-1.53c0.633-2.52,0.086-4.91-0.934-7.203  c-0.499-1.119-2.165-1.62-3.299-1.151c-1.75,0.723-4.37,4.686-4.12,6.535c0.072,0.534,0.788,1.175,1.355,1.405  c0.771,0.315,0.754-0.52,0.944-1.02c0.537-1.407,0.842-2.979,2.683-3.926c0.042,1.415,0.167,2.629,0.091,3.83  c-0.087,1.391-0.488,1.552-1.856,0.82c-0.308,0.377-0.634,0.776-1.213,1.485C160.79,409.091,161.379,409.254,161.973,409.4z   M214.241,418.117c0.688-0.781,1.706-1.64,1.762-2.52c0.074-1.146-0.635-2.352-1.05-3.517c-0.066-0.187-0.347-0.306-0.543-0.433  c-1.043-0.673-1.892-0.012-2.775,0.414c-1.646,0.793-2.42,1.964-2.167,3.289c0.352,1.844,1.735,3.115,3.786,3.226  C213.428,418.503,213.967,418.427,214.241,418.117z M163.163,391.76c0.302-0.509,0.225-1.532-0.097-2.069  c-1.093-1.826-4.262-2.046-5.602-0.432c-0.803,0.967-1.371,2.072-0.753,3.412c0.467,1.013,1.265,1.497,2.169,1.597  C160.881,394.188,162.272,393.262,163.163,391.76z M170.831,411.377c-0.075,0.114-0.223,0.338-0.364,0.551  c0.964,1.171,0.953,1.354-0.305,2.222c-1.182,0.813-2.351,1.63-3.915,0.786c-1.435-0.771-1.862-2.219-1.031-3.621  c0.807-1.363,2.12-1.789,3.535-2.009c0.258-0.04,0.634,0.267,0.857,0.504C170.018,410.249,170.355,410.757,170.831,411.377z   M169.746,412.248c-1.582-0.416-1.604-0.403-1.302,0.573C168.888,412.626,169.317,412.438,169.746,412.248z M171.626,405.353  c1.147,0.312,2.557-0.299,3.301-1.431c0.981-1.49,0.959-2.482-0.22-3.036c-0.832-0.39-1.773-0.604-2.688-0.744  c-1.125-0.172-2.481,1.11-2.472,2.211C169.562,403.86,170.357,405.009,171.626,405.353z M205.242,419.055  c-0.866,0.161-1.516,0.985-1.309,1.658c0.264,0.857,1.697,1.905,2.79,1.959c1.081,0.054,1.777-0.52,2.178-1.546  C207.576,419.412,206.504,418.819,205.242,419.055z M224.633,410.191c0.216-0.162,0.298-0.782,0.165-1.061  c-0.153-0.318-0.582-0.595-0.947-0.702c-0.436-0.129-0.943-0.136-1.396-0.06c-0.573,0.097-1.239,0.198-1.643,0.551  c-0.296,0.259-0.476,1.085-0.283,1.377c0.356,0.537,1.024,0.867,1.647,1.351C223.109,411.112,223.924,410.722,224.633,410.191z   M233.566,333.079c-0.049,0.554-0.098,1.108-0.146,1.662c0.131,0.009,0.262,0.019,0.393,0.027c0-0.556,0-1.112,0-1.667  C233.73,333.093,233.648,333.086,233.566,333.079z M208.591,369.912c0.176,0.254,0.369,0.499,0.526,0.764  c1.655,2.79,3.299,5.587,4.96,8.374c0.557,0.934,1.335,1.663,2.485,1.557c1.178-0.109,2.99-2.586,2.895-3.781  c-0.082-1.029-0.135-2.062-0.256-3.086c-0.474-3.994-0.948-7.989-1.483-11.976c-0.074-0.554-0.482-1.069-0.758-1.59  c-0.514-0.968-1.358-1.073-2.25-0.701c-0.983,0.411-1.412,1.192-1.316,2.302c0.218,2.536,0.386,5.076,0.559,7.615  c0.037,0.537,0.005,1.079,0.005,1.798c-1.333-2.083-2.504-3.973-3.735-5.823c-1.364-2.05-2.908-4.008-2.759-6.685  c0.017-0.299-0.114-0.634-0.26-0.908c-0.414-0.776-0.94-1.224-1.923-0.789c-1.132,0.501-1.669,1.363-1.557,2.745  c0.113,1.39,0.401,2.802,0.26,4.168c-0.487,4.748,0.536,9.377,0.904,14.057c0.023,0.294,0.173,0.579,0.257,0.848  c2.729-0.292,4.055-2.061,3.619-4.57c-0.242-1.393-0.337-2.811-0.5-4.217C208.375,369.98,208.482,369.946,208.591,369.912z   M197.187,379.696c2.782-0.525,3.245-1.179,3.002-4.029c-0.252-2.958-0.509-5.917-0.644-8.882c-0.081-1.784,0.107-3.58,0.095-5.37  c-0.007-0.994-0.376-2.065-1.442-2.159c-1.017-0.09-2.176,0.153-3.087,0.616c-0.573,0.291-1.044,1.224-1.135,1.924  c-0.161,1.25-0.077,2.549,0.041,3.814c0.354,3.81,0.808,7.61,1.146,11.42c0.101,1.142,0.36,2.112,1.442,2.837  C196.806,379.807,196.993,379.732,197.187,379.696z M251.176,404.691c-0.171-1.152-3.456-2.869-4.508-2.383  c-0.839,0.39-1.072,1.418-0.302,1.786c1.434,0.686,2.976,1.145,4.583,1.737C251.08,405.214,251.213,404.939,251.176,404.691z   M255.498,403.962c0-0.327,0.116-0.862-0.021-0.938c-0.292-0.159-0.819-0.233-1.062-0.067c-0.677,0.463-1.295,1.031-1.866,1.625  c-0.579,0.602-0.393,1.468,0.418,1.683c0.829,0.22,1.72,0.201,2.53,0.281C255.498,405.508,255.498,404.734,255.498,403.962z   M245.82,346.677c-0.674-0.16-1.661,0.136-2.222,0.582c-0.741,0.587-0.361,1.54,0.147,2.153c1.769,2.132,3.753,3.866,6.842,2.743  c0.462-0.168,1.226-0.366,1.267-0.637c0.064-0.434-0.271-1.023-0.607-1.388c-0.26-0.282-0.772-0.371-1.191-0.456  c-0.439-0.09-0.901-0.073-1.347-0.103C248.343,347.931,247.618,347.103,245.82,346.677z M254.549,343.316  c-0.12-1.635-2.217-3.709-3.867-3.679c-0.427,0.008-1.075,0.412-1.229,0.793c-0.677,1.679,1.166,4.211,2.99,4.232  C253.854,344.678,254.613,344.193,254.549,343.316z M257.208,338.066c-0.521-1.146-1.971-2.042-3.205-1.787  c-0.535,0.11-1.285,0.562-1.394,0.995c-0.134,0.534,0.116,1.421,0.527,1.777c0.704,0.61,1.663,0.927,2.515,1.367  C257.116,340.223,257.757,339.273,257.208,338.066z M274.556,348.372c0.555-0.124,1.167-0.913,1.356-1.524  c0.227-0.735-1.436-2.167-2.333-2.203c-0.823-0.034-1.439,0.633-1.44,1.558C272.137,347.209,273.502,348.605,274.556,348.372z"/>
</svg>
