<?xml version="1.0" encoding="utf-8"?>
<!-- Generator: Adobe Illustrator 16.0.1, SVG Export Plug-In . SVG Version: 6.00 Build 0)  -->
<!DOCTYPE svg PUBLIC "-//W3C//DTD SVG 1.1//EN" "http://www.w3.org/Graphics/SVG/1.1/DTD/svg11.dtd">
<svg xmlns="http://www.w3.org/2000/svg" xmlns:xlink="http://www.w3.org/1999/xlink" version="1.1" id="Layer_1" x="0px" y="0px" width="187px" height="324px" viewBox="220.5 209.5 187 324" xml:space="preserve">
<path d="M271.102,491.598c-0.968-0.539-1.772-1.069-2.641-1.454c-1.78-0.793-3.107-2.051-4.089-3.704  c-0.05-0.081-0.073-0.219-0.141-0.246c-3.296-1.348-1.675-4.067-1.475-6.131c0.494-5.086,0.887-10.136-0.122-15.191  c-0.09-0.453-0.305-0.905-0.555-1.299c-1.082-1.71-0.943-2.576,1.018-3.166c1.544-0.465,1.325-1.259,1.125-2.38  c-1.62-9.152-3.329-18.289-4.758-27.473c-1.037-6.647-1.778-13.344-2.496-20.036c-0.861-8.036-1.452-16.101-2.365-24.13  c-0.552-4.845-1.532-9.64-2.214-14.473c-0.1-0.702,0.147-1.776,0.64-2.185c2.607-2.15,3.368-5.34,4.804-8.143  c0.174-0.337-0.132-0.92-0.216-1.39c-0.15,0.003-0.302,0.008-0.453,0.012c-0.608,1.23-1.139,2.508-1.862,3.667  c-0.3,0.48-1.045,1.027-1.513,0.966c-0.485-0.063-1.011-0.758-1.289-1.293c-1.541-2.981-2.277-6.192-2.634-9.513  c-0.031-0.291-0.648-0.767-0.96-0.743c-2.947,0.232-4.006-1.703-4.344-4.043c-0.479-3.303-0.892-6.618-1.252-9.935  c-0.413-3.797-0.607-7.623-1.141-11.4c-0.467-3.298-1.208-6.563-1.948-9.815c-0.685-3.012-1.607-5.971-2.251-8.988  c-0.191-0.895,0.083-1.949,0.354-2.868c0.405-1.382,1.077-2.684,1.492-4.063c1.928-6.411,4.177-12.695,6.886-18.824  c0.581-1.315,0.696-2.88,0.798-4.346c0.078-1.12,0.508-1.609,1.543-1.934c0.773-0.242,1.576-0.708,2.125-1.296  c1.784-1.914,3.328-3.986,3.953-6.633c0.105-0.45,0.828-0.988,1.334-1.071c2.002-0.328,4.039-0.449,6.051-0.723  c3.924-0.534,7.838-1.148,11.764-1.676c2.348-0.316,4.71-0.522,7.063-0.799c0.468-0.056,0.923-0.212,1.458-0.339  c-1.409-3.474,0.663-6.319,1.379-9.381c0.822-3.512,1.787-6.998,2.416-10.543c0.26-1.467-0.167-3.062-0.332-4.595  c-0.13-1.197-0.399-2.382,1.354-2.646c0.289-0.044,0.475-0.606,0.759-0.875c0.513-0.482,1.014-1.235,1.609-1.333  c3.726-0.614,7.464-1.214,11.222-1.56c5.16-0.476,10.339-0.728,15.511-1.064c2.023-0.131,4.079-0.063,6.069-0.386  c3.101-0.504,6.092-0.066,8.997,0.836c0.775,0.24,1.575,1.378,1.796,2.247c0.676,2.651,0.886,5.425,1.618,8.056  c1.36,4.883,0.009,9.384-1.543,13.894c-0.487,1.419-1.083,2.801-1.581,4.217c-0.437,1.241,0.063,1.856,1.384,1.699  c4.602-0.55,9.189-1.278,13.808-1.632c2.799-0.215,5.639,0.17,8.462,0.217c2.121,0.035,4.249,0.021,6.367-0.083  c1.197-0.059,1.94,0.387,2.898,1.14c1.956,1.536,4.253,2.639,6.412,3.915c1.465,0.865,2.699,1.729,3.77,3.308  c1.687,2.484,1.503,5.312,2.526,7.878c1.986,4.986,3.493,10.162,5.2,15.259c1.442,4.307,2.85,8.627,4.355,12.913  c0.492,1.403,1.27,2.703,1.881,4.068c0.639,1.438,1.075,2.922,0.252,4.428c-0.219,0.4-0.661,0.678-1.006,1.005  c-4.391,4.159-8.783,8.316-13.171,12.48c-0.125,0.121-0.181,0.313-0.459,0.805c1.179-0.194,2.103-0.263,2.978-0.509  c2.145-0.601,4.325-1.137,6.369-1.985c1.331-0.552,3.037,0.479,3.701,1.99c2.117,4.81,4.083,9.688,6.057,14.56  c0.841,2.079-0.201,3.461-2.653,3.491c-0.083,0.321-0.239,0.673-0.26,1.033c-0.073,1.343-1.151,1.681-2.048,1.556  c-4.411-0.617-8.535,0.945-12.789,1.492c-5.09,0.653-10.178,1.315-15.266,1.986c-0.423,0.056-0.869,0.138-1.241,0.329  c-0.903,0.463-1.77,0.997-2.706,1.534c1.61,4.555,1.896,9.682,2.417,14.75c0.735,7.129,1.323,14.272,1.925,21.415  c0.545,6.467,1.07,12.914,2.271,19.329c1.146,6.129,1.386,12.423,2.107,18.636c0.322,2.778,1.27,5.55,1.159,8.295  c-0.123,3.1,0.257,6.027,0.91,9.004c0.379,1.723,0.394,1.881,2.142,1.536c1.255-0.248,2.513-0.612,3.406,0.732  c0.183,0.275,0.351,0.577,0.441,0.891c0.784,2.677,1.439,5.397,2.354,8.029c0.738,2.122,1.877,4.105,2.644,6.221  c0.294,0.817,0.016,1.831,0.07,2.751c0.028,0.472,0.06,1.165,0.354,1.362c1.785,1.202,2.461,2.77,2.785,4.933  c0.229,1.507,0.727,3.282,2.156,4.533c1.633,1.429,1.428,3.802-0.082,5.53c-0.525,0.602-0.793,1.421-1.215,2.119  c-0.51,0.844-1.029,1.685-1.6,2.488c-0.569,0.802-1.087,1.718-1.85,2.281c-0.72,0.532-1.727,0.681-2.614,0.975  c-0.897,0.298-1.888,0.421-2.688,0.88c-1.466,0.843-1.474,1.449-0.338,2.875c0.996,1.248,2.056,2.453,2.955,3.769  c1.027,1.502,1.421,4.442-0.106,5.619c-0.25,0.192-0.627,0.497-0.837,0.43c-2.504-0.826-4.375,0.811-6.394,1.681  c-2.789,1.199-5.455,2.685-8.229,3.926c-0.562,0.253-1.55,0.222-2.028-0.12c-2.677-1.898-5.263-3.927-7.865-5.934  c-0.336-0.26-0.623-0.611-0.86-0.969c-1.194-1.784-2.304-2.131-4.414-1.628c-3.386,0.808-6.776,1.618-10.202,2.22  c-5.566,0.976-11.15,1.102-16.783,0.277c-2.711-0.396-5.518-0.074-8.27-0.265c-3.178-0.217-6.344-0.631-9.513-0.972  c-1.202-0.13-2.398-0.336-3.603-0.415c-0.308-0.021-0.872,0.263-0.919,0.49c-0.273,1.299-0.52,2.618-0.587,3.94  c-0.058,1.143,0.521,2.459,0.126,3.411c-0.684,1.646-1.866,3.101-2.947,4.556c-0.135,0.181-1.09,0.051-1.384-0.229  c-1.942-1.845-2.622-1.986-4.934-0.601c-0.99,0.595-1.85,1.414-2.862,1.957c-0.51,0.273-1.29,0.36-1.841,0.189  c-2.8-0.874-5.569-1.843-8.339-2.81c-1.55-0.54-3.291-0.861-4.556-1.803c-1.195-0.891-1.93-2.437-2.743-3.768  c-0.162-0.266,0.114-0.978,0.396-1.306c2.927-3.407,3.602-7.38,3.088-11.69c-0.039-0.324,0.188-0.703,0.351-1.026  C270.507,492.438,270.75,492.134,271.102,491.598z M282.397,478.907c0.03,0.191,0.024,0.396,0.096,0.57  c1.01,2.482,3.438,2.809,5.521,3.141c4.514,0.721,9.084,1.121,13.647,1.49c3.605,0.289,7.231,0.454,10.848,0.449  c2.649-0.002,5.298-0.48,7.951-0.543c5.553-0.13,11.127,0.44,16.633-0.838c3.057-0.71,6.187-1.098,9.232-1.847  c3.239-0.799,6.427-1.818,9.614-2.816c2.483-0.778,5.047-1.384,7.128-3.121c0.847-0.708,1.746-1.384,2.704-1.927  c2.312-1.311,4.661-2.554,7.017-3.783c1.191-0.624,1.71-1.645,1.494-2.862c-0.089-0.505-0.868-0.892-1.339-1.324  c-0.178-0.165-0.433-0.273-0.549-0.468c-1.099-1.842-2.904-2.309-4.829-2.342c-0.582-0.011-1.271,0.476-1.72,0.925  c-0.172,0.174,0.102,0.929,0.323,1.335c1.535,2.834,1.817,5.671-1.819,7.375c-2.444,1.145-4.908,2.245-7.375,3.341  c-5.282,2.348-10.87,3.77-16.485,4.931c-4.578,0.944-9.285,1.303-13.95,1.773c-2.879,0.292-5.785,0.358-8.68,0.43  c-1.773,0.041-3.555-0.051-5.325-0.176c-1.586-0.11-3.158-0.395-4.744-0.519c-4.96-0.388-9.942-0.578-14.881-1.151  c-3.543-0.412-7.031-1.318-10.543-2.003c-0.131-0.67-0.1-1.436-0.43-1.984c-0.625-1.039-1.173-1.968-0.555-3.229  c0.525-1.07,0.608-2.549,1.41-3.239c0.957-0.828,0.801-1.495,0.59-2.381c-0.846-3.536-1.75-7.06-2.537-10.61  c-1.383-6.246-2.747-12.495-4.022-18.763c-1.277-6.267-2.559-12.534-3.616-18.841c-1.081-6.445-2.038-12.917-2.78-19.406  c-0.86-7.511-1.524-15.047-2.089-22.586c-0.468-6.273-0.664-12.566-0.994-18.849c-0.069-1.321-0.198-2.639-0.314-4.15  c-0.381,0.27-0.593,0.341-0.67,0.484c-1.814,3.362-3.63,6.724-5.395,10.111c-0.25,0.481-0.374,1.12-0.313,1.657  c0.557,4.906,1.233,9.798,1.749,14.708c0.57,5.449,0.836,10.935,1.543,16.365c1.236,9.499,2.721,18.967,4.069,28.454  c0.399,2.813,0.601,5.658,1.042,8.465c0.662,4.209,1.442,8.397,2.195,12.592c1.142,6.37,2.302,12.739,3.457,19.105  c0.124,0.686,0.571,1.493,0.348,2.024c-0.458,1.089-0.16,1.651,0.78,2.091c0.693,0.322,1.556,0.467,2.062,0.973  c0.879,0.881,1.798,1.883,2.221,3.013c0.432,1.156-1.117,0.862-1.629,1.405c-0.063,0.067-0.14,0.121-0.19,0.163  C279.156,478.223,280.557,478.947,282.397,478.907z M288.826,468.668c2.185-0.525,4.214-1.129,6.287-1.485  c3.854-0.664,7.724-1.258,11.606-1.723c1.446-0.173,1.725-0.854,1.459-2.022c-0.449-1.984-0.873-3.981-1.473-5.923  c-1.312-4.248-2.691-8.479-4.115-12.692c-0.895-2.652-1.563-5.443-3.565-7.562c-0.951-1.005-1.309-2.097-1.128-3.438  c0.046-0.343-0.002-0.858-0.222-1.049c-0.78-0.677-1.358-1.617-0.758-2.385c0.445-0.567,1.581-0.709,2.437-0.82  c3.354-0.436,6.744-0.639,10.074-1.203c2.943-0.5,5.833-1.331,8.727-2.101c0.461-0.122,0.977-0.614,1.17-1.063  c0.494-1.15-0.378-1.853-1.242-2.076c-2.05-0.53-4.145-1.016-6.246-1.177c-3.413-0.261-5.103-1.808-4.744-4.999  c0.13-1.162,0.58-2.389,1.212-3.374c2.431-3.797,5.688-6.415,10.398-6.808c1.48-0.125,1.931-0.751,1.758-2.243  c-0.129-1.105-0.408-2.197-0.517-3.305c-0.354-3.663-1.546-7.256-0.977-11.102c-1.623-0.319-2.136-1.654-2.521-3.11  c-0.457-1.722-0.911-3.445-1.424-5.149c-0.242-0.802-0.348-1.8-1.533-1.838c-0.963-0.029-1.932-0.104-2.89-0.037  c-2.391,0.16-2.823-0.147-3.566-2.472c-0.471-1.472-1.026-2.917-1.606-4.35c-0.149-0.368-0.48-0.836-0.817-0.924  c-1.563-0.417-3.156-0.716-4.854-1.082c-0.101,0.401-0.272,0.81-0.295,1.226c-0.12,2.225-0.204,4.452-0.297,6.679  c-0.18,4.311-0.376,8.619-0.531,12.928c-0.097,2.708-0.22,5.423-0.158,8.132c0.041,1.813-0.589,2.598-2.305,3.045  c-2.498,0.651-4.947,1.51-7.375,2.393c-1.786,0.65-3.496,1.439-5.395,0.364c-0.259-0.146-0.76-0.079-1.043,0.078  c-0.822,0.462-1.633,0.968-2.36,1.565c-0.344,0.281-0.73,0.839-0.682,1.222c0.829,6.829,1.637,13.663,2.631,20.469  c0.586,4.019,1.581,7.975,2.227,11.985c0.591,3.673,0.885,7.394,1.452,11.07c0.634,4.109,1.405,8.195,2.165,12.283  C288.025,465.87,288.423,467.112,288.826,468.668z M290.5,276.713c-1.749,1.228-3.459,1.076-5.188,0.385  c-0.172-0.069-0.386-0.065-0.578-0.051c-2.754,0.208-5.512,0.383-8.261,0.648c-3.469,0.334-6.939,0.683-10.396,1.136  c-3.549,0.465-7.086,1.032-10.614,1.646c-0.464,0.08-1.235,0.778-1.184,1.072c0.58,3.33,1.222,6.653,1.984,9.946  c1.176,5.084,2.482,10.137,3.682,15.216c0.466,1.974,0.732,3.994,1.206,5.965c0.195,0.816,0.526,1.709,1.708,1.661  c0.717-0.03,1.441,0.074,2.161,0.062c4.972-0.083,9.95-0.027,14.91-0.318c4.529-0.266,9.049-0.815,13.549-1.43  c2.19-0.299,2.192-0.499,1.919-2.686c-0.528-4.229-1.072-8.457-1.646-12.681c-0.565-4.172-1.178-8.338-1.769-12.507  c-0.141-0.993-0.492-2.011-0.376-2.974C291.822,280.006,291.171,278.505,290.5,276.713z M352.313,353.184  c-0.151,0.04-0.361,0.034-0.402,0.115c-0.875,1.709-2.511,2.421-4.13,3.132c-0.961,0.423-1.326,0.961-1.182,2.108  c0.684,5.385,1.288,10.78,1.841,16.182c0.479,4.677,0.75,9.378,1.294,14.046c0.626,5.392,1.558,10.75,2.162,16.143  c0.88,7.851,1.461,15.736,2.401,23.579c1.122,9.367,2.493,18.704,3.746,28.056c0.103,0.758,0.427,1.063,1.243,1.048  c1.447-0.026,2.902,0.046,4.35,0.153c0.88,0.064,1.25-0.109,1.098-1.113c-0.606-4.008-1.185-8.02-1.699-12.039  c-0.691-5.38-1.263-10.774-1.982-16.15c-0.743-5.562-1.667-11.1-2.396-16.662c-0.589-4.518-0.965-9.063-1.513-13.585  c-0.78-6.448-1.681-12.878-2.438-19.327c-0.577-4.913-1.074-9.835-1.485-14.763C352.919,360.479,351.41,356.952,352.313,353.184z   M298.744,368.423c0.929-1.208,0.92-1.203,0.292-2.405c-0.223-0.425-0.481-0.862-0.558-1.322c-0.329-1.965-0.551-2.212-2.571-1.767  c-2.681,0.591-5.377,1.182-7.975,2.049c-3.748,1.25-7.489,0.755-11.249,0.357c-1.08-0.114-1.585,0.091-1.346,1.308  c0.306,1.565,0.523,3.148,0.771,4.725c1.035,6.603,2.08,13.202,3.097,19.807c0.419,2.72,0.737,5.456,1.201,8.168  c0.091,0.53,0.603,1.357,0.992,1.4c1.549,0.168,3.125,0.084,4.693,0.089c0.716,0.001,1.468-0.156,2.144,0.01  c2.133,0.521,3.728-0.658,5.383-1.605c0.282-0.162,0.404-0.745,0.453-1.15c0.268-2.301,0.604-4.6,0.71-6.91  c0.317-6.812,0.561-13.63,0.785-20.446C295.64,368.46,296.621,367.693,298.744,368.423z M301.841,309.672  c0.59-0.181,0.857-0.275,1.13-0.344c4.626-1.16,9.204-2.618,13.896-3.379c3.845-0.625,7.806-0.482,11.531-1.943  c0.926-0.362,1.274-0.726,1.002-1.678c-0.157-0.556-0.222-1.141-0.298-1.717c-0.59-4.51-1.189-9.02-1.751-13.534  c-0.143-1.135-0.746-1.611-1.84-1.609c-4.004,0.01-8.014-0.101-12.014,0.05c-4.685,0.175-8.908,2.1-13.122,3.936  c-0.294,0.127-0.51,0.845-0.471,1.26c0.344,3.617,0.763,7.229,1.139,10.842C301.319,304.192,301.563,306.833,301.841,309.672z   M380.904,302.155c-0.871,0.964-1.666,1.786-2.392,2.666c-0.83,1.003-1.862,1.232-3.085,1.038c-0.857-0.135-1.739-0.343-2.587-0.271  c-5.597,0.481-11.188,1.037-16.781,1.555c-3.517,0.324-7.033,0.667-10.556,0.919c-3.516,0.252-4.239-2.299-3.804-5.106  c0.078-0.505,0.175-1.062,0.044-1.535c-1.184-4.286-2.404-8.561-3.643-12.831c-0.263-0.906-0.634-1.779-0.999-2.786  c-1.455,1.107-2.245,0.577-2.419-0.857c-0.192-1.56-0.291-3.151-0.227-4.718c0.088-2.083,0.128-2.132-1.862-2.36  c-0.432-0.05-0.869-0.113-1.289-0.224c-5.95-1.555-11.963-1.599-17.998-0.671c-1.516,0.234-2.973,0.813-4.481,1.106  c-3.611,0.702-7.043,1.774-9.959,4.144c-0.911,0.74-1.909,1.372-2.868,2.052c0.049,0.191,0.097,0.381,0.146,0.572  c0.712,0,1.54,0.237,2.12-0.04c2.89-1.377,5.891-2.328,8.968-3.23c5.62-1.646,11.35-1.123,17.028-1.482  c2.105-0.133,4.247,0.234,6.367,0.417c1.31,0.113,1.882,1.087,2.226,2.185c0.354,1.13,0.895,2.243-0.009,3.449  c-0.402,0.534-0.621,1.336-0.617,2.015c0.005,1.05,0.232,2.108,0.449,3.145c0.063,0.304,0.388,0.76,0.631,0.786  c2.443,0.26,2.717,2.2,2.821,3.944c0.137,2.285,0.895,4.333,1.663,6.421c1.165,3.167,2.529,6.289,3.337,9.548  c0.415,1.678,1.164,1.841,2.453,1.768c4.431-0.251,8.86-0.533,13.292-0.756c5.372-0.27,10.748-0.455,16.118-0.747  c3.001-0.165,5.996-0.448,8.99-0.73c0.989-0.094,1.887-0.465,1.541-1.749c-0.552-2.054-1.144-4.098-1.775-6.129  C381.588,303.138,381.207,302.68,380.904,302.155z M278.401,350.622c-0.188-0.483-0.229-0.735-0.365-0.915  c-1.285-1.672-0.399-3.277,2.011-3.219c0.817,0.02,1.632,0.509,2.431,0.825c3.417,1.349,6.683,0.156,9.963-0.607  c0.855-0.199,1.662-0.604,2.536-0.93c-1.328-2.085-1.238-3.904,0.288-4.781c1.92-1.104,3.952-2.009,6.223-3.144  c-0.471-2.647-1.036-5.685-1.538-8.731c-0.127-0.779-0.499-1.071-1.209-1.392c-0.635-0.287-1.38-1.022-1.487-1.66  c-0.328-1.949-0.361-3.946-0.533-5.924c-0.037-0.437-0.166-0.867-0.253-1.301c-0.141-0.028-0.282-0.056-0.422-0.083  c-0.294,0.507-0.603,1.009-0.879,1.526c-0.581,1.084-1.084,2.213-1.727,3.258c-1.205,1.961-2.487,3.874-3.735,5.81  c-0.413,0.641-0.685,1.655-1.251,1.86c-1.357,0.493-2.847,0.803-4.291,0.831c-2.966,0.058-5.939-0.116-8.908-0.191  c-0.292-0.008-0.644-0.094-0.859,0.036c-0.32,0.192-0.759,0.534-0.771,0.83c-0.097,2.222-0.173,4.45-0.117,6.672  c0.075,3.042,0.349,6.079,0.389,9.121c0.03,2.211,0.243,2.536,2.462,2.39C276.971,350.858,277.58,350.735,278.401,350.622z   M250.916,287.107c-0.192-0.03-0.382-0.062-0.574-0.094c-0.989,2.176-2.17,4.287-2.926,6.541c-1.417,4.225-2.689,8.506-3.805,12.822  c-0.402,1.552-0.396,3.291-0.198,4.898c0.344,2.782,0.915,5.541,1.51,8.284c1.429,6.592,2.397,13.243,2.82,19.975  c0.024,0.374,0.239,0.734,0.384,1.161c0.326-0.182,0.529-0.226,0.559-0.323c0.241-0.781,0.39-1.594,0.68-2.355  c1.892-4.969,3.801-9.931,5.729-14.886c1.075-2.764,2.151-5.543,1.653-8.579c-0.979-5.963-1.92-11.938-3.115-17.86  C252.977,293.444,251.836,290.298,250.916,287.107z M342.51,407.601c1.737,0.146,2.672-0.968,3.673-1.798  c1.329-1.105,1.711-2.51,1.223-4.292c-0.644-2.353-1.288-4.55-3.103-6.412c-1.772-1.819-2.385-2.291-4.887-1.648  c-0.61,0.157-1.233,0.286-1.819,0.511c-0.326,0.125-0.749,0.362-0.85,0.646c-0.521,1.469-1.626,1.732-2.992,1.673  c-1.886-0.081-3.136,1.339-2.858,3.172c0.47,3.114-0.511,5.182-3.276,6.687c-0.748,0.407-1.041,0.866-0.947,1.725  c0.204,1.881,0.337,3.769,0.464,5.655c0.229,3.426,0.527,6.852,0.612,10.281c0.056,2.172,0.233,2.53,2.372,2.285  c2.478-0.283,4.946-0.64,7.418-0.972c0.503-0.068,3.018-3.254,2.987-3.763c-0.003-0.049-0.016-0.097-0.033-0.142  c-0.686-1.785-1.407-3.557-2.049-5.358c-0.371-1.041-0.982-1.563-2.12-1.625c-1.464-0.079-2.337-0.936-2.373-2.42  c-0.03-1.352,0.097-2.708,0.133-4.064c0.064-2.348,3.486-4.553,5.351-4.565c0.406-0.004,0.829,0.211,1.217,0.382  C342.373,404.311,342.522,405.863,342.51,407.601z M329.036,460.332c1.153-0.391,2.129-0.884,3.154-1.036  c2.151-0.316,4.333-0.422,6.495-0.681c0.814-0.097,1.577-0.267,1.533-1.482c-0.131-3.682-0.139-7.369-0.215-11.054  c-0.012-0.495-0.138-0.987-0.186-1.321c-2.305,0.348-4.388,0.749-6.491,0.959c-5.541,0.553-11.086,1.031-16.632,1.514  c-0.889,0.076-1.201,0.501-1.06,1.336c0.178,1.051,0.335,2.107,0.548,3.151c0.733,3.607,1.481,7.21,2.232,10.811  c0.169,0.812,0.595,1.055,1.476,0.896c2.712-0.488,5.446-0.847,8.167-1.292c0.865-0.143,1.709-0.396,2.564-0.599  c0.006-0.157,0.012-0.312,0.019-0.467C330.157,460.846,329.673,460.624,329.036,460.332z M348.419,408.345  c-2.131,0.849-3.984,1.782-5.947,2.311c-1.695,0.457-2.251-0.228-2.296-2.006c-0.015-0.598-0.131-1.257-0.415-1.77  c-0.465-0.837-1.275-0.708-2.05-0.422c-1.193,0.437-1.838,1.622-1.586,3.375c0.074,0.512,0.661,1.239,1.135,1.352  c2.144,0.513,3.475,1.729,4.148,3.822c0.339,1.052,0.847,2.069,1.412,3.022c1.066,1.795,0.994,3.642,0.244,5.444  c-0.438,1.054-0.659,1.695,0.649,2.263c0.751,0.325,1.542,1.021,1.866,1.751c0.415,0.936,0.879,2.455,0.429,3.047  c-1.038,1.368-0.98,2.766-0.961,4.233c0.022,1.645,0.23,3.289,0.219,4.933c-0.045,5.516-0.099,11.033-0.273,16.545  c-0.047,1.491,0.576,1.931,1.849,1.861c2.077-0.115,4.156-0.245,6.228-0.447c0.308-0.029,0.786-0.465,0.815-0.747  c0.062-0.657-0.077-1.34-0.182-2.005c-0.664-4.254-1.393-8.495-2-12.757c-0.551-3.88-1.083-7.77-1.432-11.673  c-0.548-6.124-0.929-12.266-1.402-18.396C348.769,410.796,348.562,409.518,348.419,408.345z M355.103,297.454  c0.61-2.25,2.082-2.989,4.202-3.162c2.436-0.198,3.139,1.483,4.086,3.168c0.202-0.567,0.213-1.075,0.285-1.571  c0.288-1.981,1.27-3.37,3.476-2.739c2.055,0.586,3.918,1.497,4.995,3.452c0.479,0.874,0.75,1.864,1.117,2.8  c0.12-0.002,0.241-0.004,0.363-0.008c0.024-0.455,0.168-0.945,0.044-1.356c-0.276-0.924-0.586-1.863-1.058-2.698  c-1.396-2.485-3.145-4.811-4.252-7.413c-1.005-2.358-2.837-2.648-4.818-2.804c-3.236-0.253-6.486-0.442-9.729-0.44  c-3.387,0.001-6.772,0.249-10.157,0.412c-1.206,0.057-1.848,0.739-1.501,1.92c1.399,4.776,2.855,9.536,4.341,14.285  c0.12,0.386,0.634,0.649,0.965,0.97c-0.884-2.166-0.83-4.689,0.285-5.716C349.417,295.016,352.096,295.29,355.103,297.454z   M333.881,273.572c-1.45-2.597-2.762-4.981-4.125-7.337c-0.174-0.301-0.584-0.572-0.931-0.645c-1.246-0.263-2.507-0.482-3.772-0.633  c-3.874-0.461-7.721-0.227-11.553,0.497c-1.801,0.338-3.636,0.492-5.428,0.866c-2.176,0.454-4.347,0.971-6.473,1.616  c-1.558,0.474-3.096,1.091-4.535,1.852c-0.875,0.462-1.449,1.189-0.878,2.487c0.538,1.224,0.492,2.559-0.562,3.788  c-0.439,0.513-0.217,1.593-0.295,2.415c0.582-0.049,1.232,0.056,1.733-0.171c5.948-2.693,12.223-4.265,18.605-5.439  c2.555-0.471,5.145-0.849,7.736-1.001c1.481-0.087,3.099,0.1,4.466,0.641C329.714,273.235,331.523,273.64,333.881,273.572z   M379.59,317.068c-0.715-0.165-0.983-0.289-1.246-0.278c-1.877,0.08-3.756,0.142-5.627,0.295c-3.563,0.292-7.12,0.686-10.685,0.952  c-2.405,0.179-4.826,0.172-7.236,0.321c-1.881,0.115-3.751,0.404-5.633,0.498c-1.099,0.053-2.21-0.19-3.315-0.184  c-0.73,0.004-1.461,0.211-2.189,0.328c0.564,0.787-0.278,0.742-0.538,0.715c-1.331-0.136-2.724-0.177-3.96-0.623  c-1.158-0.418-2.149-1.301-3.342-2.062c0,0.364-0.056,0.822,0.01,1.263c0.333,2.243,0.789,4.471,1.015,6.722  c0.133,1.334,0.917,1.478,1.578,0.832c1.201-1.17,2.428-0.805,3.75-0.598c0.61,0.096,1.253,0.052,1.875-0.009  c3.079-0.304,6.149-0.726,9.236-0.93c5.006-0.33,10.04-0.353,15.024-0.86c2.01-0.204,4.273-0.12,5.992-1.713  C375.938,320.216,377.648,318.775,379.59,317.068z M258.158,327.572c0.578,0.06,1,0.139,1.422,0.142  c4.597,0.035,9.195,0.118,13.789,0.051c1.36-0.02,2.713-0.469,4.07-0.713c0.279-0.051,0.569-0.114,0.848-0.095  c1.91,0.139,3.819,0.367,5.73,0.407c0.506,0.011,1.176-0.415,1.506-0.845c0.934-1.21,1.785-2.496,2.562-3.813  c0.625-1.059,1.094-2.208,1.746-3.553c-0.881-0.081-1.446-0.2-2.002-0.172c-3.338,0.167-6.676,0.337-10.009,0.565  c-4.776,0.328-9.55,0.679-14.32,1.079c-1.622,0.136-3.18,0.504-3.777,2.373C259.251,324.468,258.726,325.917,258.158,327.572z   M336.15,366.551c-0.217,0.021-0.431,0.042-0.646,0.062c-0.049,0.521-0.161,1.047-0.137,1.567c0.082,1.782,0.314,3.563,0.303,5.341  c-0.021,2.979-2.038,5.073-4.995,5.4c-0.798,0.086-1.591,0.246-2.297,0.359c0.225,2.646,0.489,5.146,0.631,7.654  c0.116,2.035-1.001,2.971-2.979,2.669c-0.415-0.064-0.835-0.083-1.349-0.132c0.536,4.651,1.057,9.156,1.59,13.772  c1.589-0.718,2.148-1.762,1.904-3.033c-0.109-0.569-0.301-1.145-0.279-1.71c0.032-0.786-0.118-1.243-0.985-1.465  c-0.896-0.229-1.108-0.957-0.909-1.853c0.251-1.13,0.995-1.792,2.03-2.062c2.218-0.581,4.491-0.751,6.682-1.693  c1.99-0.856,4.326-0.911,6.807-1.375C340.153,382.11,338.409,374.271,336.15,366.551z M378.373,296.151  c0.145-0.078,0.289-0.154,0.434-0.232c-0.964-3.083-1.934-6.166-2.892-9.251c-1.077-3.462-2.096-6.945-3.267-10.377  c-0.192-0.567-0.993-1.207-1.592-1.297c-1.161-0.175-2.379,0.002-3.57,0.057c-3.046,0.14-6.094,0.273-9.136,0.444  c-4.783,0.271-9.564,0.63-14.351,0.823c-1.401,0.058-2.818-0.403-4.235-0.46c-0.548-0.023-1.592,0.405-1.594,0.637  c-0.013,1.167-0.948,2.444,0.229,3.512c0.125,0.112,0.37,0.126,0.559,0.124c1.383-0.016,2.766-0.087,4.147-0.068  c6.093,0.087,12.187,0.278,18.278,0.238c1.325-0.008,2.707-0.689,3.95-1.292c1.024-0.497,2.546-0.677,3.082,0.028  c0.439,0.577,0.853,1.183,1.197,1.818c2.266,4.165,4.484,8.353,6.778,12.502C376.938,294.353,377.706,295.225,378.373,296.151z   M296.35,265.003c0.741-0.2,1.188-0.322,1.633-0.44c3.961-1.054,7.887-2.277,11.894-3.107c3.261-0.677,6.613-0.922,9.935-1.274  c0.922-0.098,1.406-0.32,1.461-1.335c0.063-1.156,0.258-2.309,0.462-3.45c0.568-3.189,0.388-3.406-2.829-2.795  c-6.032,1.144-12.041,2.424-18.092,3.457c-2.306,0.394-3.565,1.314-3.625,3.744c-0.023,0.954-0.404,1.893-0.573,2.849  C296.493,263.338,296.455,264.041,296.35,265.003z M337.351,330.08c0.166,2.657,0.327,5.195,0.507,8.1  c1.897-0.366,3.63-0.636,5.332-1.041c2.857-0.679,5.694-1.447,8.545-2.165c0.273-0.069,0.57-0.057,0.856-0.067  c2.575-0.083,5.19-0.013,7.068-2.298c0.242-0.296,0.724-0.47,1.126-0.549c3.117-0.613,6.248-1.174,9.363-1.798  c0.34-0.068,0.621-0.439,0.928-0.669c-0.293-0.282-0.55-0.749-0.886-0.813c-1.416-0.27-2.866-0.652-4.279-0.571  c-5.605,0.328-11.201,0.845-16.802,1.23C345.258,329.704,341.403,329.864,337.351,330.08z M360.17,342.458  c1.783-0.326,3.114-0.616,4.46-0.805c3.831-0.539,7.668-1.03,11.502-1.552c3.499-0.478,6.997-0.972,10.497-1.454  c0.874-0.122,1.064-0.675,0.728-1.357c-0.819-1.646-1.704-3.258-2.58-4.873c-0.083-0.153-0.286-0.334-0.438-0.338  c-1.721-0.063-3.469-0.297-5.156-0.074c-1.658,0.218-3.244,0.949-4.881,1.381c-4.254,1.126-8.519,2.194-12.767,3.336  c-0.432,0.117-1.072,0.535-1.107,0.869C360.245,339.249,360.234,340.926,360.17,342.458z M309.643,362.023  c-0.014-0.099-0.027-0.196-0.041-0.293c-1.63,0.153-3.257,0.388-4.889,0.428c-1.01,0.024-1.124,0.441-0.997,1.264  c0.126,0.809,0.371,1.676,0.202,2.438c-0.321,1.451,0.185,1.902,1.544,1.749c0.43-0.048,0.867-0.046,1.301-0.067  c3.915-0.187,7.831-0.533,11.743-0.495c2.134,0.02,4.093-0.217,6.02-1.089c1.049-0.475,2.148-0.859,3.255-1.179  c1.525-0.44,3.088-0.751,4.614-1.188c0.308-0.088,0.706-0.47,0.748-0.763c0.183-1.256-1.606-3.719-2.853-3.643  c-2.978,0.185-5.948,0.55-8.904,0.97C317.462,360.712,313.557,361.394,309.643,362.023z M334.414,266.474  c0.93,1.697,1.543,3.131,2.461,4.329c0.338,0.443,1.395,0.416,2.133,0.452c0.687,0.035,1.388-0.214,2.075-0.187  c0.767,0.03,1.528,0.358,2.288,0.34c3.774-0.087,7.548-0.224,11.319-0.386c4.048-0.175,8.093-0.388,12.138-0.609  c0.472-0.025,0.936-0.203,1.403-0.31c0.03-0.161,0.062-0.319,0.092-0.479c-1.585-0.862-3.122-1.828-4.768-2.559  c-1.874-0.834-3.779-1.67-5.935-1.527c-1.195,0.08-2.418,0.168-3.595,0.003c-3.148-0.439-6.247-0.365-9.382,0.219  c-1.635,0.304-3.356,0.109-5.034,0.218C337.998,266.081,336.39,266.281,334.414,266.474z M267.68,340.481  c0.111,0.052,0.22,0.104,0.331,0.157c0.04-0.185,0.139-0.379,0.11-0.553c-0.349-2.09-0.644-4.193-1.103-6.258  c-0.381-1.713-1.068-2.128-2.892-2.009c-2.007,0.131-3.977,0.567-5.948-0.501c-1.552-0.841-2.604-0.122-2.459,1.721  c0.104,1.332,0.831,2.605,1.179,3.931c0.173,0.659,0.428,1.738,0.115,2.004c-1.115,0.954-0.688,1.998-0.543,3.062  c0.272,2.015,0.546,4.028,0.827,6.042c0.147,1.061,0.306,2.121,0.47,3.248c0.368-0.137,0.547-0.148,0.624-0.241  c2.538-3.161,5.045-6.347,7.618-9.478C266.415,341.108,267.115,340.851,267.68,340.481z M256.449,275.578  c1.292,0,2.397,0.096,3.478-0.022c1.756-0.19,3.49-0.59,5.245-0.778c3.556-0.38,7.121-0.666,10.678-1.014  c4.368-0.427,8.735-0.869,13.099-1.335c0.44-0.047,1.103-0.194,1.223-0.48c0.135-0.322-0.15-0.899-0.385-1.285  c-1.24-2.037-3.397-1.838-5.277-1.838c-3.081-0.001-6.171,0.253-9.237,0.582c-4.38,0.469-8.75,1.06-13.112,1.681  C259.568,271.455,257.351,272.444,256.449,275.578z M328.209,353.608c-0.25-3.029-0.6-5.71-0.641-8.395  c-0.023-1.405-0.424-1.89-1.743-1.64c-2.799,0.53-5.584,1.136-8.396,1.581c-1,0.158-1.332,0.562-1.299,1.496  c0.097,2.808,0.18,5.615,0.244,8.422c0.024,1.03,0.504,1.182,1.42,0.973c3.019-0.688,6.056-1.302,9.078-1.971  C327.423,353.954,327.943,353.704,328.209,353.608z M339.677,434.541c-1.075,0.5-1.75,0.76-2.374,1.114  c-3.04,1.73-6.458,2.093-9.801,2.396c-4.076,0.37-8.197,0.232-12.298,0.343c-0.495,0.013-0.985,0.198-1.33,0.271  c0.211,1.283,0.431,2.363,0.556,3.457c0.113,0.988,0.512,1.488,1.587,1.368c2.02-0.228,4.044-0.409,6.069-0.581  c4.682-0.393,9.367-0.784,14.053-1.145c1.981-0.153,2.663-1.971,3.616-3.154C340.353,437.863,339.754,436.152,339.677,434.541z   M315.982,495.438c-1.824-1.31-3.737-1.132-5.67-0.902c-1.145,0.136-2.318,0.304-3.444,0.165c-0.575-0.071-1.327-0.693-1.512-1.235  c-0.122-0.35,0.574-1.066,1.021-1.495c0.242-0.231,0.726-0.237,1.109-0.291c1.436-0.204,2.868-0.453,4.312-0.554  c1.141-0.078,2.378-0.228,3.427,0.106c5.211,1.668,10.141,0.366,15.059-1.206c0.361-0.116,0.591-0.637,0.883-0.97  c-0.314-0.163-0.632-0.47-0.943-0.467c-3.002,0.025-6.052-0.219-8.994,0.233c-6.965,1.068-13.882,0.66-20.814-0.076  c-0.8-0.084-1.144,0.092-1.327,0.881c-0.317,1.369-0.737,2.711-1.11,4.067c-0.536,1.948-0.308,2.285,1.702,2.494  c0.482,0.05,0.971,0.076,1.454,0.062c4.256-0.124,8.512-0.241,12.766-0.405C314.597,495.816,315.288,495.579,315.982,495.438z   M274.912,493.924c-0.441,2.188-0.774,4.079-1.214,5.948c-0.453,1.928-0.959,3.847-1.538,5.74c-0.255,0.835-0.122,1.284,0.729,1.519  c1.723,0.475,3.426,1.034,5.163,1.443c1.44,0.342,3.45-0.379,3.755-1.34c0.804-2.53,1.514-5.092,2.271-7.639  c0.282-0.95-0.075-1.604-0.914-2.027c-1.64-0.826-3.268-1.678-4.939-2.436C277.188,494.665,276.083,494.346,274.912,493.924z   M317.8,376.377c2.61-0.299,5.54-0.624,8.469-0.979c0.905-0.109,1.864-0.142,2.688-0.479c2.163-0.886,2.268-2.215,1.454-4.881  c-0.369-1.207-1.531-1.175-3.54-0.547c-2.137,0.668-4.35,1.22-6.569,1.465c-3.202,0.352-6.441,0.361-9.662,0.573  c-0.351,0.025-0.854,0.341-0.983,0.649c-0.604,1.442,0.504,3.538,2.028,3.729C313.594,376.151,315.528,376.213,317.8,376.377z   M337.437,469.905c-1.65,0.162-3.387,0.312-5.116,0.505c-3.518,0.392-7.028,0.828-10.549,1.207  c-1.285,0.136-1.379,0.794-0.979,1.812c0.246,0.629,0.468,1.275,0.613,1.932c0.411,1.845,0.882,2.169,2.716,1.82  c4.992-0.947,9.987-1.896,14.983-2.826c2.441-0.456,2.425-0.508,1.869-2.923c-0.293-1.271-0.758-1.916-2.149-1.542  C338.421,469.998,337.96,469.905,337.437,469.905z M322.012,421.662c0-0.792,0.083-1.596-0.016-2.377  c-0.387-3.112-0.81-6.221-1.29-9.321c-0.045-0.289-0.571-0.716-0.879-0.718c-4.068-0.038-8.342,3.009-9.72,6.863  c-0.855,2.393-0.47,2.79,2.079,2.989C315.507,419.358,319,419.158,322.012,421.662z M296.242,352.983  c-1.125,0.577-1.929,1.251-2.814,1.387c-1.811,0.274-3.665,0.34-5.5,0.343c-4.314,0.01-8.629-0.088-12.943-0.073  c-0.379,0.001-1.104,0.575-1.071,0.786c0.141,0.876,0.282,2.197,0.845,2.465c1.172,0.557,2.607,0.594,3.944,0.76  c4.084,0.506,8.168,0.287,12.256-0.014c2.125-0.156,4.389,0.541,6.405-1.349C297.047,356.074,296.688,354.697,296.242,352.983z   M338.717,346.1c-0.152,0.975,0.865,1.6,1.483,2.537c0.758,1.152,1.581,1.314,2.626,1.117c2.463-0.461,4.907-1.021,7.354-1.565  c1.222-0.271,1.442-1.051,1.163-2.2c-0.424-1.734-0.794-3.486-1.058-5.25c-0.134-0.901-0.527-1.028-1.268-0.832  c-2.429,0.643-4.872,1.23-7.283,1.934c-2.69,0.787-2.678,0.833-2.948,3.622C338.775,345.56,338.765,345.655,338.717,346.1z   M308.569,352.555c0.061-0.008,0.123-0.019,0.185-0.027c-0.25-2.064-0.511-4.127-0.745-6.194c-0.104-0.919-0.661-1.173-1.491-1.211  c-1.009-0.046-2.017-0.149-3.02-0.278c-1.965-0.254-3.643,0.989-3.606,2.988c0.026,1.361,0.452,2.729,0.81,4.065  c0.307,1.146,0.723,2.271,1.199,3.359c0.134,0.305,0.622,0.546,0.992,0.639c1.04,0.26,2.102,0.431,3.157,0.63  c0.66,0.125,1.322,0.243,1.985,0.353c0.967,0.16,1.224-0.352,1.087-1.188C308.951,354.643,308.754,353.599,308.569,352.555z   M345.797,392.247c0.768-2.31-2.312-34.343-3.334-35.944c-0.405,1.053-0.896,1.825-0.968,2.635  c-0.127,1.441,0.064,2.907-0.003,4.357c-0.051,1.091-0.016,2.337-0.525,3.224c-0.913,1.589-0.837,2.807,0.458,4.083  c0.713,0.702,1.411,1.711,1.542,2.663c0.806,5.888,1.438,11.799,2.168,17.698C345.191,391.411,345.569,391.82,345.797,392.247z   M368.069,493.373c-2.262,0.89-4.549,1.752-6.791,2.717c-0.273,0.119-0.483,0.812-0.424,1.189c0.189,1.186,0.488,2.355,0.808,3.517  c0.405,1.481,1.512,2.177,2.678,1.64c2.408-1.112,4.808-2.256,7.157-3.486c0.33-0.175,0.647-1.104,0.48-1.362  c-0.837-1.282-1.819-2.473-2.802-3.651C368.962,493.681,368.536,493.603,368.069,493.373z M291.667,244.224  c-0.159,0.452-0.323,0.824-0.424,1.214c-0.41,1.591-0.866,3.172-1.189,4.782c-0.788,3.927-1.522,7.866-2.251,11.805  c-0.179,0.97,0.108,1.891,1.202,1.88c0.407-0.003,0.98-0.869,1.179-1.442c1.212-3.502,2.261-7.063,3.518-10.549  C294.633,249.329,293.971,246.258,291.667,244.224z M303.973,237.932c-1.696,0.211-3.201,0.308-4.666,0.599  c-3.601,0.713-3.6,0.461-2.23,3.823c0.055,0.135,0.098,0.274,0.158,0.405c0.806,1.802,2.171,2.24,4.05,1.47  c1.039-0.428,2.178-0.605,3.265-0.922c1.037-0.302,2.063-0.64,3.093-0.961c-0.44-0.978-0.81-1.997-1.343-2.92  C305.765,238.493,305.099,237.595,303.973,237.932z M360.714,469.316c-0.05-0.139-0.1-0.277-0.149-0.416  c-0.131-0.058-0.263-0.165-0.391-0.161c-4.352,0.113-8.706,0.173-13.053,0.391c-1.986,0.099-2.072,0.404-1.625,2.398  c0.125,0.55,0.136,1.125,0.196,1.663c2.273,1.012,2.342,1.006,3.533,0.57c2.309-0.842,4.64-1.627,6.936-2.503  C357.701,470.672,359.198,469.969,360.714,469.316z M293.982,494.687c0.542-2.255,1.02-4.246,1.483-6.17  c-1.886-0.293-3.351-0.542-4.822-0.745c-1.489-0.205-2.744,0.021-3.274,1.73c-0.271,0.871-0.779,1.669-1.064,2.538  c-0.22,0.666-0.833,1.537,0.244,1.991c1.012,0.427,2.113,1.17,3.129-0.053c0.644-0.777,1.377-1.01,2.287-0.436  C292.485,493.87,293.036,494.152,293.982,494.687z M330.092,241.603c-0.04-3.546-1.594-4.988-4.809-4.808  c-2.84,0.16-5.682,0.268-8.525,0.374c-1.966,0.073-1.932,0.102-1.214,1.991c0.485,1.272,1.096,1.927,2.536,1.541  c1.354-0.364,2.739-0.602,4.107-0.916C325.093,239.114,328.045,238.196,330.092,241.603z M295.006,475.956  c0.014,0.229,0.028,0.455,0.042,0.683c5.353-0.006,10.613,1.724,16.041,0.501c0-0.541,0.019-1.019-0.003-1.494  c-0.064-1.422-0.711-1.934-2.146-1.748c-3.306,0.423-6.617,0.809-9.919,1.268C297.672,475.353,296.344,475.688,295.006,475.956z   M328.57,308.059c-0.043-0.141-0.084-0.28-0.127-0.421c-2.403-0.757-19.283,2.272-20.762,4.088c2.594,0,4.932,0.387,7.077-0.091  c3.161-0.705,6.558-0.66,9.446-2.464c0.223-0.138,0.572-0.052,0.846-0.127C326.228,308.726,327.396,308.389,328.57,308.059z   M382.01,344.404c-0.011-0.204-0.02-0.408-0.03-0.612c-0.683-0.083-1.392-0.331-2.044-0.225c-4.624,0.757-9.228,1.633-13.854,2.376  c-2.046,0.328-4.281,1.003-5.73-2.045c-0.287,1.268-0.46,2.032-0.632,2.797c-0.173,0.771,0.13,1.117,0.916,1.02  c6.196-0.769,12.395-1.512,18.582-2.338C380.174,345.249,381.079,344.739,382.01,344.404z M329.086,251.554  c-2.122-0.094-2.875,0.616-3.056,2.701c-0.134,1.583-0.383,3.16-0.614,4.733c-0.099,0.674-0.402,1.362,0.669,1.542  c0.803,0.135,1.488,0.277,1.875-0.761c0.775-2.081,1.661-4.121,2.493-6.182C331.083,252.025,330.812,251.631,329.086,251.554z   M335.138,353.974c-0.329-3.731-0.645-7.316-0.963-10.919c-1.846,0.472-2.849,1.656-3.024,3.472  C330.802,350.103,331.997,352.45,335.138,353.974z M324.227,383.946c-0.165-0.849-0.246-1.723-0.509-2.539  c-0.569-1.775-2.858-2.467-4.39-1.369c-0.184,0.13-0.353,0.34-0.432,0.551c-0.801,2.113,1.551,5.139,3.802,4.982  C323.785,385.495,324.537,385.29,324.227,383.946z M308.683,446.034c-0.201,0.107-0.401,0.214-0.602,0.322  c0.132,1.089,0.16,2.201,0.411,3.264c1.029,4.373,2.105,8.735,3.22,13.088c0.158,0.614,0.628,1.146,0.953,1.718  c0.078-0.708,0.341-1.455,0.203-2.119c-1.021-4.91-2.101-9.808-3.223-14.697C309.516,447.041,309.013,446.557,308.683,446.034z   M372.773,460.479c-0.262-3.215-1.346-5.934-2.697-8.546c-0.186-0.357-0.981-0.398-1.492-0.586c-0.17,0.46-0.535,0.953-0.467,1.375  c0.162,0.993,0.927,2.036,0.74,2.91c-0.526,2.488,0.572,3.596,2.764,4.147C371.964,459.865,372.255,460.156,372.773,460.479z   M337.902,430.715c-0.583,0-0.811-0.018-1.033,0.003c-2.233,0.202-4.446,0.832-6.682-0.244c-0.673-0.325-1.717-0.135-1.519,1.185  c0.057,0.379,0.071,0.772,0.05,1.157c-0.054,0.94,0.326,1.366,1.292,1.192c1.094-0.193,2.228-0.253,3.275-0.582  C334.905,432.917,336.445,432.197,337.902,430.715z M311.646,434.62c0.031,0.166,0.063,0.33,0.095,0.494  c2.765-0.196,5.533-0.354,8.29-0.639c0.317-0.033,0.813-0.814,0.764-1.188c-0.043-0.328-0.729-0.794-1.139-0.803  c-0.699-0.015-1.41,0.259-2.104,0.452C315.58,433.486,313.614,434.057,311.646,434.62z M336.947,314.254  c0.227-3.163-0.639-6.038-2.319-8.696C335.001,308.559,334.142,311.865,336.947,314.254z M312.501,356.702  c0.232-0.037,0.466-0.073,0.697-0.109c-0.025-0.442-0.045-0.885-0.074-1.326c-0.186-2.788-0.359-5.578-0.578-8.365  c-0.032-0.413-0.28-0.809-0.429-1.213c-0.203,0.417-0.595,0.839-0.581,1.248c0.062,1.924,0.196,3.848,0.381,5.766  C312.048,354.042,312.302,355.369,312.501,356.702z M355.407,345.675c1.523-2.19,1.233-5.616-0.523-6.921  C354.103,341.114,354.467,343.285,355.407,345.675z M316.938,476.443c-0.445-1.155-0.795-2.196-1.261-3.183  c-0.113-0.235-0.643-0.442-0.926-0.385c-0.275,0.056-0.637,0.438-0.686,0.726C313.757,475.395,314.799,476.49,316.938,476.443z   M348.639,298.89c0.516,1.453,1.602,1.605,2.63,1.298c0.431-0.127,0.63-1.026,0.935-1.573c-0.459-0.165-0.944-0.51-1.371-0.452  C350.098,298.266,349.402,298.621,348.639,298.89z M272.184,476.689c0.145-0.021,0.288-0.041,0.433-0.062  c0.244-0.663,0.631-1.312,0.699-1.992c0.107-1.071-0.806-1.336-1.618-1.434c-0.257-0.03-0.87,0.575-0.823,0.697  C271.243,474.856,271.733,475.766,272.184,476.689z M354.358,299.852c0.151-0.193,0.302-0.387,0.452-0.581  c-0.315,0.68-0.708,1.339-0.901,2.051c-0.071,0.259,0.351,0.938,0.52,0.927c0.875-0.053,1.741-0.267,2.551-0.414  C356.029,301.118,355.193,300.484,354.358,299.852z M278.351,487.178c-0.18-0.081-0.359-0.164-0.539-0.246  c-0.469,0.774-1.147,1.509-1.305,2.342c-0.065,0.348,0.985,0.904,1.844,1.635C278.351,489.321,278.351,488.249,278.351,487.178z   M309.799,237.624c0.41,1.951,1.394,3.5,2.348,3.787C312.062,239.467,311.15,237.925,309.799,237.624z M367.57,295.898  c-0.4,0.638-0.79,1.012-0.716,1.181c0.303,0.679,0.749,1.292,1.142,1.931c0.332-0.266,0.988-0.675,0.946-0.774  C368.633,297.527,368.177,296.885,367.57,295.898z M282.471,489.457c0.215,0.051,0.43,0.102,0.645,0.152  c0.249-0.781,0.54-1.554,0.72-2.352c0.051-0.229-0.224-0.53-0.348-0.797c-0.233,0.181-0.623,0.325-0.671,0.546  C282.641,487.81,282.577,488.639,282.471,489.457z M358.916,299.019c0.534-0.437,0.898-0.733,1.263-1.03  c-0.399-0.344-0.764-0.859-1.219-0.963c-0.255-0.057-0.798,0.524-0.943,0.916C357.947,298.131,358.506,298.548,358.916,299.019z   M308.653,440.349c-0.469-0.528-0.797-0.896-1.123-1.264c-0.278,0.305-0.838,0.692-0.777,0.897c0.153,0.523,0.586,0.959,0.907,1.433  C307.935,441.121,308.208,440.825,308.653,440.349z M362.689,301.629c0.916-0.145,1.553-0.245,2.443-0.385  c-0.569-0.802-0.946-1.332-1.463-2.059C363.32,300.06,363.092,300.624,362.689,301.629z M268.016,473.072  c-0.234,0.018-0.47,0.034-0.705,0.051c0.057,0.572,0.114,1.143,0.17,1.715c0.212-0.015,0.424-0.028,0.637-0.044  C268.083,474.22,268.05,473.646,268.016,473.072z M294.252,348.955c0.051,0.155,0.102,0.31,0.154,0.465  c0.668-0.176,1.336-0.352,2.002-0.528c-0.037-0.139-0.075-0.278-0.113-0.418C295.615,348.634,294.933,348.793,294.252,348.955z   M329.698,313.205c0.205-0.053,0.411-0.105,0.616-0.157c-0.162-0.458-0.322-0.915-0.507-1.365c-0.003-0.007-0.447,0.134-0.442,0.16  C329.454,312.3,329.581,312.752,329.698,313.205z M365.133,301.244c-0.569-0.802-0.946-1.332-1.463-2.059  c-0.35,0.874-0.578,1.438-0.98,2.443C363.605,301.484,364.242,301.384,365.133,301.244z"/>
</svg>
