<?xml version="1.0" encoding="utf-8"?>
<!-- Generator: Adobe Illustrator 16.0.1, SVG Export Plug-In . SVG Version: 6.00 Build 0)  -->
<!DOCTYPE svg PUBLIC "-//W3C//DTD SVG 1.1//EN" "http://www.w3.org/Graphics/SVG/1.1/DTD/svg11.dtd">
<svg xmlns="http://www.w3.org/2000/svg" xmlns:xlink="http://www.w3.org/1999/xlink" version="1.1" id="Layer_1" x="0px" y="0px" width="224px" height="293px" viewBox="185.5 249.5 224 293" xml:space="preserve">
<path d="M298.378,360.767c-0.839-0.813-1.868-1.503-2.474-2.46c-1.239-1.957-0.307-3.639,1.969-3.862  c0.516-0.05,1.032-0.141,1.548-0.146c2.148-0.02,3.307,1.333,3.015,3.48c-0.026,0.19-0.003,0.388-0.003,0.799  c0.429-0.156,0.787-0.229,1.085-0.403c4.131-2.414,8.261-4.829,12.374-7.274c1.132-0.672,2.18-1.484,3.31-2.158  c2.767-1.651,5.527-3.313,8.351-4.865c1.886-1.036,3.92-1.799,5.795-2.851c2.146-1.202,4.191-2.582,6.271-3.898  c0.497-0.314,0.958-0.684,1.625-1.164c-2.049-2.289-4.02-4.539-6.043-6.74c-2.992-3.252-6.011-6.481-9.04-9.698  c-2.783-2.956-5.634-5.849-8.387-8.833c-3.437-3.725-6.789-7.524-10.198-11.272c-3.89-4.276-7.826-8.51-11.697-12.802  c-2.32-2.573-4.553-5.226-6.832-7.836c-0.151-0.173-0.341-0.351-0.549-0.429c-1.064-0.398-2.125-0.823-3.22-1.122  c-0.824-0.225-1.692-0.33-2.547-0.389c-1.059-0.073-1.787-0.634-1.895-1.622c-0.119-1.078,0.711-1.328,1.463-1.593  c1.683-0.593,3.386-1.127,5.067-1.724c1.802-0.638,3.591-1.31,5.379-1.986c0.937-0.354,1.842-1.02,2.791-1.078  c4.77-0.292,9.549-0.449,14.327-0.614c2.428-0.083,4.858-0.132,7.289-0.111c3.943,0.032,7.888,0.154,11.832,0.194  c1.191,0.012,2.387-0.181,3.577-0.168c1.191,0.013,2.38,0.213,3.57,0.248c3.88,0.112,7.762,0.179,11.644,0.277  c2.272,0.057,4.548,0.139,6.82,0.213c0.238,0.008,0.503,0.114,0.711,0.043c2.835-0.969,4.829,0.883,7.03,2.059  c2.023,1.081,2.747,3.042,3.617,4.989c1.333,2.981,2.914,5.85,4.337,8.791c2.027,4.192,3.943,8.439,6.028,12.602  c1.912,3.815,4.109,7.489,5.953,11.336c1.979,4.135,3.641,8.422,5.544,12.596c1.059,2.32,2.333,4.541,3.499,6.813  c1.545,3.011,3.069,6.032,4.623,9.039c1.004,1.943,2.032,3.873,3.069,5.798c0.779,1.448,0.718,2.245-0.53,3.254  c-1.4,1.133-2.059,2.434-2.06,4.321c0,1.431-0.759,2.848-1.056,4.297c-0.221,1.07-0.26,2.18-0.342,3.275  c-0.322,4.254-0.731,8.506-0.92,12.767c-0.273,6.219-0.422,12.445-0.552,18.669c-0.082,3.911-0.038,7.825-0.036,11.736  c0,0.475,0.22,0.977,0.115,1.412c-0.165,0.697-0.403,1.441-0.839,1.982c-0.196,0.242-0.943,0.041-1.746,0.041  c0,1.403-0.188,3.028,0.035,4.595c0.733,5.137,0.289,10.282,0.335,15.425c0.03,3.517,0.249,7.029,0.291,10.545  c0.066,5.545,0.068,11.093,0.063,16.639c-0.001,0.794,0.185,1.354,0.711,2.021c0.49,0.617,0.488,1.654,0.615,2.52  c0.105,0.713,0.216,1.47,0.082,2.159c-0.167,0.858-0.377,1.853-0.925,2.472c-2.985,3.372-6.005,6.72-9.154,9.937  c-4.51,4.605-9.196,9.037-13.704,13.646c-3.285,3.358-6.438,6.853-9.588,10.342c-3.736,4.141-7.271,8.474-11.157,12.468  c-2.677,2.75-5.054,5.689-7.316,8.759c-0.461,0.625-1.228,1.025-1.853,1.529c-0.396,0.521-0.787,1.501-1.259,1.54  c-0.754,0.064-1.57-0.472-2.343-0.799c-0.387-0.165-0.707-0.509-1.101-0.638c-2.574-0.843-5.198-1.545-7.729-2.503  c-1.662-0.63-3.152-1.698-4.79-2.41c-2.186-0.951-4.438-1.75-6.663-2.607c-3.421-1.318-6.861-2.587-10.25-3.984  c-0.615-0.254-1.066-0.988-1.503-1.569c-1.14-1.516-2.201-3.09-3.354-4.596c-0.479-0.626-1.142-1.106-1.671-1.699  c-0.771-0.866-0.669-1.834-0.03-2.787c0.776-1.155,1.871-1.586,3.088-2.152c1.944-0.905,3.907-2.127,5.337-3.693  c1.769-1.937,3.759-3.519,5.776-5.127c1.145-0.912,2.19-1.954,3.238-2.98c1.588-1.559,3.163-3.129,4.68-4.755  c0.284-0.306,0.421-0.922,0.354-1.353c-0.52-3.318-1.979-6.314-3.268-9.377c-1.295-3.083-2.444-6.228-3.693-9.331  c-0.848-2.106-1.78-4.181-2.634-6.287c-1.361-3.36-2.652-6.753-4.046-10.102c-0.887-2.132-1.881-4.221-2.892-6.298  c-0.159-0.327-0.632-0.568-1.011-0.706c-0.519-0.188-1.084-0.287-1.637-0.34c-2.965-0.279-4.158-2.547-5.45-4.751  c-1.358-2.318-2.331-4.768-3.202-7.316c-1.363-3.995-3.148-7.845-4.703-11.777c-1.291-3.265-2.462-6.576-3.769-9.837  c-1.851-4.62-3.787-9.205-5.662-13.814c-0.303-0.747-0.724-1.12-1.574-1.208c-1.916-0.2-2.523-1.241-1.925-3.069  c0.049-0.149,0.161-0.318,0.126-0.447c-0.292-1.112-0.578-2.229-0.934-3.321c-0.251-0.77-0.224-1.308,0.556-1.812  c2.936-1.9,5.82-3.878,8.738-5.806c0.853-0.563,1.754-1.052,2.624-1.588c3.455-2.129,6.917-4.247,10.346-6.416  C297.731,361.729,298.04,361.158,298.378,360.767z M320.374,492.893c-0.403,0.26-0.79,0.55-1.214,0.769  c-0.32,0.166-0.798,0.442-1.019,0.324c-1.083-0.587-2.104-1.29-3.015-1.869c-0.212,0.513-0.466,1.145-0.733,1.771  c-0.309,0.725-0.252,1.353,0.521,1.722c0.537,0.257,1.096,0.517,1.674,0.632c3.172,0.635,6.268,1.465,9.221,2.847  c1.218,0.568,2.622,0.731,4.035,1.104c0-0.493,0.021-0.726-0.003-0.952c-0.133-1.329,0.435-2.255,1.738-2.592  c0.398-0.104,1.023-0.034,1.285,0.221c0.261,0.257,0.39,0.932,0.235,1.271c-0.394,0.874-0.975,1.664-1.587,2.661  c1.312,0.41,2.679,0.959,4.098,1.225c0.627,0.115,1.526-0.157,2.011-0.585c0.97-0.854,1.714-1.961,2.596-2.923  c1.291-1.404,2.626-2.771,3.932-4.163c0.164-0.177,0.259-0.42,0.247-0.399c-0.827-0.306-1.911-0.377-2.25-0.917  c-0.381-0.605-0.088-1.635-0.088-2.52c-0.858-0.24-2.014-0.296-1.881-1.72c0.119-1.272,1.5-2.825,2.438-2.5  c1.822,0.631,0.832,2.213,0.765,3.458c2.521-0.495,1.853,1.493,2.213,3.036c0.382-0.866,0.573-1.427,0.862-1.932  c0.525-0.919,1.017-1.884,1.691-2.686c0.768-0.909,0.808-1.159-0.383-1.538c-2.089-0.663-4.203-1.246-6.306-1.862  c-0.808-0.237-0.746,0.359-0.931,0.854c-0.141,0.373-0.527,0.812-0.884,0.896c-0.276,0.065-0.804-0.285-0.985-0.591  c-0.222-0.367-0.157-0.896-0.289-1.332c-0.089-0.295-0.249-0.731-0.468-0.796c-1.006-0.292-2.042-0.474-3.122-0.708  c0.089,1.652-0.493,2.539-1.315,2.159c-0.973-0.449-1.845-1.117-2.748-1.708c-0.12-0.077-0.184-0.255-0.252-0.396  c-0.877-1.823-2.881-1.938-4.189-0.055c0.562,0.029,1.027-0.007,1.463,0.096c0.308,0.071,0.692,0.265,0.83,0.52  c0.348,0.643-0.451,2.143-1.23,2.451c-0.791,0.314-1.762-0.173-2.106-1.06c-0.116-0.301-0.229-0.602-0.419-1.102  c-0.645,0.751-1.116,1.301-1.771,2.062c1.33-0.209,1.715,0.432,1.664,1.365c-0.042,0.768,0.079,1.808-0.95,1.965  c-1.341,0.203-1.906-0.807-2.247-2.209c-0.917,0.809-1.659,1.462-2.596,2.285c1.687,0.467,2.251,1.394,1.897,2.478  c-0.109,0.339-0.309,0.648-0.466,0.973L320.374,492.893z M300.865,277.954c-0.05,0.158-0.1,0.316-0.15,0.475  c2.099,1.184,2.964,3.326,4.333,5.07c2.703,3.442,5.779,6.591,8.707,9.856c3.861,4.306,7.691,8.639,11.604,12.898  c3.291,3.583,6.674,7.08,10.022,10.607c1.206,1.27,2.457,2.497,3.652,3.776c1.562,1.675,3.062,3.411,4.642,5.069  c1.94,2.038,3.986,3.979,5.882,6.056c0.667,0.731,0.98,1.774,1.553,2.609c0.207,0.304,0.676,0.521,1.06,0.595  c1.25,0.238,2.524,0.343,3.773,0.584c5.783,1.114,11.573,2.202,17.339,3.411c3.041,0.638,6.055,1.433,9.039,2.302  c1.562,0.454,3.007,1.296,4.555,1.813c0.773,0.258,1.658,0.18,2.493,0.253c-0.127-0.837-0.088-1.746-0.413-2.498  c-0.803-1.859-1.787-3.64-2.671-5.466c-1.18-2.437-2.321-4.892-3.502-7.328c-1.58-3.261-3.176-6.513-4.773-9.765  c-1.37-2.791-2.723-5.59-4.133-8.361c-1.918-3.768-3.958-7.476-5.812-11.274c-3.237-6.63-6.365-13.313-9.569-19.959  c-0.203-0.421-0.627-0.921-1.036-1.02c-0.877-0.212-1.812-0.247-2.723-0.245c-1.993,0.005-3.985,0.099-5.979,0.119  c-3.822,0.038-7.646,0.021-11.468,0.082c-3.379,0.054-6.756,0.275-10.133,0.255c-4.427-0.025-8.853-0.257-13.278-0.321  c-3.789-0.055-7.579-0.013-11.368,0.027C301.96,277.581,301.413,277.822,300.865,277.954z M343.353,392.633  c-0.08,0.165-0.174,0.597-0.438,0.846c-1.406,1.322-2.818,2.643-4.301,3.878c-1.484,1.234-1.582,1.631-1.218,3.475  c0.834,4.218,2.186,8.363,1.888,12.757c-0.039,0.576,0.181,1.175,0.305,1.758c0.838,3.939,1.668,7.881,2.529,11.815  c0.392,1.789,0.741,3.598,1.304,5.335c0.605,1.868,1.896,2.164,3.43,0.924c3.407-2.758,6.801-5.532,10.196-8.303  c0.092-0.074,0.152-0.188,0.241-0.266c1.557-1.363,3.049-2.812,4.688-4.067c3.383-2.594,6.848-5.078,10.268-7.623  c3.734-2.78,7.464-5.57,11.185-8.371c1.555-1.171,3.128-2.325,4.593-3.604c0.557-0.484,1.132-1.271,1.18-1.957  c0.215-3.095,0.277-6.2,0.332-9.3c0.104-5.984,0.284-11.971,0.195-17.953c-0.047-3.205-0.604-6.401-0.895-9.605  c-0.137-1.509-0.228-3.026-0.253-4.542c-0.007-0.433,0.175-0.973,0.463-1.288c1.106-1.209,0.593-2.481,0.408-4.008  c-0.586,0.39-0.996,0.617-1.354,0.907c-2.497,2.021-4.996,4.04-7.467,6.095c-1.129,0.938-2.19,1.957-3.286,2.937  c-1.454,1.3-2.882,2.63-4.371,3.888c-2.889,2.439-5.904,4.735-8.695,7.279c-3.435,3.13-6.664,6.481-10.033,9.684  c-3.059,2.905-6.17,5.752-9.293,8.587C344.576,392.251,343.988,392.355,343.353,392.633z M358.696,483.396  c0.137,0.044,0.273,0.087,0.412,0.131c0.523-0.533,1.032-1.085,1.576-1.599c2.72-2.559,5.446-5.105,8.173-7.656  c2.09-1.956,4.194-3.896,6.265-5.874c1.326-1.27,2.599-2.594,3.894-3.894c0.759-0.759,1.48-1.556,2.277-2.271  c1.835-1.646,3.545-3.513,5.61-4.799c1.924-1.197,2.221-2.619,2.15-4.631c-0.087-2.548,0.304-5.108,0.266-7.662  c-0.076-5.188-0.364-10.375-0.448-15.563c-0.087-5.395-0.022-10.789-0.058-16.186c-0.006-0.812,0.261-1.821-0.995-2.118  c-0.156-0.037-0.231-0.472-0.32-0.729c-0.282-0.823-0.576-1.645-0.822-2.479c-0.254-0.859-0.699-0.989-1.401-0.47  c-2.261,1.675-4.539,3.322-6.784,5.017c-2.441,1.844-4.847,3.735-7.279,5.591c-3.203,2.439-6.437,4.841-9.62,7.307  c-1.701,1.318-3.292,2.78-4.992,4.1c-1.552,1.203-3.233,2.237-4.765,3.467c-1.138,0.913-2.06,2.094-3.192,3.014  c-1.279,1.04-1.032,2.183-0.659,3.518c0.825,2.958,1.589,5.937,2.274,8.93c1.303,5.68,2.49,11.386,3.812,17.062  c0.866,3.726,1.875,7.419,2.843,11.119c0.159,0.609,0.44,1.188,0.649,1.784c0.18,0.513,0.377,1.024,0.491,1.553  C358.291,481.162,358.483,482.281,358.696,483.396z M325.104,366.699c-0.02-0.105-0.038-0.211-0.059-0.317  c-0.432-0.071-0.945-0.019-1.276-0.239c-0.61-0.408-1.432-0.904-1.566-1.499c-0.113-0.502,0.479-1.512,1.006-1.747  c1.635-0.731,2.843-0.427,3.773,1.305c0.512,0.952,1.026,1.105,1.855,0.734c1.806-0.807,3.594-1.653,5.386-2.492  c0.654-0.307,1.01-0.675,0.557-1.481c-0.504-0.897-0.129-1.698,0.586-2.349c0.266-0.241,0.573-0.436,0.833-0.682  c2.272-2.151,4.819-1.457,5.55,1.543c0.196,0.806,0.589,1.081,1.37,0.814c0.679-0.231,1.352-0.486,2.043-0.667  c0.528-0.139,1.08-0.225,1.626-0.255c0.743-0.041,1.499,0.069,2.234-0.016c1.652-0.193,1.713-0.37,1.163-1.991  c-1.051-3.1-2.068-6.211-3.103-9.317c-0.856-2.574-1.693-5.155-2.584-7.717c-0.458-1.317-1.721-1.587-2.77-0.725  c-1.8,1.479-3.514,3-5.773,3.916c-1.673,0.677-3.482,1.062-5.017,2.309c-1.787,1.452-3.989,2.402-6.037,3.522  c-3.939,2.155-7.898,4.273-11.842,6.421c-0.379,0.206-0.702,0.511-1.339,0.983c1.281,0.213,2.169,0.381,3.062,0.504  c1.503,0.207,2.595,1.418,2.453,2.757c-0.152,1.443-1.374,2.904-2.773,3.315c-2.149,0.632-4.128-0.592-4.213-2.804  c-0.043-1.145,0.391-2.309,0.595-3.392c0.056-0.027-0.12,0.041-0.275,0.139c-2.024,1.271-4.028,2.577-6.074,3.813  c-1.603,0.97-3.305,1.781-4.877,2.796c-3.013,1.945-5.933,4.036-8.96,5.957c-1.092,0.692-2.484,0.917-3.561,1.625  c-2.421,1.596-4.737,3.352-7.075,5.07c-0.257,0.189-0.595,0.673-0.517,0.823c0.153,0.294,0.546,0.568,0.887,0.644  c3.847,0.864,7.706,1.671,11.554,2.531c3.58,0.799,7.157,1.61,10.717,2.491c0.891,0.221,1.503,0.241,1.962-0.681  c0.16-0.322,0.602-0.505,0.916-0.75c1.821-1.42,3.675-2.801,5.453-4.272c1.035-0.856,1.171-2.839,0.456-4.025  c-0.481-0.798-0.407-1.581,0.193-2.323c0.591-0.729,1.321-1.183,2.177-0.645c0.745,0.47,1.411,1.117,1.981,1.795  c0.47,0.559,0.768,0.605,1.365,0.18c2.138-1.518,4.325-2.964,6.482-4.454C324.157,367.5,324.62,367.084,325.104,366.699z   M315.663,436.203c-2.473-0.542-4.649-1.812-7.369-1.551c0.156,0.544,0.223,0.928,0.373,1.275c2.965,6.886,5.954,13.76,8.904,20.649  c1.394,3.255,2.748,6.526,4.061,9.814c0.969,2.428,1.835,4.895,2.77,7.334c0.072,0.19,0.293,0.391,0.488,0.457  c0.604,0.208,1.218,0.41,1.845,0.518c5.405,0.921,10.59,2.625,15.693,4.562c3.31,1.255,6.53,2.738,9.816,4.058  c0.769,0.309,1.639,0.36,2.732,0.588c-0.455-2.183-0.804-4.01-1.224-5.82c-1.343-5.794-2.706-11.583-4.085-17.368  c-0.092-0.385-0.373-0.725-0.662-1.266c-0.904,1.559-1.098,2.917-0.759,4.316c0.479,1.975-0.349,3.14-2.297,3.69  c-2.033,0.575-4.036,1.336-5.95,2.231c-1.513,0.708-2.994,0.112-3.296-1.567c-0.211-1.174-0.455-2.345-0.76-3.497  c-0.56-2.115,0.024-3.446,1.995-4.389c0.211-0.102,0.408-0.229,0.612-0.342c-0.017-0.152-0.032-0.306-0.05-0.457  c-1.625-0.749-3.252-1.497-4.696-2.163c-1.229,1.396-2.284,2.597-3.396,3.86c0.341,0.228,0.585,0.431,0.86,0.565  c1.679,0.825,1.707,0.988,1.467,2.764c-0.078,0.574,0.287,1.208,0.439,1.816c0.147,0.583,0.542,1.258,0.377,1.735  c-0.428,1.24-1.718,1.695-3.037,1.456c-1.475-0.268-2.979-0.374-4.461-0.608c-0.422-0.066-1.033-0.229-1.182-0.53  c-0.91-1.861-1.799-3.743-2.521-5.683c-0.489-1.315-0.2-2.438,1.07-3.441c1.419-1.121,2.592-2.572,3.787-3.953  c0.703-0.812,0.092-1.919-1.023-2.022c-1.11-0.104-2.229-0.184-3.329-0.354c-1.471-0.227-2.558-0.948-3.096-2.438  c-0.741-2.057-1.495-4.114-2.396-6.104c-0.706-1.557-1.488-3.127-2.517-4.479c-1.452-1.913-1.562-1.842,0.435-3.225  C315.376,436.578,315.436,436.47,315.663,436.203z M309.014,384.027c0.015,0.15,0.027,0.299,0.041,0.449  c2.473,0.531,4.941,1.071,7.416,1.59c5.458,1.145,10.912,2.313,16.385,3.392c1.244,0.246,2.567,0.451,3.7-0.596  c2.307-2.129,4.661-4.203,7-6.296c4.726-4.229,9.453-8.452,14.175-12.684c0.872-0.783,1.716-1.6,2.776-2.592  c-0.938-0.396-1.572-0.702-2.231-0.932c-1.351-0.47-2.989-0.344-3.782-1.941c-0.086-0.174-0.495-0.185-0.752-0.277  c-0.576-0.208-1.156-0.41-1.728-0.634c-0.327-0.129-0.648-0.445-0.957-0.425c-1.741,0.116-3.547,0.064-5.206,0.521  c-4.486,1.234-8.928,2.649-13.352,4.099c-1.089,0.356-2.045,1.12-3.136,1.738c0.985,1.091,1.811,1.839,3.159,1.237  c0.271-0.121,0.635-0.076,0.948-0.046c1.29,0.119,2.577,0.261,3.664,0.374c0.289-0.792,0.378-1.745,0.898-2.273  c0.588-0.598,1.533-1.015,2.379-1.145c1.039-0.159,2.081,0.242,2.688,1.216c0.634,1.013,0.87,2.142,0.019,3.122  c-0.648,0.745-0.519,1.251,0.014,1.973c1.4,1.902,0.697,4.013-1.533,4.757c-0.56,0.186-1.146,0.286-1.777,0.438  c0,0.693,0.061,1.371-0.014,2.034c-0.158,1.439-0.62,2.807-2.049,3.412c-1.156,0.491-2.353,0.221-3.347-0.598  c-0.608-0.501-1.144-0.397-1.862-0.153c-1.743,0.59-3.6,1.155-5.254-0.16c-0.661-0.526-1.196-0.652-1.943-0.393  c-0.447,0.155-0.935,0.2-1.404,0.279c-1.807,0.303-3.21-0.537-3.32-2.33c-0.091-1.469,0.271-2.969,0.479-4.45  c0.115-0.838,0.683-0.938,1.429-0.8c0.633,0.117,1.292,0.095,1.743,0.122c0.408-1.586,0.755-2.934,1.102-4.281  C319.561,375.426,314.117,379.503,309.014,384.027z M318.134,395.456c-0.083-0.124-0.166-0.247-0.249-0.371  c-3.953-0.831-7.921-1.602-11.855-2.51c-3.966-0.915-7.927-1.872-11.841-2.984c-3.842-1.091-7.622-2.4-11.43-3.614  c-0.073,0.106-0.146,0.213-0.22,0.319c0.217,0.586,0.418,1.178,0.654,1.757c1.908,4.695,3.815,9.39,5.736,14.078  c1.148,2.805,2.321,5.599,3.485,8.396c1.561,3.755,3.144,7.5,4.676,11.267c0.985,2.422,1.892,4.875,2.844,7.311  c0.053,0.135,0.186,0.274,0.317,0.335c1.685,0.772,3.467,0.91,5.548,1.003c-0.813-1.079-1.416-1.899-2.04-2.703  c-2.645-3.409-4.093-7.28-4.436-11.564c-0.104-1.302-0.421-2.713-0.061-3.896c0.771-2.541,2.19-4.764,4.525-6.254  c0.199-0.128,0.407-0.424,0.41-0.644c0.017-1.384-0.732-1.956-2.099-1.656c-1.526,0.334-2.897-0.382-3.552-1.796  c-0.901-1.946-1.891-3.854-2.743-5.821c-0.471-1.087-0.351-2.316,0.488-3.125c0.464-0.447,1.493-0.657,2.145-0.491  c1.612,0.41,3.199,1,4.707,1.708c0.941,0.441,1.675,1.375,2.854,0.55c0.128-0.09,0.504,0.153,0.755,0.263  c0.389,0.17,0.768,0.359,1.151,0.54c-0.024-0.118-0.051-0.236-0.074-0.354c0.536-0.261,1.182-0.846,1.584-0.711  c0.659,0.223,1.493,0.818,1.667,1.424c0.573,2.007,1.209,4.078,0.131,6.11c1.443,0.63,1.724,0.429,1.582-0.938  c-0.123-1.188-0.271-2.373-0.343-3.564c-0.051-0.843,0.457-1.289,1.248-1.519c1.198-0.347,1.766,0.375,2.28,1.246  c0.347,0.586,0.713,1.158,1.068,1.737c0.124-0.031,0.248-0.062,0.372-0.093C317.383,397.694,316.536,396.35,318.134,395.456z   M327.267,407.122c0.444,0.685,1.134,1.531,1.586,2.489c0.681,1.438,1.064,3.022,1.805,4.426c2.362,4.481,2.25,9.135,1.139,13.875  c-0.12,0.514-0.473,1.012-0.823,1.427c-1.147,1.358-2.346,2.676-3.523,4.009c-0.379,0.429-0.759,0.855-1.247,1.407  c0.726,0.224,1.281,0.447,1.857,0.562c2.452,0.479,4.911,0.923,7.365,1.391c1.688,0.322,3.363,0.707,5.06,0.98  c1.638,0.265,1.892-0.027,1.514-1.62c-0.267-1.124-0.7-2.214-0.9-3.348c-0.443-2.515-0.774-5.049-1.178-7.57  c-0.312-1.964-0.646-3.925-1.003-5.879c-0.315-1.728-0.681-3.443-1.019-5.166c-0.924-4.701-1.856-9.401-2.75-14.108  c-0.142-0.738-0.494-1.112-1.206-1.278c-1.166-0.271-2.33-0.562-3.477-0.907c-1.028-0.31-1.438,0.134-1.476,1.086  c-0.047,1.191-0.067,2.385-0.088,3.576c-0.013,0.718,0.195,1.512-0.048,2.134C328.511,405.487,327.842,406.243,327.267,407.122z   M295.196,277.61c-0.873,0.066-1.75,0.098-2.617,0.208c-0.768,0.098-0.675,0.547-0.295,1.006c0.811,0.979,1.612,1.967,2.464,2.909  c2.667,2.948,5.345,5.888,8.041,8.81c2.187,2.37,4.414,4.704,6.61,7.066c2.659,2.861,5.308,5.734,7.959,8.604  c1.729,1.873,3.42,3.784,5.192,5.614c2.246,2.317,4.578,4.55,6.837,6.854c2.365,2.414,4.688,4.87,7.029,7.308  c0.956,0.996,1.899,2.006,2.871,2.987c1.699,1.715,3.394,3.438,5.137,5.107c0.727,0.695,1.116,0.11,1.162-0.565  c0.028-0.416-0.202-0.925-0.472-1.272c-0.73-0.941-1.535-1.826-2.326-2.719c-2.498-2.821-4.959-5.676-7.518-8.441  c-2.244-2.425-4.663-4.689-6.892-7.129c-2.997-3.284-5.862-6.688-8.824-10.004c-3.771-4.222-7.553-8.433-11.385-12.598  c-2.372-2.578-4.848-5.06-7.271-7.591c-0.19-0.198-0.46-0.445-0.464-0.673c-0.019-1.314-0.887-2.048-1.77-2.799  c-0.269-0.228-0.612-0.499-0.684-0.806C297.629,277.958,296.575,277.588,295.196,277.61z M317.142,429.646  c0.723-0.281,1.96-0.62,3.05-1.229c1.094-0.611,1.092-1.177,0.333-2.192c-0.937-1.251-0.836-1.456,0.041-2.702  c0.363-0.519,0.52-1.479,0.296-2.055c-0.57-1.465-1.301-2.896-2.164-4.214c-1.498-2.281-3.665-3.604-6.416-3.882  c-0.593-0.061-1.254-0.055-1.142,0.778c0.183,1.335-0.605,1.15-1.396,0.985c-1.419-0.296-1.671-0.059-1.885,1.405  c-0.607,4.153,1.155,7.419,3.686,10.479C312.89,428.65,314.571,429.414,317.142,429.646z M386.892,462.796  c-0.114-0.138-0.229-0.273-0.346-0.412c-1.805,1.587-3.635,3.146-5.409,4.768c-1.731,1.582-3.398,3.233-5.111,4.837  c-1.565,1.464-3.182,2.876-4.729,4.357c-2.722,2.604-5.391,5.264-8.118,7.86c-1.197,1.14-2.724,1.942-3.209,3.747  c-0.115,0.428-0.896,0.701-1.399,0.992c-0.505,0.29-1.147,0.403-1.56,0.782c-2.281,2.104-4.55,4.228-6.748,6.419  c-3.439,3.431-6.811,6.931-10.23,10.38c-1.076,1.085-1.762,2.129-0.968,3.768c0.605,1.251,0.24,1.705-1.051,2.212  c-0.226,0.089-0.499,0.536-0.446,0.742c0.084,0.339,0.416,0.617,0.644,0.921c0.352-0.276,0.763-0.501,1.037-0.838  c0.556-0.685,1.023-1.438,1.554-2.145c0.285-0.379,0.621-0.721,0.938-1.075c1.184-1.334,2.333-2.701,3.562-3.992  c1.399-1.471,2.926-2.823,4.298-4.317c2.154-2.346,4.209-4.783,6.342-7.149c1.067-1.188,2.214-2.304,3.325-3.449  c3.046-3.145,6.068-6.311,9.146-9.424c2.322-2.351,4.732-4.61,7.064-6.95c2.22-2.229,4.404-4.492,6.571-6.771  C383.688,466.329,385.278,464.552,386.892,462.796z M317.101,436.808c0.452,0.691,0.776,1.099,1.007,1.554  c1.493,2.955,3.022,5.894,4.427,8.892c0.911,1.946,2.185,3.115,4.454,2.97c0.666-0.043,1.351,0.118,2.021,0.225  c1.578,0.247,3.149,0.537,4.729,0.771c1.3,0.192,1.938-0.307,1.577-1.271c-1.053-2.801-2.102-5.609-3.323-8.338  c-0.41-0.916-1.196-1.939-2.067-2.312c-1.496-0.638-3.189-0.819-4.808-1.161c-2.256-0.477-4.519-0.934-6.781-1.373  C318.016,436.699,317.669,436.781,317.101,436.808z M351.369,273.914c0.012-0.157,0.021-0.314,0.033-0.471  c-0.143-0.049-0.279-0.11-0.425-0.146c-2.558-0.646-5.117-0.911-7.79-0.915c-3.924-0.005-7.842-0.667-11.771-0.901  c-4.046-0.241-8.104-0.429-12.155-0.408c-4.295,0.021-8.589,0.297-12.882,0.501c-4.493,0.213-9.01,0.246-13.383,1.523  c-1.004,0.293-2.006,0.59-3.009,0.886c0.037,0.129,0.073,0.258,0.11,0.387c0.187,0.016,0.376,0.055,0.562,0.043  c3.235-0.198,6.467-0.497,9.704-0.579c3.657-0.093,7.318,0.006,10.977,0.027c2.835,0.016,5.671,0.004,8.504,0.072  c3.027,0.072,6.055,0.336,9.079,0.316c5.704-0.036,11.407-0.224,17.11-0.33C347.812,273.886,349.591,273.914,351.369,273.914z   M394.472,345.073c0.129,0.017,0.259,0.034,0.387,0.052c0.077-0.458,0.313-0.962,0.2-1.366c-0.259-0.914-0.646-1.799-1.058-2.66  c-1.903-3.992-3.847-7.964-5.747-11.958c-2.238-4.703-4.483-9.403-6.657-14.136c-1.396-3.042-2.62-6.165-4.024-9.203  c-0.802-1.732-1.856-3.345-2.722-5.051c-1.943-3.842-3.86-7.699-5.751-11.568c-1.801-3.688-3.529-7.411-5.36-11.083  c-0.201-0.403-0.984-0.896-1.293-0.784c-0.567,0.206-1.13,0.728-0.682,1.597c0.4,0.776,0.617,1.646,1.007,2.429  c1.526,3.071,3.118,6.11,4.631,9.189c1.476,3.007,2.814,6.083,4.337,9.067c1.991,3.909,4.143,7.738,6.154,11.637  c2.65,5.136,5.243,10.302,7.845,15.464c2.649,5.259,5.296,10.52,7.9,15.8C394.034,343.299,394.2,344.212,394.472,345.073z   M305.115,500.422c0.408,0.584,0.572,0.911,0.818,1.157c2.213,2.212,4.944,3.576,7.841,4.604c2.771,0.985,5.63,1.737,8.384,2.767  c2.561,0.956,5.009,2.212,7.559,3.198c1.188,0.459,2.5,0.594,3.795,0.885c0.023-1.158-0.957-2.508-1.841-2.797  c-1.932-0.632-3.897-1.177-5.786-1.919c-3.623-1.428-7.184-3.015-10.806-4.444c-2.853-1.127-5.755-2.123-8.64-3.164  C306.118,500.593,305.767,500.56,305.115,500.422z M364.391,363.414c-0.129-0.487-0.175-0.723-0.253-0.948  c-1.804-5.193-3.589-10.393-5.433-15.572c-0.48-1.349-1.119-2.645-1.734-3.941c-0.273-0.577-2.381-1.33-2.584-0.934  c-0.243,0.472-0.15,1.249,0.056,1.797c1.82,4.843,3.669,9.678,5.577,14.487c0.733,1.846,1.621,3.632,2.505,5.414  c0.146,0.297,0.729,0.669,0.933,0.584C363.861,364.131,364.145,363.667,364.391,363.414z M361.2,342.231  c-1.187,0.001-1.513,0.507-1.163,1.471c0.896,2.471,1.898,4.904,2.735,7.395c1.035,3.089,1.918,6.229,2.922,9.33  c0.519,1.602,0.618,1.614,1.949,0.573c0.612-0.479,1.292-0.924,0.859-1.966c-1.19-2.872-2.3-5.777-3.453-8.665  c-0.96-2.405-1.907-4.815-2.93-7.193C361.932,342.736,361.41,342.438,361.2,342.231z M318.628,407.546  c-0.015,0.062-0.029,0.122-0.044,0.183c1.379,1.18,2.872,2.253,4.103,3.569c1.057,1.132,1.826,2.533,2.693,3.835  c0.611,0.918,0.495,2.305,1.852,2.771c0.196,0.067,0.35,0.636,0.312,0.947c-0.22,1.884-0.508,3.758-0.753,5.638  c-0.031,0.245,0.05,0.506,0.112,1.047c0.732-0.633,1.218-1.258,1.854-1.555c0.975-0.453,1.104-1.21,1-2.059  c-0.148-1.217-0.312-2.45-0.659-3.62c-0.404-1.372-0.998-2.688-1.536-4.02c-2.076-5.116-1.395-4.229-5.603-5.732  c-0.037-0.013-0.071-0.036-0.109-0.048C320.777,408.184,319.702,407.864,318.628,407.546z M309.37,498.113  c0.044-0.128,0.088-0.257,0.131-0.386c-1.652-1.91-1.523-2.8,0.483-4.292c1.781-1.324,3.562-2.668,5.24-4.117  c2.945-2.543,5.774-5.223,8.741-7.739c0.824-0.699,0.722-1.256,0.199-1.873c-0.624-0.737-1.078,0.021-1.462,0.371  c-3.583,3.261-7.15,6.539-10.702,9.834c-1.512,1.402-2.981,2.85-4.458,4.288c-0.724,0.705-1.422,1.438-2.294,2.322  C306.754,497.103,308.062,497.608,309.37,498.113z M368.98,341.941c0,0.229-0.045,0.399,0.006,0.536  c1.479,4.039,2.955,8.081,4.493,12.099c0.104,0.27,0.765,0.565,1.052,0.477c0.703-0.215,1.076-0.732,0.812-1.582  c-0.959-3.08-1.891-6.169-2.807-9.262C371.915,342.11,371.391,341.742,368.98,341.941z M364.064,340.782  c0.061,0.288,0.078,0.484,0.143,0.665c1.287,3.639,2.552,7.287,3.882,10.91c0.63,1.716,1.382,3.386,2.088,5.074  c0.324,0.774,0.84,0.716,1.242,0.139c0.229-0.329,0.379-0.893,0.261-1.249c-0.362-1.091-0.902-2.122-1.32-3.196  c-1.444-3.712-2.866-7.432-4.294-11.15C365.737,341.123,365.264,340.512,364.064,340.782z M345.183,458.381  c-0.664,0.769-1.148,1.569-1.849,2.075c-0.89,0.646-1.941,1.077-2.944,1.556c-1.649,0.788-1.657,0.773-1.303,2.622  c0.315,1.645,1.057,1.971,2.458,0.99c0.688-0.48,1.186-1.29,1.916-1.642C345.234,463.131,346.245,460.319,345.183,458.381z   M374.752,342.841c0.216,1.01,0.336,1.668,0.499,2.315c0.546,2.167,1.081,4.338,1.688,6.488c0.091,0.321,0.571,0.783,0.833,0.759  c0.907-0.086,1.726-1.404,1.524-2.339c-0.416-1.951-0.859-3.897-1.311-5.841c-0.05-0.211-0.188-0.513-0.352-0.567  C376.786,343.375,375.913,343.16,374.752,342.841z M358.436,360.383c-0.185-0.605-0.283-1.012-0.432-1.401  c-2.568-6.781-5.139-13.562-7.735-20.332c-0.111-0.293-0.483-0.487-0.915-0.9C349.365,340.528,356.82,359.072,358.436,360.383z   M348.197,456.451c0.204-0.396,0.318-0.511,0.302-0.601c-0.378-1.874-0.735-3.753-1.203-5.604c-0.062-0.239-0.724-0.492-1.074-0.453  c-0.443,0.05-0.887,0.348-1.273,0.618c-1.226,0.852-1.223,1.379-0.197,2.472c0.581,0.621,0.979,1.413,1.563,2.03  C346.85,455.479,347.525,455.912,348.197,456.451z M306.524,426.45c0.151-0.092,0.305-0.186,0.457-0.276  c-2.014-3.745-3.774-7.532-2.102-11.99c-0.625,0.326-0.963,0.901-1.437,1.053c-1.387,0.44-1.219,1.417-0.941,2.395  c0.5,1.757,0.948,3.551,1.683,5.213C304.757,424.137,305.73,425.254,306.524,426.45z M331.431,505.81  c-1.625-1.632-13.839-6.031-15.419-5.604C317.439,501.489,330.341,506.238,331.431,505.81z M320.392,395.741  c-0.061,0.143-0.12,0.285-0.181,0.428c0.208,0.619,0.415,1.642,1.281,1.034c1.088-0.766,1.609-0.248,2.179,0.456  c0.472,0.584,0.812,1.271,1.256,1.882c0.225,0.309,0.546,0.545,0.824,0.814c0.107-0.05,0.215-0.099,0.322-0.146  c0-0.893,0.021-1.786-0.02-2.677c-0.009-0.19-0.22-0.494-0.391-0.537C323.913,396.553,322.15,396.152,320.392,395.741z   M325.508,463.15c0.36,2.158,1.938,3.48,3.738,3.366c0.197-0.013,0.56-0.34,0.534-0.451c-0.143-0.638-0.205-1.604-0.616-1.809  C328.073,463.723,326.818,463.52,325.508,463.15z M353.983,359.704c0.222-0.086,0.441-0.172,0.664-0.258  c-1.412-3.562-2.823-7.123-4.234-10.684c-0.139,0.053-0.277,0.106-0.416,0.16C351.092,352.604,352.272,356.254,353.983,359.704z   M380.672,344.963c0.197,1.257,0.326,2.302,0.535,3.33c0.148,0.728,0.589,0.687,1.162,0.365c1.002-0.561,1.035-1.468,0.833-2.375  C382.95,345.16,381.956,345.134,380.672,344.963z M321.478,415.93c0.111-0.083,0.223-0.166,0.333-0.25  c-0.05-0.213-0.045-0.461-0.157-0.634c-1.506-2.308-3.701-3.812-6.079-5.065c-0.317-0.168-0.831,0.035-1.254,0.066  c-0.023,0.159-0.047,0.318-0.07,0.479C317.162,411.648,319.818,413.116,321.478,415.93z M325.604,406.205  c0.082-0.087,0.163-0.174,0.245-0.261c-0.69-1.072-1.382-2.146-2.071-3.22c-0.11,0.062-0.223,0.122-0.332,0.185  c-0.129,0.651-0.312,1.301-0.361,1.959c-0.021,0.276,0.179,0.754,0.39,0.83C324.156,405.944,324.891,406.047,325.604,406.205z   M325.889,379.933c0.021-0.163,0.04-0.326,0.06-0.489c-0.839-0.131-1.679-0.335-2.521-0.351c-0.271-0.005-0.688,0.443-0.779,0.759  c-0.054,0.18,0.373,0.673,0.654,0.747C324.264,380.85,325.166,380.661,325.889,379.933z M307.709,389.208  c0.045-0.191,0.089-0.383,0.133-0.574c-2.177-0.358-4.212-1.373-6.465-1.38c-0.037,0.166-0.074,0.331-0.111,0.497  C303.414,388.236,305.562,388.722,307.709,389.208z M354.233,488.269c-1.293-0.204-3.605,2.106-3.641,3.422  C351.829,490.528,352.925,489.498,354.233,488.269z M334.921,374.048c-0.608-0.625-2.062-0.903-2.634-0.406  c-0.157,0.136-0.124,0.823,0.046,0.945C333.107,375.142,334.188,374.872,334.921,374.048z M339.791,459.03  c1.348-0.758,1.583-1.606,0.822-2.374c-0.183-0.186-0.548-0.258-0.824-0.248c-0.146,0.006-0.414,0.315-0.396,0.462  C339.473,457.552,339.633,458.224,339.791,459.03z M330.323,378.812c-0.15,0.078-0.301,0.156-0.451,0.234  c0,0.53,0.038,1.064-0.01,1.59c-0.063,0.704,0.371,0.899,0.858,0.707c0.313-0.123,0.748-0.714,0.669-0.914  C331.157,379.842,330.695,379.345,330.323,378.812z M335.327,379.877c0.142,0.93,0.228,1.768,1.319,1.753  c0.212-0.002,0.633-0.474,0.594-0.646C337.033,380.086,336.431,379.68,335.327,379.877z M310.905,498.026  c-0.062,0.188-0.125,0.38-0.188,0.569c1.498,0.527,2.996,1.056,4.495,1.582c0.062-0.177,0.123-0.354,0.187-0.529  C313.9,499.107,312.402,498.566,310.905,498.026z M329.701,375.875c-0.132-0.132-0.265-0.265-0.396-0.397  c-0.622,0.341-1.245,0.682-1.868,1.023c-0.009,0.115-0.017,0.229-0.023,0.345c0.52,0.168,1.149,0.596,1.527,0.433  C329.324,377.112,329.458,376.367,329.701,375.875z M298.826,358.348c0.432-0.687,0.824-1.049,0.84-1.426  c0.011-0.266-0.491-0.553-0.764-0.831c-0.24,0.294-0.639,0.569-0.676,0.887C298.188,357.3,298.506,357.665,298.826,358.348z   M340.682,375.337c-0.59-0.382-1.013-0.679-1.468-0.913c-0.046-0.023-0.437,0.486-0.42,0.502c0.361,0.363,0.743,0.713,1.166,0.999  C340.016,375.963,340.314,375.643,340.682,375.337z M392.176,352.709c0.216,0.019,0.431,0.037,0.646,0.056  c0.053-0.849,0.104-1.698,0.156-2.546c-0.165-0.015-0.33-0.03-0.495-0.045C392.38,351.019,392.278,351.864,392.176,352.709z   M331.456,455.591c0.113-0.017,0.227-0.033,0.339-0.051c0.15-0.428,0.301-0.856,0.503-1.433c-0.542-0.077-0.975-0.14-1.672-0.238  C330.98,454.604,331.219,455.098,331.456,455.591z M354.495,340.09c0.404-0.331,0.634-0.519,0.862-0.706  c-0.327-0.226-0.632-0.523-0.993-0.646c-0.166-0.057-0.448,0.228-0.679,0.357C353.921,339.383,354.155,339.671,354.495,340.09z   M301.091,399.99c-0.032,0.188-0.064,0.377-0.096,0.563c0.574,0.561,1.226,0.312,1.88,0.028c0.015-0.126,0.029-0.251,0.044-0.377  C302.31,400.134,301.701,400.062,301.091,399.99z M360.664,340.658c-0.662-1.009-0.94-1.014-1.615-0.135  C359.665,340.575,360.165,340.616,360.664,340.658z M322.615,392.323c0.035-0.099,0.069-0.197,0.104-0.295  c-0.683-0.171-1.364-0.341-2.048-0.512c-0.033,0.145-0.065,0.291-0.1,0.436C321.254,392.076,321.935,392.199,322.615,392.323z   M327.188,373.747c0.226-0.245,0.395-0.429,0.562-0.613c-0.19-0.152-0.444-0.467-0.559-0.422c-0.229,0.089-0.382,0.374-0.564,0.578  C326.787,373.42,326.947,373.55,327.188,373.747z M326.358,393.144c0.034-0.164,0.068-0.328,0.104-0.492  c-0.439-0.087-0.882-0.174-1.322-0.261c-0.029,0.145-0.061,0.29-0.092,0.435C325.485,392.931,325.922,393.037,326.358,393.144z   M333.433,506.315c-0.021,0.098-0.044,0.194-0.065,0.293c0.575,0.147,1.148,0.298,1.725,0.446c0.026-0.11,0.052-0.223,0.078-0.334  C334.59,506.586,334.011,506.451,333.433,506.315z M324.166,434.436c0.105-0.118,0.211-0.236,0.316-0.355  c-0.208-0.22-0.417-0.44-0.625-0.66c-0.125,0.164-0.38,0.444-0.354,0.473C323.693,434.102,323.938,434.261,324.166,434.436z   M232.994,377.446c0.143,1.5-0.024,1.516-1.658,2.092c-1.478,0.521-2.856,1.355-4.228,2.14c-0.6,0.344-0.569,0.886-0.407,1.642  c0.389,1.814,1.785,2.709,2.92,3.884c0.511,0.53,1.273,1.33,1.162,1.843c-0.238,1.099-0.766,2.295-1.548,3.078  c-1.199,1.2-2.716,2.08-4.093,3.103c-1.727,1.282-3.443,2.578-5.177,3.852c-0.381,0.28-0.791,0.611-1.23,0.696  c-0.489,0.097-1.029-0.062-1.546-0.108c0.062-0.529-0.066-1.224,0.222-1.555c0.806-0.925,1.75-1.742,2.704-2.522  c1.575-1.287,3.22-2.489,4.8-3.769c1.562-1.267,1.625-2.377,0.222-3.811c-0.794-0.812-1.613-2.092-2.507-2.169  c-0.807-0.07-1.726,1.216-2.604,1.893c-2.711,2.088-5.412,4.19-8.154,6.238c-0.488,0.365-1.14,0.539-1.742,0.71  c-0.333,0.095-0.72,0.003-1.083-0.005c0.189-0.355,0.309-0.778,0.579-1.054c1.242-1.272,2.546-2.485,3.786-3.759  c0.61-0.627,1.146-1.331,1.686-2.023c1.347-1.728,2.688-3.45,4.756-4.406c0.702-0.324,0.909-0.797,0.366-1.519  c-0.958-1.272-1.829-2.61-2.767-3.898c-0.375-0.515-0.724-0.35-1.18,0.043c-2.105,1.815-4.206,3.643-6.409,5.333  c-1.733,1.33-3.593,2.502-5.449,3.66c-0.376,0.235-0.987,0.092-1.49,0.123c0.082-0.559-0.039-1.31,0.279-1.645  c1.494-1.576,3.072-3.078,4.688-4.531c2.243-2.018,4.857-3.659,6.43-6.343c0.176-0.301,0.068-0.768,0.091-1.158  c-0.342,0.124-0.78,0.152-1.012,0.386c-1.629,1.641-3.202,3.337-4.824,4.985c-0.67,0.681-1.371,1.352-2.146,1.902  c-0.583,0.413-1.309,0.625-1.971,0.926c-0.083-0.1-0.167-0.2-0.25-0.301c0.182-0.306,0.331-0.637,0.55-0.914  c1.035-1.311,2.508-2.456,3.041-3.942c0.851-2.37,2.895-3.731,4.03-5.788c0.192-0.348,0.148-0.825,0.214-1.242  c-0.106-0.015-0.212-0.03-0.318-0.044c-0.642,0.873-1.223,1.799-1.937,2.608c-2.504,2.843-5.081,5.614-8.33,7.652  c-0.865,0.542-1.642,1.25-2.556,1.675c-0.435,0.203-1.095-0.077-1.653-0.138c0.209-0.437,0.318-0.977,0.645-1.293  c1.542-1.496,3.176-2.896,4.715-4.395c2.162-2.105,4.25-4.287,6.414-6.391c0.468-0.455,1.13-0.709,1.693-1.07  c0.229-0.146,0.469-0.301,0.642-0.505c0.295-0.348,0.497-1.001,0.817-1.055c0.678-0.113,1.503-0.111,2.09,0.191  c0.678,0.348,1.066,0.225,1.413-0.284c1.113-1.638,2.419-3.197,3.22-4.98c0.908-2.023,2.304-3.546,3.738-5.146  c1.32-1.472,2.388-3.182,3.486-4.841c1.893-2.858,3.686-5.783,5.614-8.617c0.354-0.521,1.164-0.723,1.739-1.107  c0.452-0.302,1.094-0.572,1.259-1.006c0.623-1.636,1.104-3.327,1.603-5.008c0.522-1.759,1.025-3.525,1.484-5.302  c0.087-0.337-0.073-0.737-0.111-1.109c-0.05-0.487-0.305-1.148-0.084-1.417c0.287-0.352,1.043-0.656,1.442-0.521  c1.853,0.627,2.947-0.127,3.847-1.671c0.562-0.965,1.479-1.399,2.669-1.548c1.802-0.226,3.568-0.743,5.352-1.125  c0.703-0.151,1.42-0.241,2.117-0.417c1.074-0.271,1.82-0.819,1.6-2.106c-0.053-0.311-0.024-0.639-0.005-0.958  c0.057-0.921-0.086-1.351-1.205-0.906c-2.665,1.06-5.359,2.061-8.086,2.947c-2.877,0.935-5.805,1.714-8.713,2.552  c-1.109,0.32-2.21,0.753-3.344,0.885c-1.22,0.142-1.566,0.75-1.706,1.851c-0.427,3.365-0.865,6.732-1.445,10.074  c-0.56,3.22-1.299,6.41-1.972,9.61c-0.063,0.301-0.142,0.666-0.348,0.854c-0.239,0.22-0.665,0.431-0.936,0.361  c-0.24-0.062-0.532-0.513-0.535-0.795c-0.01-0.95-0.002-1.921,0.177-2.85c1.098-5.685,2.249-11.36,3.373-17.04  c0.247-1.245,0.392-2.516,0.728-3.735c0.119-0.43,0.601-0.916,1.03-1.078c2.567-0.972,5.156-1.893,7.762-2.758  c1.622-0.539,3.306-0.89,4.927-1.431c3.292-1.098,6.53-2.308,9.499-4.181c1.193-0.752,3.18-0.246,3.646,1.667  c0.216,0.886,0.242,1.818,0.395,2.723c0.049,0.291,0.23,0.559,0.351,0.837c0.264-0.132,0.53-0.259,0.791-0.398  c0.273-0.146,0.57-0.47,0.804-0.427c1.374,0.25,1.953-0.712,2.52-1.615c1.785-2.843,4.425-4.765,7.059-6.707  c1.41-1.04,2.714-2.234,4.179-3.185c1.288-0.835,2.74-1.417,4.108-2.131c1.217-0.635,2.479-1.213,3.613-1.976  c1.05-0.706,2.38-0.666,3.222,0.364c0.399,0.489,0.732,1.032,1.1,1.547c0.894,1.252,2.377,1.229,3.641,1.534  c1.776,0.429,2.542,0.999,3.023,2.754c0.129,0.469,0.407,0.951,0.747,1.3c2.158,2.221,2.024,4.518,0.328,6.895  c-0.62,0.869-1.3,1.695-2.053,2.669c1.724,1.237,1.818,2.924,1.356,4.812c-0.086,0.353,0.276,0.949,0.602,1.247  c1.674,1.533,2.017,2.341,1.159,4.244c-0.225,0.5-1.198,0.785-1.877,0.923c-0.544,0.11-1.18-0.097-1.747-0.261  c-0.566-0.165-1.096-0.452-1.642-0.685c-0.103,0.076-0.205,0.152-0.308,0.229c0.367,0.572,0.679,1.191,1.118,1.702  c0.383,0.447,0.921,0.757,1.37,1.152c1.014,0.892,1.451,1.973,0.938,3.307c1.318-0.202,2.562-0.393,3.881-0.595  c-0.215-0.916-0.5-1.933-0.687-2.968c-0.334-1.863,0.081-2.277,1.96-2.074c0.156,0.017,0.327,0.023,0.475-0.021  c2.907-0.859,5.568,3.007,4.824,5.94c-0.468,1.844-2.235,2.606-4.075,1.743c-0.34-0.16-0.67-0.338-1.103-0.558  c-0.153,0.622-0.215,1.091-0.384,1.518c-0.545,1.371-1.969,2.25-3.446,1.994c-0.872-0.151-1.111,0.147-1.448,0.898  c-0.357,0.795-0.996,1.553-1.697,2.084c-1.139,0.863-2.624,0.441-3.351-0.828c-0.574-1.002-1.104-2.033-1.595-3.078  c-0.283-0.602-0.609-0.814-1.306-0.681c-0.512,0.099-1.168,0.064-1.606-0.183c-1.381-0.781-2.737-1.625-4.01-2.569  c-1.052-0.78-0.976-1.634-0.485-2.796c0.308-0.731,0.358-1.781,0.062-2.499c-0.304-0.739-0.909-0.046-1.338,0.266  c-1.25,0.91-2.484,1.843-3.764,2.708c-0.98,0.662-1.986,0.832-3.142,0.213c-1.267-0.679-2.644-1.15-3.965-1.729  c-0.175-0.076-0.429-0.251-0.434-0.389c-0.057-1.415-1.455-1.74-2.092-2.66c-0.479-0.691-0.721-1.546-1.187-2.594  c-1.139,1.017-2.181,1.946-3.383,3.019c0.864,0.824,1.594,1.594,2.402,2.271c1.041,0.871,1.671,1.793,1.025,3.21  c-0.133,0.291-0.083,0.867,0.122,1.077c1.299,1.328,2.663,2.592,4.011,3.871c0.485,0.461,1.045,0.857,1.47,1.367  c0.999,1.203,1.009,2.511,0,3.686c-0.698,0.812-0.969,1.463-0.256,2.503c0.917,1.337,1.569,2.855,2.333,4.297  c0.536,1.012,0.21,1.858-0.541,2.591c-1.33,1.297-2.675,2.578-4.015,3.865c-2.501,2.405-4.946,4.873-7.549,7.161  c-0.55,0.483-1.75,0.57-2.526,0.366c-0.941-0.247-1.538-0.175-2.053,0.605c-2.35,3.558-4.719,7.104-7.032,10.686  c-0.664,1.028-1.619,1.371-2.824,0.617c-1.232-0.771-2.526-0.869-3.908-0.773c-0.669,0.046-1.349-0.066-2.024-0.085  c-0.784-0.022-1.575,0.035-2.353-0.047C234.527,377.82,233.783,377.608,232.994,377.446z M288.902,324.458  c-0.201-0.239-0.364-0.538-0.615-0.7c-0.239-0.154-0.569-0.167-0.86-0.241c0.079,0.376,0.059,0.991,0.258,1.073  c0.321,0.132,0.786-0.089,1.192-0.16c0.934-0.082,1.52-0.472,1.542-1.361c-0.111-0.092-0.222-0.184-0.333-0.275  C289.692,323.348,289.297,323.903,288.902,324.458z M254.135,361.353c0.802,2.192,2.703,2.588,4.192,0.885  c0.365-0.417,0.784-0.785,1.181-1.172c1.85-1.808,3.773-3.546,5.53-5.44c1.902-2.049,1.836-2.143,0.371-4.491  c-0.042-0.068-0.066-0.147-0.113-0.21c-0.384-0.521-0.727-0.653-1.211-0.044c-1.136,1.429-2.37,2.779-3.484,4.224  c-1.063,1.377-1.902,2.943-3.069,4.218c-0.889,0.971-1.562,2.593-3.423,2.059c-1.219-0.982-1.208-2.83-2.75-3.677  c-0.813-0.446-0.833-2.1-0.329-2.464c0.6-0.434,1.57-0.022,2.292,0.975c0.023,0.032,0.037,0.071,0.059,0.104  c0.519,0.782,1.091,1.035,1.811,0.215c0.888-1.012,1.807-1.996,2.686-3.016c2.21-2.567,4.395-5.155,6.611-7.717  c0.672-0.777,0.799-1.52,0.096-2.329c-0.679-0.781-1.324-1.594-2.034-2.345c-0.978-1.036-1.374-0.932-1.909,0.388  c-1.542,3.805-3.088,7.609-4.646,11.408c-0.608,1.482-0.907,1.678-2.454,1.291c-0.953-0.238-1.856-0.68-2.772-1.055  c-2.284-0.934-4.563-1.881-7.014-2.893c-0.146,0.359-0.406,1-0.697,1.718c1.698,0.087,2.331,0.478,3.331,1.502  c0.759,0.778,1.754,1.328,2.499,2.117c0.46,0.488,0.97,1.282,0.882,1.85c-0.118,0.756-0.069,1.169,0.571,1.553  C251.615,359.771,252.871,360.568,254.135,361.353z M230.29,373.154c1.483-1.36,2.591-2.864,4.08-3.632  c2.441-1.259,3.988-3.39,5.9-5.16c0.405-0.375,0.706-1.131,0.661-1.68c-0.235-2.863-0.514-5.729-0.962-8.565  c-0.145-0.916-0.852-1.741-1.301-2.608c-0.365-0.703-0.994-1.394-1.028-2.113c-0.045-0.939,0.945-1.187,1.709-1.584  c0.77-0.4,1.768-1.017,1.971-1.736c0.748-2.641,1.234-5.358,1.755-8.06c0.153-0.794-0.178-1.254-1.149-1.184  c-0.768,0.056-1.597-0.027-2.324-0.272c-0.893-0.302-1.307-0.019-1.479,0.796c-0.899,4.28-3.499,7.616-6.028,11.004  c-1.19,1.594-2.215,3.311-3.395,4.915c-2.146,2.919-4.344,5.8-6.542,8.681c-0.307,0.402-0.826,0.654-1.092,1.073  c-1.129,1.78-2.102,3.667-3.328,5.374c-0.722,1.005-0.514,1.667,0.109,2.52c2.017,2.761,3.971,5.567,6.013,8.308  c0.206,0.276,0.957,0.446,1.263,0.29c0.913-0.465,1.753-1.086,2.579-1.704c1.054-0.789,1.01-1.918-0.025-2.789  c-0.855-0.719-1.721-1.436-2.501-2.232c-0.771-0.788-1.057-2.34-0.553-2.72c1.084-0.818,1.729,0.132,2.465,0.685  C228.225,371.614,229.363,372.461,230.29,373.154z M266.052,327.014c1.643-2.018,2.977-3.858,4.524-5.497  c1.55-1.642,3.292-3.109,4.991-4.605c1.733-1.526,3.705-2.827,5.225-4.535c1.582-1.779,4.157-1.688,5.907-3.462  c-0.516-0.268-0.811-0.537-1.128-0.566c-1.819-0.166-3.647-0.397-5.466-0.353c-0.949,0.023-2.011,0.375-2.806,0.905  c-4.451,2.967-8.759,6.134-12.134,10.355c-0.664,0.83-1.553,2.039-1.375,2.865C264.138,323.734,265.167,325.202,266.052,327.014z   M247.565,341.551c-0.118-0.065-0.235-0.131-0.353-0.196c-0.251,0.33-0.665,0.634-0.721,0.994c-0.133,0.857-0.095,1.74-0.129,2.612  c-0.028,0.709,0.173,1.551-0.138,2.101c-0.718,1.269,0.019,1.507,0.948,1.792c1.861,0.57,3.738,1.101,5.562,1.775  c0.771,0.286,1.171,0.257,1.479-0.535c1.754-4.529,3.56-9.038,5.273-13.582c0.464-1.231-0.062-2.144-1.262-2.738  c-0.319-0.158-0.669-0.284-0.937-0.507c-0.539-0.449-0.98-0.385-1.466,0.081c-1.179,1.13-2.397,2.221-3.562,3.365  c-0.329,0.323-0.672,0.747-0.764,1.177c-0.376,1.752-0.687,3.52-0.964,5.291c-0.171,1.097-0.811,1.798-1.724,1.73  c-0.964-0.072-1.475-0.789-1.396-1.993C247.441,342.461,247.513,342.007,247.565,341.551z M243.928,355.817  c0.079,0.767,0.11,1.352,0.205,1.926c0.292,1.771,0.616,3.535,0.911,5.305c0.305,1.829,0.046,2.212-1.532,3.196  c-0.897,0.56-1.682,1.314-2.472,2.03c-1.148,1.041-2.193,2.206-3.399,3.172c-1.28,1.025-2.709,1.862-4.044,2.823  c-0.23,0.166-0.314,0.535-0.466,0.81c0.34,0.014,0.687,0.077,1.02,0.032c0.892-0.121,1.774-0.377,2.667-0.412  c1.028-0.039,2.064,0.09,3.094,0.168c1.031,0.079,2.083,0.083,3.084,0.308c0.984,0.221,1.58-0.062,2.108-0.869  c1.202-1.833,2.492-3.609,3.68-5.451c0.88-1.366,1.666-2.793,2.472-4.205c0.347-0.606,0.424-1.213-0.291-1.645  c-1.177-0.709-2.317-1.497-3.552-2.083c-1.227-0.583-1.985-1.434-1.768-2.371C245.949,357.242,245.581,356.583,243.928,355.817z   M259.927,322.555c-1.621,1.224-3.357,2.214-4.674,3.603c-2.097,2.209-4.269,4.288-6.747,6.057c-0.438,0.312-1.007,0.75-1.082,1.201  c-0.233,1.417-0.26,2.869-0.389,4.607c0.608-0.458,0.975-0.685,1.282-0.974c3.331-3.142,6.653-6.292,9.977-9.441  c0.55-0.521,1.136-1.013,1.635-1.581C261.096,324.701,261.081,324.122,259.927,322.555z M275.593,322.414  c0.45,0.039,0.894,0.202,1.245,0.085c1.613-0.533,3.132-0.238,4.668,0.307c0.292,0.104,0.815,0.028,1.024-0.177  c2.687-2.632,5.753-4.957,7.192-8.626c0.151-0.385,0.233-0.796,0.348-1.195c-0.446-0.051-0.943-0.255-1.329-0.125  c-1.091,0.368-2.162,0.822-3.194,1.335c-0.958,0.477-1.935,0.978-2.756,1.648c-0.759,0.62-1.038,1.449-0.417,2.484  c0.27,0.449,0.301,1.396,0.005,1.732c-0.307,0.349-1.141,0.245-1.748,0.308c-0.144,0.015-0.299-0.101-0.452-0.147  C278.221,319.444,276.508,320.278,275.593,322.414z M241.411,330.635c-1.623-0.089-2.147,0.605-2.258,2.753  c-0.05,0.96,0.888,1.752,2.207,1.865c1.567,0.133,2.176-0.659,2.288-3.411C243.725,329.912,241.979,331.167,241.411,330.635z   M280.248,331.389c0.436,1.321,1.093,2.331,2.199,2.946c0.355,0.197,0.888,0.076,1.34,0.1c0.004-0.57,0.25-1.407-0.031-1.66  C282.833,331.94,281.715,331.327,280.248,331.389z M287.361,327.722c-0.561-0.605-1.082-1.24-1.688-1.776  c-0.179-0.158-0.744-0.174-0.888-0.022c-0.355,0.372-0.59,0.869-0.809,1.346c-0.023,0.05,0.377,0.419,0.592,0.431  C285.466,327.751,286.369,327.722,287.361,327.722z M274.961,329.327c0.215-0.665,0.555-1.145,0.449-1.491  c-0.324-1.067-1.996-2.013-2.795-1.761C273.286,327.006,273.967,327.949,274.961,329.327z M298.169,334.515  c0.63,0.519,1.04,0.889,1.497,1.185c0.048,0.031,0.57-0.52,0.546-0.55c-0.337-0.437-0.709-0.856-1.131-1.209  C299.02,333.89,298.654,334.203,298.169,334.515z M288.282,334.477c-0.105,0.148-0.211,0.295-0.316,0.443  c0.266,0.162,0.525,0.338,0.806,0.469c0.037,0.017,0.183-0.203,0.278-0.313C288.794,334.876,288.538,334.676,288.282,334.477z   M285.822,348.818c0.069-2.036,1.176-2.634,2.924-1.49c0.819,0.535,1.504,1.275,2.313,1.978c0.653-0.232,0.796-0.651,0.415-1.337  c-0.464-0.835-0.387-1.721,0.389-2.253c0.751-0.516,1.667-0.534,2.449,0.118c1.461,1.218,2.326,2.71,2.122,4.685  c-0.122,1.178-0.765,2.013-1.799,2.5c-1.083,0.51-1.921-0.014-2.648-0.806c-0.073-0.08-0.204-0.106-0.299-0.153  c-0.087,0.049-0.188,0.069-0.219,0.127c-0.656,1.183-1.507,2.16-2.998,1.915c-1.718-0.282-3.204-1.064-3.968-2.739  C283.895,350.031,284.305,349.324,285.822,348.818z M292.517,348.658c-0.051,0.202-0.103,0.404-0.153,0.606  c0.388,0.124,0.776,0.248,1.165,0.372c0.016-0.179,0.102-0.478,0.036-0.516C293.237,348.928,292.87,348.805,292.517,348.658z   M287.829,349.859c-0.145,0.04-0.29,0.08-0.435,0.12c0.096,0.298,0.192,0.596,0.288,0.894c0.12-0.035,0.24-0.068,0.36-0.103  C287.971,350.466,287.9,350.163,287.829,349.859z M297.644,345.503c-1.073-1.14-1.129-2.281-0.048-2.996  c0.346-0.229,0.976-0.389,1.302-0.229c1.589,0.782,3.233,1.531,4.64,2.583c1.475,1.104,1.567,3.131,0.569,5.013  c-0.669,1.262-2.481,1.982-4.03,1.601c-1.524-0.375-3.656-2.906-3.515-4.4C296.611,346.551,297.227,346.081,297.644,345.503z   M298.624,345.442c-0.082,0.124-0.163,0.248-0.245,0.372c0.255,0.333,0.455,0.738,0.777,0.983c0.492,0.374,1.053,0.667,1.612,0.937  c0.373,0.181,0.793,0.263,1.192,0.389c-0.146-0.484-0.146-1.207-0.467-1.404C300.609,346.175,299.589,345.852,298.624,345.442z   M325.936,336.146c-0.335-1.367-0.885-2.709-1.539-3.958c-0.398-0.759-1.188-1.159-2.15-0.641c-0.288,0.155-0.689,0.097-1.038,0.143  c-0.544,0.073-1.42-0.014-1.558,0.263c-0.262,0.529-0.355,1.42-0.071,1.89c1.117,1.851,2.615,3.3,5.011,3.5  C325.31,337.294,326.151,337.025,325.936,336.146z M314.411,347.476c-0.479-1.337-1.073-2.659-1.812-3.868  c-0.555-0.908-1.539-0.768-2.155,0.121c-0.225,0.322-0.438,0.658-0.708,0.939c-0.745,0.775-0.877,2.14-0.057,2.759  c0.896,0.673,1.965,1.114,2.959,1.656C313.831,348.876,314.688,348.248,314.411,347.476z M355.357,339.384  c-0.327-0.226-0.632-0.523-0.993-0.646c-0.166-0.057-0.448,0.228-0.679,0.357c0.234,0.288,0.47,0.576,0.81,0.995  C354.899,339.759,355.129,339.572,355.357,339.384z M359.049,340.523c0.616,0.052,1.116,0.093,1.615,0.135  C360.002,339.649,359.724,339.645,359.049,340.523z M288.902,324.458c-0.201-0.239-0.364-0.538-0.615-0.7  c-0.239-0.154-0.569-0.167-0.86-0.241c0.079,0.376,0.059,0.991,0.258,1.073c0.321,0.132,0.786-0.089,1.19-0.16L288.902,324.458z   M308.322,366.432c-0.006,1.755-0.508,2.301-2.11,2.864c-1.337,0.47-2.55,0.136-3.621-0.602c-0.863-0.594-1.28-1.491-0.924-2.616  c0.592-1.869,1.783-3.224,3.505-4.104c0.932-0.477,2.12,0.13,2.481,1.335C307.992,364.443,308.155,365.629,308.322,366.432z   M305.215,365.974c-0.149-0.079-0.297-0.159-0.446-0.238c-0.112,0.235-0.245,0.464-0.319,0.71c-0.014,0.045,0.208,0.162,0.321,0.245  C304.918,366.452,305.066,366.213,305.215,365.974z M331.043,349.282c-0.773-0.246-1.979-0.046-2.617,0.441  c-0.698,0.534-1.335,1.628-1.341,2.482c-0.009,1.42,1.85,2.932,3.415,3.228c1.226,0.232,1.896-0.116,2.311-1.284  c0.185-0.516,0.246-1.074,0.364-1.613C333.29,350.883,332.459,349.733,331.043,349.282z M352.547,370.721  c1.249-1.545,1.416-3.37,0.77-5.194c-0.328-0.928-1.062-1.579-2.219-1.434c-1.895,0.237-2.725,1.603-3.398,3.146  c-0.799,1.832,0.852,4.402,3.057,4.727C351.361,371.559,352.108,371.264,352.547,370.721z M336.774,495.604  c0.782-1.161,1.624-2.307,2.221-3.562c0.267-0.561-0.339-1.173-0.984-0.794c-1.106,0.649-2.15,1.438-3.109,2.292  c-0.259,0.229-0.289,0.999-0.107,1.36c0.216,0.428,0.775,0.681,1.092,0.935C336.333,495.726,336.678,495.748,336.774,495.604z   M332.273,490.039c-0.562,0.171-1.102,0.457-1.599,0.771c-0.836,0.531-1.009,1.455-0.461,2.13c0.606,0.747,1.454,0.835,2.163,0.071  c0.466-0.503,0.734-1.188,1.037-1.701C333.223,490.555,333.269,489.735,332.273,490.039z M320.374,492.893  c-0.109,0.421-0.257,0.834-0.32,1.262c-0.136,0.927,0.699,2.003,1.564,2.065c0.95,0.068,1.479-0.617,1.566-1.97  c0.08-1.207-0.643-1.242-1.544-1.166c-0.425,0.035-0.863-0.104-1.297-0.164L320.374,492.893z M337.047,485.595  c-1.138-0.145-2.35,1.129-2.107,2.272c0.095,0.447,0.788,0.98,1.289,1.084c0.873,0.178,1.694-1.013,1.664-2.578  C337.747,486.23,337.432,485.644,337.047,485.595z M326.329,489.549c-0.95-0.089-2.25,0.938-2.155,1.624  c0.111,0.804,0.361,1.585,1.414,1.594c0.965,0.009,1.719-0.971,1.69-2.594C327.09,490.041,326.729,489.586,326.329,489.549z   M336.941,500.241c0.734,0.082,1.649-0.862,1.452-1.676c-0.131-0.541-0.683-1.22-1.188-1.376c-0.771-0.238-1.576,0.677-1.592,1.533  C335.612,499.617,336.077,500.146,336.941,500.241z M328.181,496.147c-0.026-0.811-0.365-1.628-1.374-1.663  c-0.777-0.028-0.997,0.55-0.949,1.23c0.057,0.833,0.307,1.514,1.715,1.442C327.707,496.948,328.194,496.54,328.181,496.147z   M330.858,485.199c-0.43,0.421-1.119,0.788-1.221,1.275c-0.129,0.624,0.193,1.339,1.147,1.31c0.737-0.022,1.142-0.296,1.308-1.295  C331.682,486.06,331.27,485.63,330.858,485.199z"/>
</svg>
